<svg
   viewBox="0 0 350 342"
   version="1.1"
   id="svg144"
   sodipodi:docname="404.svg"
   width="350"
   height="342"
   inkscape:version="1.2.1 (9c6d41e410, 2022-07-14)"
   xmlns:inkscape="http://www.inkscape.org/namespaces/inkscape"
   xmlns:sodipodi="http://sodipodi.sourceforge.net/DTD/sodipodi-0.dtd"
   xmlns="http://www.w3.org/2000/svg"
   xmlns:svg="http://www.w3.org/2000/svg">
  <defs
     id="defs148" />
  <sodipodi:namedview
     id="namedview146"
     pagecolor="#ffffff"
     bordercolor="#000000"
     borderopacity="0.25"
     inkscape:showpageshadow="2"
     inkscape:pageopacity="0.0"
     inkscape:pagecheckerboard="0"
     inkscape:deskcolor="#d1d1d1"
     showgrid="false"
     inkscape:zoom="1.608"
     inkscape:cx="197.45025"
     inkscape:cy="150.80846"
     inkscape:window-width="1920"
     inkscape:window-height="991"
     inkscape:window-x="-9"
     inkscape:window-y="-9"
     inkscape:window-maximized="1"
     inkscape:current-layer="svg144" />
  <g
     id="freepik--404--inject-14"
     transform="translate(-83.333334,-78.358209)">
    <path
       d="M 147.68,287.64 H 86.83 v -27.47 l 60.85,-72.34 h 29.12 v 73.9 h 15.09 v 25.91 H 176.8 v 22.48 h -29.12 z m 0,-25.91 v -37.84 l -32.16,37.84 z"
       style="fill:#472b47"
       id="path2" />
    <path
       d="m 202.3,249.51 q 0,-34.29 12.34,-48 12.34,-13.71 37.61,-13.7 12.13,0 19.93,3 a 36.79,36.79 0 0 1 12.71,7.79 41.59,41.59 0 0 1 7.75,10.09 52.38,52.38 0 0 1 4.55,12.34 115.36,115.36 0 0 1 3.36,28 q 0,32.72 -11.07,47.89 -11.07,15.17 -38.13,15.18 -15.18,0 -24.53,-4.84 a 39.76,39.76 0 0 1 -15.33,-14.19 q -4.35,-6.64 -6.77,-18.17 a 124.33,124.33 0 0 1 -2.42,-25.39 z m 33.14,0.08 q 0,23 4.05,31.37 4.05,8.37 11.77,8.41 a 12.34,12.34 0 0 0 8.82,-3.57 q 3.74,-3.57 5.5,-11.28 1.76,-7.71 1.76,-24 0,-23.94 -4.06,-32.19 -4.06,-8.25 -12.18,-8.24 -8.28,0 -12,8.41 -3.72,8.41 -3.66,31.09 z"
       style="fill:#472b47"
       id="path4" />
    <path
       d="m 371.74,287.64 h -60.85 v -27.47 l 60.85,-72.34 h 29.12 v 73.9 H 416 v 25.91 h -15.14 v 22.48 h -29.12 z m 0,-25.91 v -37.84 l -32.15,37.84 z"
       style="fill:#472b47"
       id="path6" />
  </g>
  <g
     id="freepik--Planets--inject-14"
     transform="translate(-83.333334,-78.358209)">
    <g
       style="opacity:0.3"
       id="g23">
      <path
         d="m 201,145.62 a 1.87,1.87 0 1 1 -1.86,-1.87 1.86,1.86 0 0 1 1.86,1.87 z"
         style="fill:#472b47"
         id="path9" />
      <circle
         cx="72.970001"
         cy="216.13"
         r="1.3200001"
         style="fill:#472b47"
         id="circle11" />
      <circle
         cx="291.04999"
         cy="408.32999"
         r="1.89"
         style="fill:#472b47"
         id="circle13" />
      <circle
         cx="336.5"
         cy="332"
         r="1.3200001"
         style="fill:#472b47"
         id="circle15" />
      <path
         d="m 424.17,95.62 a 1.32,1.32 0 1 1 -1.32,-1.32 1.32,1.32 0 0 1 1.32,1.32 z"
         style="fill:#472b47"
         id="path17" />
      <path
         d="m 172.75,69 a 1.32,1.32 0 1 1 -1.32,-1.32 1.33,1.33 0 0 1 1.32,1.32 z"
         style="fill:#472b47"
         id="path19" />
      <circle
         cx="277.70001"
         cy="136.94"
         r="1.3200001"
         style="fill:#472b47"
         id="circle21" />
    </g>
    <circle
       cx="141.23"
       cy="116.36"
       r="21.91"
       style="fill:#472b47"
       id="circle25" />
    <circle
       cx="141.23"
       cy="116.36"
       r="21.91"
       style="opacity:0.7;fill:#ffffff"
       id="circle27" />
    <path
       d="m 133.68,99.83 a 21.84,21.84 0 0 0 -8.68,1.77 21.92,21.92 0 0 0 24.87,34.89 v 0 A 21.92,21.92 0 0 0 133.64,99.84 Z"
       style="opacity:0.2;fill:#472b47"
       id="path29" />
    <path
       d="m 131.5,105.62 a 2,2 0 1 1 -2,-2 2,2 0 0 1 2,2 z"
       style="opacity:0.2;fill:#472b47"
       id="path31" />
    <path
       d="m 155.06,103.62 a 2,2 0 1 1 -2,-2 2,2 0 0 1 2,2 z"
       style="opacity:0.2;fill:#472b47"
       id="path33" />
    <path
       d="m 151.06,117.9 a 3.28,3.28 0 1 1 -3.28,-3.28 3.28,3.28 0 0 1 3.28,3.28 z"
       style="opacity:0.2;fill:#472b47"
       id="path35" />
    <path
       d="m 140.64,127.25 a 4.38,4.38 0 1 1 -4.38,-4.38 4.38,4.38 0 0 1 4.38,4.38 z"
       style="opacity:0.2;fill:#472b47"
       id="path37" />
    <circle
       cx="382.20001"
       cy="376.25"
       r="19.23"
       transform="rotate(-76.72,382.17854,376.24954)"
       style="fill:#472b47"
       id="circle39" />
    <circle
       cx="382.20001"
       cy="376.25"
       r="19.23"
       transform="rotate(-76.72,382.17854,376.24954)"
       style="opacity:0.3;fill:#ffffff"
       id="circle41" />
    <path
       d="m 394.33,361.34 a 19.22,19.22 0 0 0 -17.67,33.32 19,19 0 0 0 5.53,0.82 19.23,19.23 0 0 0 12.14,-34.14 z"
       style="opacity:0.4;fill:#472b47"
       id="path43" />
    <path
       d="m 363.83,382 c -20.53,9.66 -5.22,17.11 23.71,6.71 26.79,-9.63 37,-21.77 13,-18 1.29,5.05 -32.26,18.12 -36.71,11.29 z"
       style="fill:#472b47"
       id="path45" />
  </g>
  <g
     id="freepik--Astronaut--inject-14"
     transform="translate(-83.333334,-78.358209)">
    <path
       d="M 394.1,187.83 C 367.21,206 332.4,230 322.79,287.64 h -2.05 c 9.35,-57 42.89,-81.57 69.79,-99.81 z"
       style="opacity:0.2"
       id="path48" />
    <path
       d="m 255,368.27 c -17,0 -33.81,-7.67 -42,-20.19 -5.05,-7.74 -10.92,-23.95 6.56,-45.58 l 1.55,1.26 c -12.36,15.3 -14.64,30.65 -6.43,43.23 10,15.3 33.59,23 53.73,17.52 20.63,-5.61 33.15,-23.55 34.36,-49.22 4.13,-87.81 50.78,-114.86 84.84,-134.61 21.17,-12.27 36.46,-21.13 33.1,-39.84 -0.47,-2.59 -1.5,-4.38 -3.17,-5.48 -4.35,-2.87 -12.85,-0.88 -22.69,1.41 -19.31,4.5 -45.75,10.66 -61.5,-16.13 l 1.73,-1 c 15,25.53 39.57,19.8 59.32,15.2 10.29,-2.39 19.17,-4.46 24.24,-1.13 2.15,1.41 3.47,3.64 4,6.8 3.61,20.08 -13,29.72 -34.05,41.92 -33.67,19.52 -79.77,46.25 -83.85,133 -1.26,26.6 -14.32,45.21 -35.84,51.06 a 52.88,52.88 0 0 1 -13.9,1.78 z"
       style="fill:#472b47"
       id="path50" />
    <path
       d="m 255,368.27 c -17,0 -33.81,-7.67 -42,-20.19 -5.05,-7.74 -10.92,-23.95 6.56,-45.58 l 1.55,1.26 c -12.36,15.3 -14.64,30.65 -6.43,43.23 10,15.3 33.59,23 53.73,17.52 20.63,-5.61 33.15,-23.55 34.36,-49.22 4.13,-87.81 50.78,-114.86 84.84,-134.61 21.17,-12.27 36.46,-21.13 33.1,-39.84 -0.47,-2.59 -1.5,-4.38 -3.17,-5.48 -4.35,-2.87 -12.85,-0.88 -22.69,1.41 -19.31,4.5 -45.75,10.66 -61.5,-16.13 l 1.73,-1 c 15,25.53 39.57,19.8 59.32,15.2 10.29,-2.39 19.17,-4.46 24.24,-1.13 2.15,1.41 3.47,3.64 4,6.8 3.61,20.08 -13,29.72 -34.05,41.92 -33.67,19.52 -79.77,46.25 -83.85,133 -1.26,26.6 -14.32,45.21 -35.84,51.06 a 52.88,52.88 0 0 1 -13.9,1.78 z"
       style="opacity:0.2;fill:#ffffff"
       id="path52" />
    <path
       d="m 312.76,97 a 46.05,46.05 0 0 1 13.58,2.13 c 0,0 11,18.77 12.3,23.07 -0.46,4.24 -7.61,11.19 -7.61,11.19 z"
       style="fill:#472b47"
       id="path54" />
    <path
       d="m 312.76,97 a 46.05,46.05 0 0 1 13.58,2.13 c 0,0 11,18.77 12.3,23.07 -0.46,4.24 -7.61,11.19 -7.61,11.19 z"
       style="opacity:0.3;fill:#ffffff"
       id="path56" />
    <path
       d="m 345.34,188.13 a 141.41,141.41 0 0 1 -11.56,-16.38 q -1.26,-2.17 -2.39,-4.42 c -0.43,-0.85 -0.84,-1.7 -1.24,-2.56 a 10.76,10.76 0 0 1 -1.21,-2.69 c -1.2,-12.67 3.14,-22 -1,-32.17 l -16.48,6.44 c 0,0 1.4,18.12 4.6,29 2,6.73 6.48,12.55 10.81,17.94 1.35,1.68 2.65,3.41 4,5.1 1.35,1.69 2.71,3.06 4,4.65 1.95,2.41 2.59,4.72 1.12,7.56 l -0.25,0.45 c -0.42,0.74 1.54,1.58 2.78,0 2,-2.58 1.72,-2.42 3.46,-4.62 1.06,-1.33 2.27,-2.78 3.32,-4 a 3.37,3.37 0 0 0 0.04,-4.3 z"
       style="fill:#472b47"
       id="path58" />
    <path
       d="m 345.34,188.13 a 141.41,141.41 0 0 1 -11.56,-16.38 q -1.26,-2.17 -2.39,-4.42 c -0.43,-0.85 -0.84,-1.7 -1.24,-2.56 a 10.76,10.76 0 0 1 -1.21,-2.69 c -1.2,-12.67 3.14,-22 -1,-32.17 l -16.48,6.44 c 0,0 1.4,18.12 4.6,29 2,6.73 6.48,12.55 10.81,17.94 1.35,1.68 2.65,3.41 4,5.1 1.35,1.69 2.71,3.06 4,4.65 1.95,2.41 2.59,4.72 1.12,7.56 l -0.25,0.45 c -0.42,0.74 1.54,1.58 2.78,0 2,-2.58 1.72,-2.42 3.46,-4.62 1.06,-1.33 2.27,-2.78 3.32,-4 a 3.37,3.37 0 0 0 0.04,-4.3 z"
       style="opacity:0.7;fill:#ffffff"
       id="path60" />
    <path
       d="m 341.31,182.92 a 54.69,54.69 0 0 1 -8.66,7.52 c 0.43,0.48 0.85,1 1.28,1.46 a 43.92,43.92 0 0 0 8.5,-7.51 z"
       style="opacity:0.3;fill:#472b47"
       id="path62" />
    <path
       d="m 345.34,188.13 -0.12,-0.14 a 5.18,5.18 0 0 0 -1.27,3.17 5,5 0 0 0 0.38,2.35 l 0.95,-1.13 a 3.37,3.37 0 0 0 0.06,-4.25 z"
       style="opacity:0.3;fill:#472b47"
       id="path64" />
    <path
       d="m 308.84,109 a 35.38,35.38 0 0 1 -6.37,7.19 23.27,23.27 0 0 1 -4.42,3 19,19 0 0 1 -2.58,1.09 l -0.68,0.22 -0.22,0.06 -0.47,0.13 a 5.93,5.93 0 0 1 -0.88,0.14 7.55,7.55 0 0 1 -2.51,-0.23 12.24,12.24 0 0 1 -2.94,-1.27 25,25 0 0 1 -2.15,-1.41 40.31,40.31 0 0 1 -3.58,-3 53.16,53.16 0 0 1 -6,-6.74 2.51,2.51 0 0 1 3.35,-3.62 h 0.08 c 2.36,1.5 4.74,3.08 7.06,4.49 1.18,0.69 2.32,1.39 3.45,1.93 a 15.29,15.29 0 0 0 1.59,0.72 3.12,3.12 0 0 0 1.07,0.26 c 0.06,0 0,-0.07 -0.37,-0.06 a 2.93,2.93 0 0 0 -0.35,0 l -0.22,0.05 v 0 l 0.33,-0.17 a 13.53,13.53 0 0 0 1.29,-0.79 18.4,18.4 0 0 0 2.5,-2.12 63.62,63.62 0 0 0 4.9,-5.79 v 0 a 5,5 0 0 1 8,5.93 z"
       style="fill:#472b47"
       id="path66" />
    <path
       d="m 308.84,109 a 35.38,35.38 0 0 1 -6.37,7.19 23.27,23.27 0 0 1 -4.42,3 19,19 0 0 1 -2.58,1.09 l -0.68,0.22 -0.22,0.06 -0.47,0.13 a 5.93,5.93 0 0 1 -0.88,0.14 7.55,7.55 0 0 1 -2.51,-0.23 12.24,12.24 0 0 1 -2.94,-1.27 25,25 0 0 1 -2.15,-1.41 40.31,40.31 0 0 1 -3.58,-3 53.16,53.16 0 0 1 -6,-6.74 2.51,2.51 0 0 1 3.35,-3.62 h 0.08 c 2.36,1.5 4.74,3.08 7.06,4.49 1.18,0.69 2.32,1.39 3.45,1.93 a 15.29,15.29 0 0 0 1.59,0.72 3.12,3.12 0 0 0 1.07,0.26 c 0.06,0 0,-0.07 -0.37,-0.06 a 2.93,2.93 0 0 0 -0.35,0 l -0.22,0.05 v 0 l 0.33,-0.17 a 13.53,13.53 0 0 0 1.29,-0.79 18.4,18.4 0 0 0 2.5,-2.12 63.62,63.62 0 0 0 4.9,-5.79 v 0 a 5,5 0 0 1 8,5.93 z"
       style="opacity:0.7;fill:#ffffff"
       id="path68" />
    <path
       d="m 272.29,102.42 1.17,2 c 0,0 0.89,2.62 2.68,3.1 l 4.86,-1.57 -0.25,-0.41 v 0 c -0.62,-0.94 -0.55,-2.77 -0.34,-4.29 0.21,-1.52 -0.57,-1.57 -1.15,-1.19 a 3.82,3.82 0 0 0 -0.84,1.65 7.77,7.77 0 0 0 -0.79,-0.93 l -1.48,-1.48 a 1.72,1.72 0 0 0 -2.34,-0.06 l -1.2,1.07 a 1.71,1.71 0 0 0 -0.32,2.11 z"
       style="fill:#472b47"
       id="path70" />
    <path
       d="m 272.29,102.42 1.17,2 c 0,0 0.89,2.62 2.68,3.1 l 4.86,-1.57 -0.25,-0.41 v 0 c -0.62,-0.94 -0.55,-2.77 -0.34,-4.29 0.21,-1.52 -0.57,-1.57 -1.15,-1.19 a 3.82,3.82 0 0 0 -0.84,1.65 7.77,7.77 0 0 0 -0.79,-0.93 l -1.48,-1.48 a 1.72,1.72 0 0 0 -2.34,-0.06 l -1.2,1.07 a 1.71,1.71 0 0 0 -0.32,2.11 z"
       style="opacity:0.7;fill:#ffffff"
       id="path72" />
    <path
       d="m 317.67,95.22 a 59.64,59.64 0 0 0 -15.34,6.47 4.32,4.32 0 0 0 -1.94,4.53 c 1.93,9.44 6.32,22.08 11.06,30.13 l 22.11,-9.15 c 0.15,-3.9 -5.22,-16.52 -10.69,-28.72 -0.98,-2.19 -2.87,-3.82 -5.2,-3.26 z"
       style="fill:#472b47"
       id="path74" />
    <path
       d="m 317.67,95.22 a 59.64,59.64 0 0 0 -15.34,6.47 4.32,4.32 0 0 0 -1.94,4.53 c 1.93,9.44 6.32,22.08 11.06,30.13 l 22.11,-9.15 c 0.15,-3.9 -5.22,-16.52 -10.69,-28.72 -0.98,-2.19 -2.87,-3.82 -5.2,-3.26 z"
       style="opacity:0.8;fill:#ffffff"
       id="path76" />
    <path
       d="m 326.3,106.21 -4.39,-1.47 c 1,2.57 4.53,5.82 7,7.73 -0.8,-2 -1.69,-4.1 -2.61,-6.26 z"
       style="opacity:0.3;fill:#472b47"
       id="path78" />
    <path
       d="m 316.22,85.32 c -1.83,-3.48 -5.78,-5.23 -10.52,-4.84 -4,0.34 -7.54,4.42 -7.12,6.62 0.42,2.2 3.78,3.14 4.42,3.9 l -2.77,2 a 3,3 0 0 0 -0.6,4.29 c 1.17,1.48 2.71,3 3.6,4.12 7.66,-0.2 13.33,-3.12 15.38,-5.93 -0.77,-3.56 -0.61,-6.7 -2.39,-10.16 z"
       style="fill:#472b47"
       id="path80" />
    <path
       d="m 316.22,85.32 c -1.83,-3.48 -5.78,-5.23 -10.52,-4.84 -4,0.34 -7.54,4.42 -7.12,6.62 0.42,2.2 3.78,3.14 4.42,3.9 l -2.77,2 a 3,3 0 0 0 -0.6,4.29 c 1.17,1.48 2.71,3 3.6,4.12 7.66,-0.2 13.33,-3.12 15.38,-5.93 -0.77,-3.56 -0.61,-6.7 -2.39,-10.16 z"
       style="opacity:0.8;fill:#ffffff"
       id="path82" />
    <path
       d="m 312.46,87.48 a 7.57,7.57 0 1 1 -9.81,-4.3 7.58,7.58 0 0 1 9.81,4.3 z"
       style="fill:#263238"
       id="path84" />
    <path
       d="m 377.39,177.6 c -0.11,-3.29 -0.26,-3 -0.35,-5.77 -0.06,-1.7 -0.07,-3.59 -0.08,-5.22 a 3.36,3.36 0 0 0 -2.7,-3.28 c -1.32,-0.27 -2.65,-0.52 -4,-0.8 -1.73,-0.37 -3.44,-0.77 -5.13,-1.26 -1.32,-0.38 -2.62,-0.8 -3.91,-1.27 -1.29,-0.47 -2.74,-1 -4.08,-1.62 -1.58,-0.67 -3.14,-1.39 -4.68,-2.14 -1.73,-0.82 -3.44,-1.68 -5.15,-2.55 -6.58,-10.89 -6.72,-18.07 -13.78,-26.49 l -15.16,6.86 c 0,0 11.14,19.76 18.72,28.14 4.37,4.82 11.22,7 17.33,8.58 4.41,1.13 8.88,2 13.35,2.83 1.74,0.32 3.63,0.44 5.13,1.48 a 5.74,5.74 0 0 1 2.14,3.45 q 0.1,0.42 0.18,0.84 c 0.19,0.84 2.24,0.2 2.17,-1.78 z"
       style="fill:#472b47"
       id="path86" />
    <path
       d="m 377.39,177.6 c -0.11,-3.29 -0.26,-3 -0.35,-5.77 -0.06,-1.7 -0.07,-3.59 -0.08,-5.22 a 3.36,3.36 0 0 0 -2.7,-3.28 c -1.32,-0.27 -2.65,-0.52 -4,-0.8 -1.73,-0.37 -3.44,-0.77 -5.13,-1.26 -1.32,-0.38 -2.62,-0.8 -3.91,-1.27 -1.29,-0.47 -2.74,-1 -4.08,-1.62 -1.58,-0.67 -3.14,-1.39 -4.68,-2.14 -1.73,-0.82 -3.44,-1.68 -5.15,-2.55 -6.58,-10.89 -6.72,-18.07 -13.78,-26.49 l -15.16,6.86 c 0,0 11.14,19.76 18.72,28.14 4.37,4.82 11.22,7 17.33,8.58 4.41,1.13 8.88,2 13.35,2.83 1.74,0.32 3.63,0.44 5.13,1.48 a 5.74,5.74 0 0 1 2.14,3.45 q 0.1,0.42 0.18,0.84 c 0.19,0.84 2.24,0.2 2.17,-1.78 z"
       style="opacity:0.8;fill:#ffffff"
       id="path88" />
    <path
       d="m 369.7,162.4 c -0.6,-0.13 -1.2,-0.26 -1.81,-0.41 0.05,3.46 -1.57,9.42 -2.16,11.23 l 1.9,0.36 a 38.11,38.11 0 0 0 2.07,-11.18 z"
       style="opacity:0.3;fill:#472b47"
       id="path90" />
    <path
       d="m 377,166.61 a 3.36,3.36 0 0 0 -2.69,-3.28 l -1,-0.19 a 4.58,4.58 0 0 0 1.63,2.9 5.09,5.09 0 0 0 2,1.14 C 377,167 377,166.8 377,166.61 Z"
       style="opacity:0.3;fill:#472b47"
       id="path92" />
    <path
       d="m 311.05,87.54 c 0.4,1.52 -1.3,3.11 -2.65,1.8 a 30.83,30.83 0 0 0 -4.12,-3.69 c -1.39,-0.87 0.46,-2.39 2.65,-1.8 a 5.94,5.94 0 0 1 4.12,3.69 z"
       style="fill:#ffffff"
       id="path94" />
    <path
       d="m 311.16,135.86 c -0.7,0.26 0.58,1.46 0.58,1.46 0,0 14,-4.79 22.5,-9.72 a 1.88,1.88 0 0 0 -0.68,-1.58 216,216 0 0 1 -22.4,9.84 z"
       style="fill:#472b47"
       id="path96" />
    <path
       d="m 311.16,135.86 c -0.7,0.26 0.58,1.46 0.58,1.46 0,0 14,-4.79 22.5,-9.72 a 1.88,1.88 0 0 0 -0.68,-1.58 216,216 0 0 1 -22.4,9.84 z"
       style="opacity:0.5;fill:#ffffff"
       id="path98" />
    <path
       d="m 321.46,94.56 c 2.76,1.4 5.35,2.87 8,4.5 1.29,0.82 2.57,1.65 3.84,2.55 1.27,0.9 2.53,1.82 3.8,2.86 l 0.47,0.39 0.59,0.54 a 12.74,12.74 0 0 1 1,1 c 0.32,0.35 0.59,0.69 0.85,1 0.26,0.31 0.54,0.68 0.77,1 a 43.8,43.8 0 0 1 2.58,4 59.05,59.05 0 0 1 4,8.35 2.52,2.52 0 0 1 -4.19,2.62 l -0.05,-0.06 c -2,-2.13 -3.93,-4.37 -5.87,-6.46 -1.94,-2.09 -3.91,-4.21 -5.54,-5.14 -2.27,-1.41 -4.8,-2.82 -7.31,-4.2 l -7.56,-4.2 v 0 a 5.0011999,5.0011999 0 0 1 4.68,-8.84 z"
       style="fill:#472b47"
       id="path100" />
    <path
       d="m 321.46,94.56 c 2.76,1.4 5.35,2.87 8,4.5 1.29,0.82 2.57,1.65 3.84,2.55 1.27,0.9 2.53,1.82 3.8,2.86 l 0.47,0.39 0.59,0.54 a 12.74,12.74 0 0 1 1,1 c 0.32,0.35 0.59,0.69 0.85,1 0.26,0.31 0.54,0.68 0.77,1 a 43.8,43.8 0 0 1 2.58,4 59.05,59.05 0 0 1 4,8.35 2.52,2.52 0 0 1 -4.19,2.62 l -0.05,-0.06 c -2,-2.13 -3.93,-4.37 -5.87,-6.46 -1.94,-2.09 -3.91,-4.21 -5.54,-5.14 -2.27,-1.41 -4.8,-2.82 -7.31,-4.2 l -7.56,-4.2 v 0 a 5.0011999,5.0011999 0 0 1 4.68,-8.84 z"
       style="opacity:0.8;fill:#ffffff"
       id="path102" />
    <path
       d="m 349.73,125.74 -0.85,-2.13 c 0,0 -0.47,-2.72 -2.16,-3.48 l -5,0.79 0.17,0.44 v 0 c 0.46,1 0.11,2.83 -0.34,4.29 -0.45,1.46 0.31,1.65 0.95,1.36 0.36,-0.16 0.71,-0.81 1.09,-1.5 a 8.46,8.46 0 0 0 0.63,1 l 1.23,1.69 a 1.72,1.72 0 0 0 2.3,0.44 l 1.36,-0.87 a 1.7,1.7 0 0 0 0.62,-2.03 z"
       style="fill:#472b47"
       id="path104" />
    <path
       d="m 349.73,125.74 -0.85,-2.13 c 0,0 -0.47,-2.72 -2.16,-3.48 l -5,0.79 0.17,0.44 v 0 c 0.46,1 0.11,2.83 -0.34,4.29 -0.45,1.46 0.31,1.65 0.95,1.36 0.36,-0.16 0.71,-0.81 1.09,-1.5 a 8.46,8.46 0 0 0 0.63,1 l 1.23,1.69 a 1.72,1.72 0 0 0 2.3,0.44 l 1.36,-0.87 a 1.7,1.7 0 0 0 0.62,-2.03 z"
       style="opacity:0.8;fill:#ffffff"
       id="path106" />
    <path
       d="m 317.24,106.06 -1.22,0.1 -7.49,18.08 a 4,4 0 0 0 1.22,-0.1 c 0,0 9.76,-3.64 12.71,-5 -1.98,-4.09 -5.22,-13.08 -5.22,-13.08 z"
       style="opacity:0.3;fill:#472b47"
       id="path108" />
    <path
       d="m 303.57,110.8 a 43.41,43.41 0 0 0 5,13.44 c 3.66,-1.26 9.76,-3.64 12.72,-5 A 135.36,135.36 0 0 1 316,106.16 c -3.13,0.21 -10,2.84 -12.43,4.64 z"
       style="fill:#ffffff"
       id="path110" />
    <path
       d="m 311,114.71 a 2.58,2.58 0 1 1 -1.73,-3.21 2.58,2.58 0 0 1 1.73,3.21 z"
       style="opacity:0.3;fill:#472b47"
       id="path112" />
    <path
       d="m 312.91,111.27 a 0.85,0.85 0 1 1 -0.56,-1 0.84,0.84 0 0 1 0.56,1 z"
       style="opacity:0.6;fill:#472b47"
       id="path114" />
    <path
       d="m 315.15,110.4 a 0.85,0.85 0 1 1 -1.62,-0.49 0.84,0.84 0 0 1 1.05,-0.56 0.85,0.85 0 0 1 0.57,1.05 z"
       style="opacity:0.6;fill:#472b47"
       id="path116" />
    <polygon
       points="308.49,120.02 317.73,116.37 318.29,118.19 309.04,121.84 "
       style="opacity:0.5;fill:#472b47"
       id="polygon118" />
  </g>
  <g
     id="freepik--Rocket--inject-14"
     transform="translate(-83.333334,-78.358209)">
    <path
       d="m 267.26,257.17 a 94,94 0 0 1 -1.68,17.35 q -1.77,7.71 -5.5,11.28 a 12.3,12.3 0 0 1 -8.81,3.57 q -7.71,0 -11.77,-8.41 a 23.79,23.79 0 0 1 -1.21,-3.11 144.31,144.31 0 0 0 -15.92,16 l -5.31,6.26 a 38.62,38.62 0 0 0 9.77,7.19 q 9.34,4.83 24.52,4.84 c 1.78,0 3.5,-0.05 5.17,-0.15 a 143.39,143.39 0 0 0 15.1,-29 l 14.85,-38.72 z"
       style="opacity:0.2"
       id="path121" />
    <path
       d="m 133.39,310 17.5,17.5 49,-46.17 C 183,274.88 150.16,293.19 133.39,310 Z"
       style="fill:#263238"
       id="path123" />
    <path
       d="m 194.42,371 c -5.59,-5.6 -17.5,-17.5 -17.5,-17.5 l 46.17,-49 c 6.41,16.85 -11.9,49.72 -28.67,66.5 z"
       style="fill:#263238"
       id="path125" />
    <path
       d="M 261.4,260.7 280.49,223.89 243.68,243 a 144.22,144.22 0 0 0 -32.44,23 l -62.75,59.07 30.83,30.83 59.07,-62.75 A 144.22,144.22 0 0 0 261.4,260.7 Z"
       style="fill:#472b47"
       id="path127" />
    <path
       d="M 261.4,260.7 280.49,223.89 243.68,243 a 144.22,144.22 0 0 0 -32.44,23 l -62.75,59.07 30.83,30.83 59.07,-62.75 A 144.22,144.22 0 0 0 261.4,260.7 Z"
       style="opacity:0.6;fill:#ffffff"
       id="path129" />
    <circle
       cx="222.2"
       cy="282.17999"
       r="12.9"
       style="fill:#ffffff"
       id="circle131" />
    <circle
       cx="222.2"
       cy="282.17999"
       r="8.29"
       style="fill:#472b47"
       id="circle133" />
    <polygon
       points="184.28,291.37 213.01,320.11 189.75,344.82 159.56,314.63 "
       style="opacity:0.3;fill:#472b47"
       id="polygon135" />
    <path
       d="m 140.22,337.62 c -22.6,1.83 -30.09,16.3 -32.65,35.53 -1.3,9.81 -1.88,19.74 -10.11,25.48 a 2.77,2.77 0 0 0 1.63,5.06 c 30.34,-0.95 44.49,-15.8 46.27,-22 a 43.06,43.06 0 0 1 -2.49,9.47 2.76,2.76 0 0 0 4,3.39 c 8.51,-5.33 19.19,-15.15 19.9,-31.08 -6.26,-8.87 -26.55,-25.85 -26.55,-25.85 z"
       style="fill:#472b47"
       id="path137" />
    <path
       d="m 140.22,337.62 c -22.6,1.83 -30.09,16.3 -32.65,35.53 -1.3,9.81 -1.88,19.74 -10.11,25.48 a 2.77,2.77 0 0 0 1.63,5.06 c 30.34,-0.95 44.49,-15.8 46.27,-22 a 43.06,43.06 0 0 1 -2.49,9.47 2.76,2.76 0 0 0 4,3.39 c 8.51,-5.33 19.19,-15.15 19.9,-31.08 -6.26,-8.87 -26.55,-25.85 -26.55,-25.85 z"
       style="opacity:0.2;fill:#ffffff"
       id="path139" />
    <polygon
       points="153.36,329.93 174.45,351.02 170.28,370.3 134.08,334.1 "
       style="fill:#472b47"
       id="polygon141" />
  </g>
</svg>
