<svg width="456" height="260" viewBox="0 0 456 260" fill="none" xmlns="http://www.w3.org/2000/svg">
<g opacity="0.3" clip-path="url(#clip0_5045_1126)">
<g opacity="0.1">
<path d="M4.09576 0H0V4.09576H4.09576V0Z" fill="white"/>
<path d="M240.626 0C240.626 1.35783 241.165 2.66004 242.125 3.62017C243.086 4.58031 244.388 5.1197 245.746 5.1197C247.103 5.1197 248.406 4.58031 249.366 3.62017C250.326 2.66004 250.865 1.35783 250.865 0H240.626ZM122.873 0.286703C113.25 0.309131 103.733 2.28788 94.8988 6.10268C94.2613 6.34298 93.6781 6.70809 93.1835 7.17663C92.6889 7.64517 92.2928 8.20771 92.0184 8.83129C91.744 9.45487 91.5969 10.1269 91.5855 10.8081C91.5742 11.4893 91.6989 12.1659 91.9524 12.7983C92.2059 13.4307 92.5831 14.0061 93.0618 14.4908C93.5405 14.9756 94.1111 15.3599 94.7403 15.6213C95.3694 15.8827 96.0444 16.0158 96.7257 16.013C97.407 16.0102 98.0808 15.8714 98.7078 15.6048C106.333 12.2882 114.558 10.5734 122.873 10.5671C131.187 10.5671 139.42 12.2873 147.038 15.6048C148.03 16.0418 149.135 16.1527 150.194 15.9215C151.253 15.6903 152.211 15.129 152.931 14.3183C153.65 13.5077 154.094 12.4895 154.198 11.4106C154.302 10.3316 154.061 9.24751 153.509 8.31439C152.908 7.28819 151.966 6.50547 150.847 6.10268C142.013 2.28788 132.495 0.309131 122.873 0.286703ZM230.427 1.6383C229.591 1.69929 228.782 1.96497 228.072 2.41196C227.362 2.85895 226.773 3.47356 226.356 4.20172C225.939 4.92988 225.708 5.74927 225.682 6.58783C225.657 7.42638 225.837 8.25839 226.209 9.01067C226.769 10.2305 227.441 11.3959 228.216 12.4921C228.594 13.0585 229.081 13.5438 229.649 13.9196C230.218 14.2953 230.855 14.5539 231.524 14.6802C232.194 14.8065 232.881 14.7979 233.547 14.6551C234.213 14.5122 234.844 14.238 235.403 13.8483C235.961 13.4586 236.437 12.9614 236.801 12.3857C237.165 11.81 237.41 11.1675 237.523 10.4958C237.635 9.82404 237.613 9.13658 237.457 8.47366C237.3 7.81075 237.013 7.1857 236.612 6.63513C236.173 6.0143 235.79 5.3565 235.465 4.66917C235.041 3.71452 234.335 2.91248 233.442 2.37071C232.549 1.82894 231.511 1.57337 230.468 1.6383H230.427ZM180.254 2.25267C179.546 2.30572 178.856 2.50571 178.229 2.8399C177.602 3.17409 177.051 3.63517 176.612 4.19379C176.173 4.75242 175.855 5.39635 175.678 6.08461C175.501 6.77288 175.47 7.4904 175.585 8.19152C176.719 17.7599 179.784 26.9984 184.596 35.3464C189.405 43.683 195.856 50.9565 203.559 56.7263C204.309 57.3512 205.223 57.7485 206.191 57.8715C207.16 57.9945 208.143 57.8379 209.026 57.4203C209.908 57.0028 210.653 56.3415 211.172 55.5147C211.691 54.6878 211.963 53.7297 211.956 52.7534C211.956 51.0741 211.136 49.5587 209.867 48.6576C203.189 43.7022 197.599 37.4292 193.443 30.2267C189.284 23.016 186.649 15.0282 185.702 6.758C185.547 5.45073 184.895 4.25326 183.88 3.41428C182.866 2.57531 181.567 2.1593 180.254 2.25267ZM214.331 5.28353C213.532 5.3342 212.755 5.57183 212.064 5.97729C211.373 6.38275 210.787 6.94474 210.352 7.61803C209.918 8.29133 209.648 9.05715 209.564 9.85389C209.479 10.6506 209.583 11.4561 209.867 12.2054C211.467 16.9051 213.971 21.2463 217.239 24.9841C217.909 25.808 218.818 26.4033 219.84 26.6878C220.863 26.9722 221.949 26.9317 222.948 26.5718C223.947 26.2119 224.809 25.5504 225.415 24.6789C226.021 23.8075 226.342 22.7691 226.332 21.7075C226.332 20.4378 225.84 19.2501 225.062 18.349C222.581 15.5605 220.687 12.3011 219.492 8.76493C219.134 7.69816 218.434 6.77907 217.501 6.14978C216.569 5.52048 215.454 5.21604 214.331 5.28353ZM197.416 5.57023C196.658 5.62178 195.921 5.84118 195.259 6.21255C194.597 6.58391 194.026 7.09793 193.586 7.71738C193.147 8.33683 192.852 9.04619 192.72 9.79408C192.589 10.542 192.626 11.3097 192.828 12.0415C194.044 17.3472 196.045 22.4413 198.767 27.1549C201.487 31.868 204.897 36.1477 208.884 39.8517C209.6 40.5614 210.509 41.0439 211.498 41.2389C212.487 41.4338 213.511 41.3325 214.443 40.9476C215.375 40.5627 216.172 39.9114 216.735 39.0753C217.298 38.2391 217.602 37.2554 217.608 36.2475C217.608 34.732 216.993 33.3804 215.969 32.4384C212.674 29.4131 209.857 25.9055 207.614 22.0352C205.382 18.1534 203.753 13.9551 202.781 9.58408C202.519 8.38933 201.839 7.32776 200.862 6.59151C199.885 5.85526 198.677 5.49298 197.457 5.57023H197.416ZM329.709 13.1064C328.48 13.1064 327.292 13.557 326.432 14.2942C318.714 20.059 312.248 27.3329 307.428 35.6741C302.616 44.0221 299.551 53.2605 298.417 62.829C298.232 64.1759 298.59 65.5411 299.412 66.6241C300.234 67.7071 301.453 68.4193 302.8 68.604C304.146 68.7887 305.512 68.4307 306.595 67.6088C307.678 66.7869 308.39 65.5685 308.575 64.2215C309.515 55.9684 312.135 47.9953 316.275 40.7938C320.442 33.5867 326.046 27.3132 332.74 22.3629C333.616 21.7235 334.268 20.8221 334.599 19.7887C334.93 18.7553 334.924 17.6433 334.583 16.6133C334.241 15.5833 333.581 14.6886 332.697 14.0582C331.814 13.4279 330.753 13.0946 329.668 13.1064H329.709ZM122.873 16.6697C117.425 16.6697 112.019 17.5299 106.817 19.1272C106.172 19.3155 105.57 19.629 105.046 20.0499C104.521 20.4708 104.085 20.9909 103.762 21.5804C103.439 22.1699 103.235 22.8173 103.162 23.4857C103.088 24.154 103.148 24.8302 103.336 25.4756C103.524 26.1211 103.838 26.7231 104.259 27.2474C104.68 27.7716 105.2 28.2079 105.789 28.5311C106.379 28.8544 107.026 29.0584 107.694 29.1315C108.363 29.2046 109.039 29.1453 109.684 28.957C113.952 27.6107 118.398 26.9202 122.873 26.9091C127.378 26.9091 131.802 27.6464 136.061 28.957C137.365 29.3372 138.766 29.184 139.956 28.5311C141.147 27.8782 142.029 26.7791 142.41 25.4756C142.79 24.1721 142.637 22.771 141.984 21.5804C141.331 20.3898 140.232 19.5074 138.928 19.1272C133.729 17.5103 128.317 16.6819 122.873 16.6697ZM335.361 29.6123C333.927 29.6123 332.658 30.1858 331.757 31.1278C327.756 34.8298 324.333 39.1094 321.599 43.8246C318.891 48.5406 316.904 53.6346 315.701 58.938C315.482 59.607 315.403 60.314 315.47 61.0148C315.536 61.7156 315.747 62.3952 316.088 63.011C316.429 63.6269 316.893 64.1658 317.452 64.5941C318.01 65.0224 318.651 65.3309 319.335 65.5003C320.018 65.6697 320.729 65.6964 321.423 65.5787C322.117 65.461 322.779 65.2014 323.368 64.8161C323.958 64.4309 324.461 63.9283 324.847 63.3398C325.233 62.7512 325.494 62.0893 325.613 61.3954C326.598 57.0225 328.242 52.8243 330.487 48.9443C332.727 45.0596 335.544 41.5379 338.842 38.5001C339.602 37.8014 340.133 36.8894 340.365 35.8838C340.597 34.8781 340.52 33.8258 340.143 32.8648C339.767 31.9037 339.109 31.0789 338.255 30.4985C337.402 29.9181 336.393 29.6092 335.361 29.6123ZM122.873 33.0937C120.415 33.0937 117.917 33.3395 115.5 33.831C114.452 33.9933 113.479 34.4776 112.718 35.2169C111.956 35.9562 111.443 36.9138 111.25 37.9574C111.056 39.001 111.192 40.0789 111.638 41.042C112.084 42.005 112.818 42.8057 113.739 43.3331C114.886 43.9885 116.156 44.1523 117.344 43.9066C120.992 43.1629 124.753 43.1629 128.402 43.9066C129.064 44.0276 129.743 44.0171 130.4 43.8757C131.058 43.7344 131.681 43.4649 132.234 43.0826C132.788 42.7004 133.26 42.2129 133.625 41.648C133.99 41.0831 134.24 40.4519 134.361 39.7903C134.482 39.1287 134.472 38.4498 134.331 37.7923C134.189 37.1348 133.92 36.5115 133.538 35.9581C133.155 35.4048 132.668 34.9321 132.103 34.5671C131.538 34.2021 130.907 33.952 130.245 33.831C127.818 33.3457 125.348 33.0988 122.873 33.0937ZM344.085 44.1113C342.447 44.1113 341.054 44.8076 340.112 45.9954C336.845 49.7338 334.341 54.0748 332.74 58.7742C332.466 59.4162 332.327 60.1074 332.33 60.8053C332.334 61.5031 332.48 62.1929 332.76 62.8322C333.039 63.4715 333.447 64.0469 333.957 64.523C334.467 64.9991 335.07 65.3658 335.727 65.6007C336.384 65.8356 337.082 65.9337 337.779 65.8889C338.475 65.8441 339.155 65.6574 339.777 65.3403C340.398 65.0232 340.948 64.5824 341.393 64.0448C341.839 63.5073 342.169 62.8845 342.365 62.2146C343.544 58.6804 345.425 55.4206 347.894 52.6305C348.548 51.8939 348.976 50.9842 349.126 50.0105C349.276 49.0369 349.142 48.0406 348.74 47.1413C348.337 46.2419 347.684 45.4777 346.859 44.9403C346.033 44.4028 345.07 44.115 344.085 44.1113ZM122.873 49.4768C122.217 49.4768 121.521 49.5177 120.866 49.5997C120.189 49.6489 119.528 49.8324 118.922 50.1395C118.317 50.4465 117.778 50.8709 117.338 51.388C116.898 51.9052 116.565 52.5047 116.359 53.1516C116.153 53.7986 116.078 54.4801 116.138 55.1564C116.197 55.8328 116.391 56.4905 116.707 57.0913C117.024 57.6921 117.457 58.224 117.98 58.6559C118.504 59.0879 119.109 59.4114 119.759 59.6074C120.409 59.8035 121.092 59.8683 121.767 59.7981C122.516 59.7267 123.27 59.7267 124.02 59.7981C124.692 59.8546 125.369 59.7781 126.012 59.573C126.654 59.3679 127.25 59.0381 127.766 58.6027C128.281 58.1672 128.706 57.6345 129.015 57.0349C129.325 56.4354 129.513 55.7808 129.569 55.1085C129.626 54.4361 129.549 53.7593 129.344 53.1165C129.139 52.4737 128.809 51.8777 128.374 51.3623C127.938 50.847 127.406 50.4225 126.806 50.113C126.207 49.8035 125.552 49.6152 124.88 49.5587C124.212 49.504 123.543 49.4767 122.873 49.4768ZM355.307 56.2757C353.546 56.2757 351.99 57.1359 351.048 58.5284C350.285 59.6248 349.627 60.7904 349.082 62.0098C348.752 62.6228 348.551 63.2965 348.49 63.9898C348.43 64.6832 348.511 65.3816 348.73 66.0423C348.948 66.7031 349.299 67.3124 349.761 67.833C350.223 68.3535 350.786 68.7744 351.417 69.07C352.047 69.3655 352.73 69.5295 353.426 69.5518C354.122 69.5742 354.815 69.4545 355.462 69.2001C356.11 68.9456 356.699 68.5618 357.194 68.072C357.688 67.5822 358.077 66.9967 358.338 66.3513C358.651 65.6582 359.036 64.9993 359.485 64.3854C360.036 63.6191 360.365 62.7152 360.435 61.7738C360.504 60.8324 360.313 59.89 359.88 59.0508C359.448 58.2116 358.792 57.5083 357.985 57.0185C357.178 56.5288 356.251 56.2717 355.307 56.2757ZM368.618 65.8598C367.261 65.8598 365.958 66.3992 364.998 67.3594C364.038 68.3195 363.499 69.6217 363.499 70.9795C363.499 72.3374 364.038 73.6396 364.998 74.5997C365.958 75.5598 367.261 76.0992 368.618 76.0992C369.976 76.0992 371.278 75.5598 372.239 74.5997C373.199 73.6396 373.738 72.3374 373.738 70.9795C373.738 69.6217 373.199 68.3195 372.239 67.3594C371.278 66.3992 369.976 65.8598 368.618 65.8598ZM123.241 65.8598C122.569 65.8141 121.894 65.9013 121.256 66.1163C120.617 66.3314 120.027 66.6701 119.519 67.1132C119.012 67.5563 118.596 68.095 118.297 68.6987C117.997 69.3023 117.819 69.9591 117.774 70.6314C117.728 71.3037 117.815 71.9785 118.03 72.6171C118.245 73.2558 118.584 73.8458 119.027 74.3535C119.47 74.8613 120.009 75.2768 120.612 75.5763C121.216 75.8758 121.873 76.0535 122.545 76.0992C123.903 76.1916 125.242 75.7407 126.267 74.8459C127.293 73.951 127.921 72.6855 128.013 71.3277C128.105 69.9698 127.654 68.6309 126.76 67.6055C125.865 66.5801 124.599 65.9522 123.241 65.8598ZM383.896 72.5769C382.845 72.4973 381.796 72.7462 380.894 73.2892C379.991 73.8323 379.28 74.6425 378.858 75.6077C378.555 76.298 378.185 76.9566 377.752 77.5737C377.351 78.1243 377.064 78.7493 376.907 79.4122C376.751 80.0752 376.729 80.7626 376.841 81.4343C376.954 82.1061 377.199 82.7486 377.563 83.3243C377.927 83.8999 378.403 84.3972 378.961 84.7868C379.52 85.1765 380.151 85.4508 380.817 85.5937C381.483 85.7365 382.17 85.745 382.84 85.6187C383.509 85.4924 384.146 85.2338 384.714 84.8581C385.283 84.4824 385.77 83.9971 386.148 83.4306C386.924 82.3351 387.596 81.1696 388.155 79.9492C388.527 79.194 388.708 78.3585 388.68 77.5169C388.652 76.6753 388.417 75.8536 387.996 75.1245C387.575 74.3954 386.98 73.7815 386.265 73.3371C385.55 72.8927 384.736 72.6316 383.896 72.5769ZM434.069 73.2322C432.753 73.1284 431.449 73.5407 430.432 74.3816C429.416 75.2225 428.766 76.4261 428.621 77.7375C427.687 86.0047 425.066 93.9923 420.921 101.206C416.753 108.413 411.149 114.686 404.456 119.637C403.926 120.051 403.483 120.566 403.152 121.151C402.822 121.737 402.609 122.381 402.527 123.049C402.446 123.716 402.496 124.393 402.676 125.041C402.856 125.689 403.162 126.295 403.576 126.825C403.99 127.355 404.504 127.798 405.09 128.129C405.675 128.46 406.32 128.672 406.987 128.754C407.655 128.836 408.332 128.785 408.98 128.606C409.628 128.426 410.234 128.12 410.764 127.706C418.482 121.941 424.948 114.667 429.768 106.326C434.581 97.9783 437.646 88.7397 438.779 79.171C438.895 78.4667 438.862 77.746 438.683 77.0551C438.503 76.3642 438.182 75.7184 437.738 75.1591C437.295 74.5999 436.739 74.1396 436.107 73.8077C435.475 73.4759 434.781 73.2798 434.069 73.2322ZM400.074 76.2631C398.936 76.1695 397.8 76.4622 396.848 77.0939C395.897 77.7255 395.187 78.6593 394.831 79.7445C393.649 83.2772 391.768 86.5364 389.302 89.3285C388.648 90.0651 388.22 90.9749 388.07 91.9485C387.92 92.9222 388.054 93.9184 388.456 94.8178C388.858 95.7171 389.511 96.4813 390.337 97.0188C391.163 97.5562 392.126 97.844 393.111 97.8477C394.749 97.8477 396.142 97.1105 397.084 95.9637C400.351 92.2252 402.855 87.8842 404.456 83.1849C404.747 82.4365 404.858 81.6301 404.78 80.831C404.702 80.0319 404.436 79.2623 404.006 78.5846C403.575 77.9068 402.991 77.3399 402.301 76.9295C401.611 76.5191 400.834 76.2767 400.033 76.2221L400.074 76.2631ZM416.907 76.5498C415.685 76.4639 414.473 76.8229 413.494 77.5605C412.516 78.2982 411.837 79.3648 411.583 80.5636C410.611 84.9347 408.982 89.1329 406.75 93.0147C404.507 96.885 401.69 100.393 398.395 103.418C397.869 103.873 397.442 104.429 397.138 105.055C396.835 105.68 396.662 106.36 396.63 107.054C396.598 107.748 396.708 108.442 396.952 109.092C397.197 109.743 397.572 110.336 398.053 110.837C398.535 111.338 399.113 111.736 399.753 112.006C400.393 112.277 401.082 112.414 401.777 112.409C402.472 112.405 403.158 112.259 403.795 111.981C404.432 111.702 405.005 111.297 405.48 110.79C409.464 107.099 412.874 102.833 415.597 98.1344C418.308 93.4057 420.296 88.2976 421.495 82.9801C421.69 82.2509 421.721 81.4876 421.587 80.7448C421.452 80.002 421.155 79.2982 420.717 78.6836C420.278 78.0691 419.71 77.5592 419.051 77.1902C418.392 76.8213 417.66 76.6026 416.907 76.5498ZM120.948 82.2019C119.59 82.191 118.283 82.72 117.316 83.6725C116.348 84.6249 115.798 85.9228 115.787 87.2806C115.776 88.6385 116.305 89.945 117.258 90.9128C118.21 91.8806 119.508 92.4305 120.866 92.4413C122.201 92.5686 123.545 92.5686 124.88 92.4413C125.552 92.3821 126.206 92.1911 126.805 91.8792C127.403 91.5672 127.934 91.1405 128.368 90.6232C128.802 90.106 129.129 89.5084 129.332 88.8646C129.534 88.2208 129.608 87.5434 129.549 86.8711C129.49 86.1987 129.299 85.5447 128.987 84.9461C128.675 84.3476 128.248 83.8164 127.731 83.3829C127.214 82.9493 126.616 82.6218 125.972 82.4192C125.328 82.2166 124.651 82.1427 123.979 82.2019C123.23 82.2786 122.475 82.2786 121.726 82.2019C121.453 82.18 121.179 82.18 120.907 82.2019H120.948ZM38.9507 84.1269C37.8796 84.1354 36.8382 84.4797 35.9731 85.1111C35.1079 85.7426 34.4626 86.6295 34.128 87.6469C33.7934 88.6644 33.7863 89.7612 34.1077 90.7829C34.4291 91.8046 35.0629 92.6998 35.9198 93.3424C42.5976 98.2978 48.1876 104.571 52.3438 111.773C56.4918 118.986 59.1128 126.974 60.0438 135.242C60.2339 136.589 60.9513 137.805 62.0382 138.623C63.1251 139.441 64.4924 139.794 65.8393 139.604C67.1863 139.414 68.4026 138.697 69.2206 137.61C70.0387 136.523 70.3914 135.155 70.2013 133.808C69.0687 124.24 66.0031 115.001 61.1907 106.654C56.3706 98.3125 49.9048 91.0385 42.1863 85.2737C41.2627 84.5185 40.1027 84.1125 38.9097 84.1269H38.9507ZM116.401 98.0525C115.12 98.0449 113.883 98.518 112.933 99.3783C111.984 100.239 111.392 101.424 111.273 102.699C111.155 103.975 111.519 105.249 112.294 106.269C113.069 107.289 114.199 107.982 115.459 108.21C120.327 109.172 125.336 109.172 130.204 108.21C130.868 108.092 131.503 107.844 132.071 107.48C132.64 107.117 133.131 106.645 133.517 106.091C133.903 105.538 134.176 104.914 134.321 104.255C134.466 103.596 134.48 102.915 134.361 102.251C134.243 101.586 133.995 100.952 133.632 100.384C133.268 99.8151 132.796 99.3239 132.243 98.9378C131.689 98.5518 131.065 98.2785 130.406 98.1337C129.747 97.9888 129.066 97.9751 128.402 98.0935C124.753 98.8371 120.992 98.8371 117.344 98.0935C117.033 98.0374 116.717 98.01 116.401 98.0115V98.0525ZM33.2576 100.674C32.229 100.679 31.2257 100.994 30.3786 101.577C29.5315 102.161 28.8799 102.986 28.5085 103.945C28.1372 104.905 28.0634 105.953 28.2969 106.955C28.5303 107.957 29.06 108.865 29.8171 109.562C33.0937 112.592 35.9198 116.115 38.1725 119.965C40.4038 123.847 42.0334 128.045 43.0055 132.416C43.228 133.421 43.7485 134.336 44.499 135.041C45.2495 135.746 46.1952 136.208 47.2125 136.368C48.2298 136.527 49.2714 136.376 50.2015 135.934C51.1315 135.492 51.9066 134.78 52.4257 133.89C53.122 132.662 53.2449 131.269 52.9582 129.958C51.743 124.653 49.7412 119.559 47.0193 114.845C44.2993 110.132 40.8893 105.852 36.9028 102.148C36.4224 101.674 35.853 101.3 35.2274 101.047C34.6018 100.794 33.9324 100.667 33.2576 100.674ZM107.596 112.838C106.406 112.96 105.296 113.494 104.459 114.348C103.622 115.202 103.11 116.323 103.013 117.515C102.916 118.707 103.239 119.895 103.926 120.874C104.614 121.853 105.622 122.56 106.776 122.873C111.989 124.493 117.415 125.322 122.873 125.33C128.32 125.33 133.727 124.511 138.928 122.873C139.574 122.685 140.176 122.371 140.7 121.95C141.224 121.529 141.66 121.009 141.984 120.42C142.307 119.83 142.511 119.183 142.584 118.514C142.657 117.846 142.598 117.17 142.41 116.524C142.221 115.879 141.908 115.277 141.487 114.753C141.066 114.228 140.546 113.792 139.956 113.469C139.367 113.146 138.719 112.942 138.051 112.869C137.383 112.795 136.707 112.855 136.061 113.043C131.794 114.389 127.347 115.079 122.873 115.091C118.385 115.083 113.924 114.393 109.643 113.043C108.982 112.837 108.285 112.767 107.596 112.838ZM24.5746 115.091C23.5894 115.095 22.6263 115.382 21.8006 115.92C20.975 116.457 20.322 117.221 19.9198 118.121C19.5177 119.02 19.3836 120.016 19.5336 120.99C19.6836 121.964 20.1114 122.873 20.7655 123.61C23.2347 126.4 25.1153 129.66 26.2948 133.194C26.6115 134.121 27.1874 134.937 27.9543 135.547C28.7211 136.156 29.6466 136.533 30.6211 136.632C31.5955 136.731 32.5779 136.549 33.4518 136.106C34.3256 135.664 35.0542 134.98 35.5512 134.136C36.3703 132.744 36.4523 131.146 35.9608 129.754C34.3473 125.051 31.8288 120.71 28.5474 116.975C28.0668 116.385 27.4608 115.911 26.7736 115.585C26.0863 115.259 25.3351 115.09 24.5746 115.091ZM96.4551 125.986C95.276 126.039 94.1515 126.498 93.2721 127.286C92.3926 128.073 91.8123 129.14 91.6292 130.306C91.4461 131.472 91.6715 132.665 92.2673 133.684C92.8631 134.703 93.7927 135.485 94.8988 135.897C103.733 139.712 113.25 141.691 122.873 141.713C132.506 141.708 142.038 139.743 150.888 135.938C151.512 135.685 152.08 135.312 152.559 134.84C153.039 134.368 153.421 133.805 153.683 133.186C153.946 132.566 154.084 131.9 154.089 131.227C154.094 130.554 153.967 129.886 153.714 129.262C153.461 128.638 153.088 128.07 152.616 127.591C152.143 127.111 151.581 126.729 150.961 126.466C150.341 126.204 149.676 126.066 149.002 126.061C148.329 126.056 147.662 126.183 147.038 126.436C139.413 129.752 131.188 131.466 122.873 131.474C114.558 131.466 106.333 129.752 98.7078 126.436C97.9971 126.133 97.2272 125.993 96.4551 126.027V125.986ZM13.3522 127.214C12.3979 127.207 11.4605 127.466 10.6457 127.963C9.83095 128.46 9.17125 129.174 8.74107 130.026C8.31089 130.878 8.12736 131.833 8.21118 132.784C8.29501 133.734 8.64285 134.642 9.21546 135.406C9.64546 136.01 10.0158 136.655 10.3213 137.331C10.6064 137.941 11.0089 138.49 11.5059 138.945C12.0029 139.4 12.5846 139.752 13.2178 139.982C13.8511 140.212 14.5234 140.315 15.1965 140.286C15.8696 140.256 16.5303 140.094 17.1408 139.809C17.7512 139.524 18.2996 139.121 18.7545 138.624C19.2094 138.127 19.562 137.546 19.7921 136.912C20.0222 136.279 20.1253 135.607 20.0955 134.934C20.0658 134.26 19.9038 133.6 19.6187 132.989C19.0464 131.767 18.3608 130.602 17.5708 129.508C17.1041 128.817 16.4759 128.251 15.7407 127.859C15.0055 127.466 14.1856 127.259 13.3522 127.255V127.214ZM491.491 136.88C490.133 136.88 488.831 137.42 487.871 138.38C486.911 139.34 486.371 140.642 486.371 142C486.371 143.358 486.911 144.66 487.871 145.62C488.831 146.58 490.133 147.12 491.491 147.12V136.88ZM0 136.88V147.12C1.35783 147.12 2.66004 146.58 3.62017 145.62C4.5803 144.66 5.1197 143.358 5.1197 142C5.1197 140.642 4.5803 139.34 3.62017 138.38C2.66004 137.42 1.35783 136.88 0 136.88H0ZM368.618 142.287C358.999 142.296 349.481 144.261 340.644 148.062C340.007 148.302 339.424 148.667 338.929 149.136C338.435 149.604 338.038 150.167 337.764 150.79C337.49 151.414 337.342 152.086 337.331 152.767C337.32 153.448 337.444 154.125 337.698 154.757C337.951 155.39 338.329 155.965 338.807 156.45C339.286 156.935 339.857 157.319 340.486 157.58C341.115 157.842 341.79 157.975 342.471 157.972C343.153 157.969 343.826 157.83 344.453 157.564C352.078 154.247 360.303 152.533 368.618 152.526C376.933 152.526 385.165 154.287 392.783 157.605C393.41 157.855 394.08 157.979 394.754 157.97C395.429 157.962 396.095 157.82 396.715 157.554C397.335 157.288 397.897 156.902 398.367 156.419C398.838 155.936 399.209 155.364 399.459 154.738C399.71 154.111 399.834 153.441 399.825 152.767C399.816 152.092 399.675 151.426 399.409 150.806C399.142 150.186 398.757 149.625 398.273 149.154C397.79 148.683 397.219 148.312 396.592 148.062C387.752 144.275 378.235 142.324 368.618 142.328V142.287ZM476.173 143.597C475.336 143.658 474.527 143.924 473.817 144.371C473.107 144.818 472.518 145.433 472.102 146.161C471.685 146.889 471.454 147.708 471.428 148.547C471.402 149.385 471.583 150.217 471.954 150.97C472.512 152.191 473.184 153.356 473.961 154.451C474.34 155.018 474.827 155.503 475.395 155.879C475.963 156.254 476.601 156.513 477.27 156.639C477.939 156.766 478.627 156.757 479.293 156.614C479.959 156.471 480.59 156.197 481.148 155.807C481.707 155.418 482.182 154.92 482.546 154.345C482.91 153.769 483.156 153.127 483.268 152.455C483.381 151.783 483.359 151.096 483.202 150.433C483.046 149.77 482.759 149.145 482.358 148.594C481.91 147.979 481.526 147.32 481.211 146.628C480.784 145.667 480.072 144.86 479.17 144.318C478.269 143.775 477.222 143.524 476.173 143.597ZM426 144.253C425.291 144.306 424.602 144.506 423.974 144.84C423.347 145.174 422.797 145.635 422.357 146.194C421.918 146.752 421.6 147.396 421.423 148.085C421.247 148.773 421.215 149.49 421.331 150.192C422.452 159.757 425.503 168.995 430.301 177.346C435.126 185.672 441.591 192.932 449.305 198.685C450.375 199.522 451.733 199.899 453.081 199.734C454.429 199.569 455.656 198.875 456.493 197.805C457.329 196.735 457.706 195.376 457.541 194.028C457.376 192.68 456.682 191.453 455.612 190.617C448.92 185.665 443.316 179.392 439.147 172.186C435.008 164.984 432.387 157.011 431.447 148.758C431.293 147.451 430.64 146.253 429.626 145.414C428.612 144.575 427.313 144.159 426 144.253ZM460.036 147.243C459.235 147.297 458.458 147.54 457.767 147.95C457.077 148.36 456.493 148.927 456.063 149.605C455.632 150.283 455.367 151.052 455.289 151.851C455.211 152.651 455.321 153.457 455.612 154.205C457.214 158.905 459.718 163.246 462.985 166.984C463.408 167.534 463.939 167.992 464.544 168.33C465.15 168.669 465.818 168.881 466.508 168.953C467.198 169.025 467.896 168.957 468.559 168.751C469.221 168.545 469.835 168.207 470.363 167.757C470.891 167.307 471.322 166.754 471.63 166.132C471.938 165.51 472.116 164.832 472.154 164.14C472.191 163.447 472.088 162.753 471.85 162.102C471.611 161.45 471.243 160.854 470.767 160.349C468.3 157.557 466.42 154.298 465.237 150.765C464.885 149.683 464.182 148.75 463.24 148.112C462.298 147.474 461.171 147.168 460.036 147.243ZM443.161 147.57C442.408 147.623 441.676 147.842 441.018 148.211C440.359 148.58 439.79 149.09 439.352 149.704C438.913 150.319 438.616 151.022 438.482 151.765C438.347 152.508 438.379 153.271 438.574 154.001C439.772 159.318 441.76 164.426 444.472 169.155C447.205 173.87 450.629 178.15 454.629 181.852C455.348 182.564 456.261 183.047 457.254 183.241C458.246 183.434 459.274 183.33 460.207 182.94C461.141 182.55 461.938 181.892 462.497 181.05C463.057 180.207 463.355 179.218 463.353 178.207C463.353 176.732 462.739 175.34 461.715 174.438C455.076 168.332 450.46 160.344 448.486 151.543C448.223 150.341 447.536 149.274 446.551 148.537C445.565 147.799 444.348 147.442 443.12 147.529L443.161 147.57ZM83.9631 155.106C82.7344 155.106 81.5875 155.516 80.6865 156.253C72.968 162.018 66.5022 169.292 61.6821 177.633C56.8707 185.981 53.8052 195.22 52.6715 204.788C52.5773 205.455 52.6155 206.134 52.7838 206.786C52.952 207.438 53.2471 208.051 53.6522 208.589C54.0572 209.127 54.5643 209.58 55.1445 209.923C55.7246 210.265 56.3665 210.489 57.0335 210.584C57.7004 210.678 58.3794 210.639 59.0316 210.471C59.6838 210.303 60.2964 210.008 60.8346 209.603C61.3728 209.198 61.8259 208.691 62.1681 208.111C62.5103 207.53 62.7348 206.888 62.829 206.222C63.7623 197.954 66.3831 189.966 70.529 182.753C74.6962 175.546 80.3005 169.272 86.9939 164.322C87.8508 163.679 88.4846 162.784 88.8061 161.762C89.1275 160.741 89.1204 159.644 88.7858 158.626C88.4511 157.609 87.8058 156.722 86.9407 156.091C86.0755 155.459 85.0341 155.115 83.9631 155.106ZM368.618 158.67C363.171 158.67 357.765 159.489 352.563 161.127C351.918 161.315 351.316 161.629 350.791 162.05C350.267 162.471 349.831 162.991 349.508 163.58C349.184 164.17 348.98 164.817 348.907 165.486C348.834 166.154 348.893 166.83 349.082 167.476C349.27 168.121 349.583 168.723 350.004 169.247C350.425 169.772 350.945 170.208 351.535 170.531C352.124 170.854 352.772 171.058 353.44 171.131C354.108 171.205 354.785 171.145 355.43 170.957C359.697 169.611 364.144 168.92 368.618 168.909C373.124 168.909 377.547 169.646 381.807 170.957C382.793 171.271 383.85 171.28 384.841 170.981C385.832 170.682 386.709 170.09 387.356 169.283C388.004 168.476 388.391 167.492 388.468 166.46C388.545 165.428 388.307 164.397 387.787 163.503C387.105 162.33 385.985 161.475 384.674 161.127C379.475 159.511 374.063 158.683 368.618 158.67ZM89.6152 171.612C88.2227 171.612 86.912 172.186 86.011 173.128C82.0099 176.829 78.5861 181.109 75.8535 185.825C73.1447 190.54 71.1567 195.634 69.9556 200.938C69.7942 201.592 69.7632 202.27 69.8642 202.936C69.9652 203.601 70.1963 204.241 70.5443 204.817C70.8923 205.393 71.3504 205.895 71.8924 206.294C72.4344 206.693 73.0497 206.982 73.7032 207.143C74.3567 207.304 75.0356 207.336 75.7011 207.234C76.3666 207.133 77.0057 206.902 77.5819 206.554C78.1581 206.206 78.6601 205.748 79.0593 205.206C79.4584 204.664 79.7469 204.049 79.9083 203.395C80.8798 199.024 82.5094 194.826 84.7413 190.944C86.9814 187.06 89.7987 183.538 93.0966 180.5C93.8563 179.801 94.387 178.889 94.6192 177.884C94.8514 176.878 94.7742 175.826 94.3977 174.865C94.0213 173.904 93.3632 173.079 92.5097 172.499C91.6563 171.918 90.6473 171.609 89.6152 171.612ZM368.618 175.053C366.161 175.053 363.663 175.299 361.246 175.79C360.197 175.952 359.225 176.437 358.463 177.176C357.702 177.915 357.189 178.873 356.995 179.916C356.802 180.96 356.937 182.038 357.383 183.001C357.829 183.964 358.564 184.765 359.485 185.292C360.632 185.948 361.901 186.111 363.089 185.866C366.738 185.122 370.499 185.122 374.148 185.866C374.809 185.989 375.489 185.982 376.147 185.843C376.806 185.704 377.431 185.437 377.986 185.056C378.541 184.676 379.016 184.19 379.384 183.626C379.751 183.062 380.004 182.431 380.127 181.77C380.251 181.108 380.243 180.429 380.104 179.77C379.966 179.112 379.698 178.487 379.318 177.932C378.938 177.376 378.452 176.901 377.888 176.534C377.324 176.167 376.693 175.914 376.032 175.79C373.591 175.302 371.108 175.055 368.618 175.053ZM98.3392 186.111C96.7419 186.111 95.3083 186.808 94.4073 187.954C91.1359 191.705 88.6313 196.06 87.0349 200.774C86.7615 201.416 86.6223 202.107 86.6258 202.805C86.6292 203.503 86.7754 204.193 87.0551 204.832C87.3349 205.472 87.7424 206.047 88.2526 206.523C88.7629 206.999 89.365 207.366 90.0222 207.601C90.6793 207.836 91.3775 207.934 92.0739 207.889C92.7703 207.844 93.4502 207.657 94.0719 207.34C94.6935 207.023 95.2438 206.582 95.6888 206.045C96.1339 205.507 96.4644 204.885 96.6599 204.215C97.8375 200.667 99.718 197.394 102.189 194.59C102.846 193.85 103.274 192.937 103.423 191.959C103.571 190.982 103.434 189.983 103.026 189.082C102.619 188.181 101.96 187.417 101.128 186.883C100.297 186.348 99.3278 186.066 98.3392 186.07V186.111ZM368.618 191.395C367.963 191.395 367.267 191.395 366.611 191.518C365.934 191.567 365.274 191.751 364.668 192.058C364.062 192.365 363.524 192.789 363.084 193.306C362.644 193.823 362.311 194.423 362.105 195.07C361.899 195.717 361.823 196.398 361.883 197.075C361.943 197.751 362.137 198.409 362.453 199.009C362.769 199.61 363.202 200.142 363.726 200.574C364.25 201.006 364.854 201.329 365.505 201.526C366.155 201.722 366.837 201.786 367.513 201.716C368.262 201.642 369.016 201.642 369.765 201.716C370.438 201.773 371.114 201.696 371.757 201.491C372.4 201.286 372.996 200.956 373.511 200.521C374.027 200.085 374.451 199.553 374.761 198.953C375.07 198.354 375.258 197.699 375.315 197.027C375.371 196.354 375.295 195.677 375.09 195.035C374.885 194.392 374.555 193.796 374.12 193.28C373.684 192.765 373.151 192.341 372.552 192.031C371.952 191.722 371.298 191.533 370.625 191.477C369.958 191.419 369.288 191.392 368.618 191.395ZM109.562 198.235C107.8 198.235 106.285 199.136 105.302 200.487C104.541 201.585 103.883 202.75 103.336 203.969C103.006 204.582 102.805 205.256 102.745 205.949C102.684 206.642 102.766 207.341 102.984 208.001C103.203 208.662 103.554 209.271 104.016 209.792C104.478 210.313 105.041 210.733 105.671 211.029C106.301 211.325 106.985 211.489 107.68 211.511C108.376 211.533 109.069 211.414 109.717 211.159C110.365 210.905 110.954 210.521 111.448 210.031C111.943 209.541 112.332 208.956 112.592 208.31C112.908 207.618 113.292 206.96 113.739 206.344C114.291 205.578 114.619 204.674 114.689 203.733C114.759 202.791 114.567 201.849 114.135 201.01C113.702 200.171 113.046 199.467 112.239 198.978C111.432 198.488 110.506 198.231 109.562 198.235ZM122.873 207.86C121.515 207.86 120.213 208.399 119.253 209.359C118.292 210.319 117.753 211.622 117.753 212.98C117.753 214.337 118.292 215.64 119.253 216.6C120.213 217.56 121.515 218.099 122.873 218.099C124.231 218.099 125.533 217.56 126.493 216.6C127.453 215.64 127.992 214.337 127.992 212.98C127.992 211.622 127.453 210.319 126.493 209.359C125.533 208.399 124.231 207.86 122.873 207.86ZM368.987 207.86C367.629 207.768 366.29 208.218 365.265 209.113C364.239 210.008 363.611 211.274 363.519 212.631C363.427 213.989 363.878 215.328 364.773 216.354C365.667 217.379 366.933 218.007 368.291 218.099C368.963 218.145 369.638 218.058 370.276 217.843C370.915 217.628 371.505 217.289 372.013 216.846C372.521 216.403 372.936 215.864 373.236 215.26C373.535 214.657 373.713 214 373.759 213.328C373.804 212.655 373.717 211.981 373.502 211.342C373.287 210.703 372.948 210.113 372.505 209.606C372.062 209.098 371.523 208.682 370.92 208.383C370.316 208.083 369.659 207.906 368.987 207.86ZM138.15 214.577C137.106 214.506 136.066 214.759 135.172 215.302C134.278 215.844 133.573 216.649 133.153 217.608C132.837 218.3 132.453 218.958 132.006 219.574C131.605 220.124 131.318 220.749 131.162 221.412C131.005 222.075 130.983 222.763 131.096 223.434C131.208 224.106 131.454 224.749 131.818 225.324C132.182 225.9 132.657 226.397 133.216 226.787C133.774 227.177 134.405 227.451 135.071 227.594C135.737 227.737 136.425 227.745 137.094 227.619C137.763 227.492 138.401 227.234 138.969 226.858C139.537 226.482 140.024 225.997 140.403 225.431C141.189 224.334 141.874 223.169 142.451 221.949C142.824 221.191 143.004 220.352 142.974 219.507C142.944 218.663 142.705 217.839 142.279 217.109C141.854 216.378 141.254 215.765 140.533 215.323C139.812 214.882 138.994 214.625 138.15 214.577ZM188.323 215.191C187.008 215.099 185.709 215.522 184.7 216.371C183.691 217.219 183.052 218.426 182.917 219.738C181.971 228.008 179.336 235.996 175.176 243.206C171.019 250.409 165.429 256.682 158.752 261.637C158.222 262.051 157.779 262.566 157.448 263.151C157.117 263.737 156.904 264.381 156.823 265.049C156.741 265.716 156.791 266.393 156.971 267.041C157.151 267.689 157.457 268.295 157.871 268.825C158.285 269.355 158.8 269.798 159.385 270.129C159.97 270.46 160.615 270.672 161.283 270.754C161.95 270.836 162.627 270.785 163.275 270.606C163.923 270.426 164.529 270.12 165.059 269.706C172.778 263.941 179.243 256.667 184.063 248.326C188.875 239.978 191.94 230.739 193.074 221.171C193.196 220.46 193.167 219.732 192.989 219.034C192.81 218.335 192.486 217.682 192.037 217.118C191.589 216.553 191.026 216.09 190.386 215.758C189.746 215.426 189.043 215.233 188.323 215.191ZM154.328 218.222C153.185 218.131 152.045 218.43 151.093 219.069C150.141 219.709 149.433 220.652 149.086 221.744C147.904 225.278 146.024 228.537 143.556 231.329C143.08 231.833 142.712 232.43 142.474 233.081C142.235 233.733 142.132 234.426 142.169 235.119C142.207 235.812 142.385 236.49 142.693 237.112C143.001 237.734 143.432 238.286 143.96 238.737C144.488 239.187 145.102 239.525 145.764 239.731C146.427 239.936 147.125 240.005 147.815 239.933C148.505 239.86 149.173 239.648 149.779 239.31C150.384 238.972 150.915 238.514 151.338 237.964C154.609 234.228 157.113 229.886 158.711 225.185C159.002 224.436 159.112 223.63 159.034 222.831C158.956 222.032 158.691 221.262 158.26 220.585C157.83 219.907 157.246 219.34 156.556 218.929C155.865 218.519 155.088 218.277 154.287 218.222H154.328ZM171.203 218.55C169.98 218.464 168.768 218.823 167.79 219.561C166.811 220.298 166.132 221.365 165.878 222.564C164.881 226.939 163.224 231.138 160.963 235.015C158.733 238.882 155.93 242.39 152.649 245.418C151.892 246.114 151.362 247.023 151.129 248.024C150.895 249.026 150.969 250.075 151.34 251.034C151.712 251.994 152.363 252.819 153.21 253.402C154.058 253.986 155.061 254.301 156.089 254.306C157.523 254.306 158.793 253.732 159.735 252.831C163.721 249.127 167.131 244.847 169.851 240.134C172.595 235.383 174.561 230.305 175.79 224.98C175.985 224.251 176.017 223.488 175.882 222.745C175.748 222.002 175.451 221.298 175.012 220.684C174.574 220.069 174.005 219.559 173.346 219.19C172.688 218.821 171.956 218.603 171.203 218.55ZM366.693 224.161C366.021 224.156 365.354 224.283 364.731 224.535C364.108 224.787 363.54 225.16 363.061 225.632C362.582 226.103 362.2 226.665 361.938 227.284C361.676 227.903 361.538 228.567 361.533 229.24C361.527 229.912 361.654 230.579 361.907 231.202C362.159 231.825 362.532 232.393 363.003 232.872C363.475 233.351 364.036 233.733 364.655 233.995C365.274 234.257 365.939 234.395 366.611 234.4C367.946 234.527 369.29 234.527 370.625 234.4C371.298 234.341 371.952 234.15 372.55 233.838C373.149 233.526 373.68 233.1 374.114 232.582C374.547 232.065 374.875 231.467 375.077 230.824C375.28 230.18 375.354 229.502 375.294 228.83C375.235 228.158 375.044 227.504 374.732 226.905C374.42 226.307 373.994 225.775 373.476 225.342C372.959 224.908 372.362 224.581 371.718 224.378C371.074 224.176 370.397 224.102 369.724 224.161C368.975 224.238 368.221 224.238 367.472 224.161C367.199 224.139 366.925 224.139 366.652 224.161H366.693ZM284.696 226.086C283.615 226.083 282.56 226.423 281.683 227.056C280.806 227.69 280.153 228.585 279.816 229.613C279.48 230.64 279.477 231.749 279.81 232.778C280.142 233.807 280.791 234.705 281.665 235.342C288.328 240.302 293.904 246.575 298.048 253.773C302.213 260.97 304.862 268.943 305.83 277.201C305.883 277.9 306.079 278.58 306.405 279.2C306.731 279.819 307.181 280.366 307.727 280.805C308.273 281.244 308.903 281.566 309.579 281.752C310.254 281.937 310.96 281.982 311.654 281.884C312.347 281.786 313.013 281.546 313.611 281.18C314.208 280.814 314.724 280.33 315.126 279.756C315.528 279.183 315.809 278.533 315.95 277.847C316.091 277.161 316.09 276.453 315.947 275.768C314.814 266.199 311.749 256.96 306.936 248.613C302.112 240.286 295.646 233.027 287.932 227.274C287.014 226.504 285.853 226.083 284.655 226.086H284.696ZM362.147 240.012C360.866 240.004 359.628 240.477 358.679 241.337C357.73 242.198 357.137 243.383 357.019 244.658C356.901 245.934 357.265 247.208 358.04 248.228C358.815 249.248 359.944 249.941 361.205 250.169C366.073 251.13 371.082 251.13 375.95 250.169C376.626 250.067 377.276 249.831 377.86 249.474C378.443 249.117 378.95 248.646 379.348 248.09C379.747 247.534 380.031 246.904 380.182 246.237C380.333 245.569 380.349 244.878 380.228 244.205C380.108 243.531 379.853 242.889 379.48 242.315C379.107 241.741 378.623 241.248 378.056 240.865C377.489 240.482 376.851 240.216 376.18 240.084C375.509 239.951 374.818 239.954 374.148 240.093C370.499 240.837 366.738 240.837 363.089 240.093C362.78 240.023 362.464 239.982 362.147 239.971V240.012ZM279.003 242.633C277.971 242.63 276.962 242.939 276.109 243.519C275.255 244.099 274.597 244.924 274.221 245.885C273.844 246.846 273.767 247.899 273.999 248.904C274.231 249.91 274.762 250.822 275.522 251.521C278.798 254.551 281.665 258.074 283.877 261.924C286.127 265.816 287.771 270.028 288.751 274.416C288.974 275.421 289.494 276.336 290.245 277.041C290.995 277.746 291.941 278.208 292.958 278.368C293.975 278.527 295.017 278.376 295.947 277.934C296.877 277.492 297.652 276.78 298.171 275.89C298.868 274.662 298.99 273.269 298.704 271.999C297.492 266.68 295.491 261.571 292.765 256.845C290.044 252.132 286.634 247.853 282.648 244.148C282.168 243.674 281.599 243.3 280.973 243.047C280.347 242.794 279.678 242.667 279.003 242.674V242.633ZM353.341 254.797C352.151 254.919 351.042 255.453 350.205 256.307C349.368 257.162 348.856 258.282 348.759 259.474C348.661 260.666 348.984 261.854 349.672 262.833C350.359 263.812 351.368 264.519 352.522 264.832C357.734 266.453 363.16 267.281 368.618 267.289C374.066 267.289 379.472 266.47 384.633 264.832C385.936 264.452 387.035 263.569 387.688 262.379C388.341 261.188 388.494 259.787 388.114 258.483C387.734 257.18 386.852 256.081 385.661 255.428C384.47 254.775 383.069 254.622 381.766 255.002C377.499 256.348 373.052 257.038 368.577 257.05C364.113 257.05 359.649 256.354 355.389 255.002C354.727 254.796 354.031 254.726 353.341 254.797ZM270.32 257.091C269.335 257.095 268.372 257.382 267.546 257.92C266.721 258.457 266.068 259.221 265.665 260.121C265.263 261.02 265.129 262.016 265.279 262.99C265.429 263.964 265.857 264.873 266.511 265.61C268.978 268.401 270.859 271.661 272.04 275.194C272.357 276.121 272.933 276.938 273.7 277.547C274.467 278.156 275.392 278.533 276.367 278.632C277.341 278.731 278.323 278.549 279.197 278.106C280.071 277.664 280.8 276.98 281.297 276.136C282.116 274.785 282.198 273.187 281.706 271.795C280.101 267.076 277.582 262.72 274.293 258.975C273.812 258.385 273.206 257.911 272.519 257.585C271.832 257.259 271.081 257.09 270.32 257.091ZM342.201 267.986C341.022 268.039 339.897 268.498 339.018 269.286C338.138 270.073 337.558 271.14 337.375 272.306C337.192 273.472 337.417 274.665 338.013 275.684C338.609 276.703 339.538 277.485 340.644 277.897C349.481 281.698 358.999 283.663 368.618 283.672C378.252 283.668 387.784 281.704 396.633 277.897C397.257 277.645 397.825 277.271 398.305 276.799C398.785 276.327 399.167 275.765 399.429 275.145C399.691 274.525 399.829 273.859 399.834 273.186C399.84 272.513 399.712 271.845 399.459 271.221C399.207 270.597 398.833 270.029 398.361 269.55C397.889 269.07 397.327 268.688 396.707 268.426C396.087 268.163 395.421 268.025 394.748 268.02C394.075 268.015 393.407 268.142 392.783 268.395C385.158 271.712 376.933 273.427 368.618 273.433C360.345 273.433 352.072 271.713 344.494 268.395C343.771 268.086 342.987 267.945 342.201 267.986ZM259.098 269.255C258.157 269.259 257.236 269.521 256.435 270.014C255.634 270.507 254.984 271.211 254.556 272.049C254.129 272.886 253.941 273.826 254.012 274.764C254.083 275.701 254.412 276.601 254.961 277.365C255.392 277.983 255.763 278.641 256.067 279.331C256.447 280.2 257.061 280.946 257.841 281.487C258.621 282.027 259.535 282.34 260.482 282.391C261.429 282.442 262.372 282.229 263.205 281.775C264.038 281.322 264.729 280.646 265.2 279.822C266.061 278.266 266.061 276.464 265.364 274.989C264.788 273.783 264.102 272.631 263.316 271.549C262.854 270.851 262.228 270.277 261.493 269.877C260.757 269.477 259.935 269.264 259.098 269.255ZM245.418 278.839C244.118 278.933 242.903 279.519 242.02 280.478C241.137 281.437 240.653 282.697 240.667 284H250.906C250.914 283.292 250.774 282.59 250.497 281.939C250.219 281.288 249.81 280.701 249.294 280.216C248.778 279.731 248.167 279.358 247.5 279.121C246.833 278.884 246.124 278.788 245.418 278.839Z" fill="white"/>
<path d="M76.7955 0C76.7955 1.35783 77.3349 2.66004 78.295 3.62017C79.2551 4.5803 80.5574 5.1197 81.9152 5.1197C83.273 5.1197 84.5752 4.5803 85.5354 3.62017C86.4955 2.66004 87.0349 1.35783 87.0349 0H76.7955ZM404.456 0C404.456 1.35783 404.996 2.66004 405.956 3.62017C406.916 4.5803 408.218 5.1197 409.576 5.1197C410.934 5.1197 412.236 4.5803 413.196 3.62017C414.156 2.66004 414.696 1.35783 414.696 0H404.456ZM287.195 0.286703C274.631 0.182201 262.269 3.44945 251.398 9.74791C240.669 15.9755 231.76 24.9061 225.558 35.6496C219.356 46.3932 216.079 58.5745 216.051 70.9795C216.04 82.0004 218.609 92.8709 223.552 102.721C228.494 112.571 235.674 121.128 244.517 127.706C245.047 128.12 245.653 128.426 246.301 128.606C246.949 128.785 247.626 128.836 248.293 128.754C248.961 128.672 249.606 128.46 250.191 128.129C250.776 127.798 251.291 127.355 251.705 126.825C252.119 126.295 252.425 125.689 252.605 125.041C252.785 124.393 252.835 123.716 252.753 123.049C252.672 122.381 252.459 121.736 252.128 121.151C251.797 120.566 251.354 120.051 250.824 119.637C243.207 114.018 237.017 106.686 232.755 98.2338C228.494 89.7815 226.279 80.4455 226.291 70.9795C226.313 60.3784 229.112 49.9681 234.408 40.7846C239.703 31.6012 247.312 23.9648 256.476 18.6357C264.669 13.8969 273.861 11.1532 283.31 10.6267C292.76 10.1001 302.2 11.8055 310.868 15.6048C311.86 16.0418 312.965 16.1527 314.024 15.9215C315.083 15.6903 316.042 15.129 316.761 14.3183C317.481 13.5077 317.924 12.4895 318.028 11.4106C318.132 10.3316 317.891 9.24751 317.339 8.31439C316.736 7.29045 315.794 6.50851 314.677 6.10268C306.008 2.35889 296.679 0.381671 287.236 0.286703H287.195ZM40.4661 0.286703C31.0066 0.389169 21.6629 2.38045 12.9836 6.14364C12.2824 6.3306 11.629 6.66446 11.0667 7.12311C10.5044 7.58175 10.046 8.15469 9.72189 8.80394C9.3978 9.45319 9.21543 10.1639 9.18687 10.889C9.15831 11.6141 9.28422 12.337 9.55623 13.0097C9.82825 13.6824 10.2402 14.2896 10.7647 14.7911C11.2892 15.2925 11.9143 15.6768 12.5986 15.9183C13.2828 16.1598 14.0106 16.2531 14.7337 16.192C15.4568 16.1309 16.1586 15.9168 16.7926 15.5639C25.455 11.7713 34.888 10.0696 44.3295 10.5961C53.7711 11.1226 62.9564 13.8626 71.1433 18.5947C80.3152 23.9187 87.9322 31.5528 93.2355 40.7366C98.5388 49.9205 101.343 60.3335 101.37 70.9386C101.382 80.4045 99.1672 89.7406 94.9055 98.1929C90.6437 106.645 84.4541 113.977 76.8365 119.596C76.3067 120.01 75.8636 120.525 75.5326 121.11C75.2017 121.696 74.9892 122.34 74.9075 123.008C74.8257 123.675 74.8762 124.352 75.0561 125C75.236 125.648 75.5417 126.254 75.9559 126.784C76.37 127.314 76.8845 127.757 77.4698 128.088C78.0552 128.419 78.7 128.631 79.3675 128.713C80.035 128.795 80.712 128.745 81.36 128.565C82.0079 128.385 82.6141 128.079 83.1439 127.665C91.9864 121.087 99.1664 112.53 104.109 102.68C109.052 92.8299 111.621 81.9594 111.609 70.9386C111.561 58.5544 108.273 46.3984 102.072 35.6783C95.8714 24.9581 86.9737 16.0469 76.2631 9.82982C65.3997 3.50273 53.0374 0.207063 40.4661 0.286703ZM394.258 1.6383C393.421 1.69929 392.612 1.96497 391.902 2.41196C391.192 2.85895 390.603 3.47356 390.186 4.20172C389.77 4.92988 389.538 5.74927 389.513 6.58783C389.487 7.42638 389.668 8.25839 390.039 9.01067C391.885 13.0658 394.948 16.4446 398.804 18.6767C402.076 20.5559 405.783 21.5449 409.556 21.5449C413.328 21.5449 417.035 20.5559 420.307 18.6767C424.178 16.4512 427.257 13.0717 429.113 9.01067C429.688 7.77776 429.751 6.36665 429.286 5.08775C428.821 3.80886 427.868 2.76695 426.635 2.19123C425.402 1.61551 423.991 1.55314 422.712 2.01785C421.433 2.48255 420.391 3.43626 419.815 4.66917C418.905 6.61619 417.458 8.26318 415.644 9.41701C413.83 10.5709 411.725 11.1837 409.576 11.1837C407.426 11.1837 405.322 10.5709 403.508 9.41701C401.694 8.26318 400.247 6.61619 399.337 4.66917C398.908 3.70064 398.189 2.88902 397.279 2.34619C396.37 1.80335 395.314 1.55603 394.258 1.6383ZM344.085 2.21171C343.369 2.25867 342.67 2.45572 342.035 2.79008C341.4 3.12444 340.842 3.58863 340.398 4.15252C339.954 4.71641 339.633 5.3674 339.457 6.06323C339.281 6.75906 339.253 7.48418 339.375 8.19152C340.639 19.1401 344.45 29.6404 350.503 38.851C356.556 48.0616 364.682 55.7265 374.23 61.2316C384.977 67.4126 397.158 70.6656 409.556 70.6656C421.953 70.6656 434.134 67.4126 444.881 61.2316C454.429 55.7265 462.555 48.0616 468.608 38.851C474.661 29.6404 478.472 19.1401 479.736 8.19152C479.88 7.50587 479.881 6.79811 479.74 6.11203C479.598 5.42594 479.318 4.77613 478.915 4.2028C478.513 3.62947 477.997 3.14481 477.4 2.77882C476.803 2.41282 476.137 2.17328 475.443 2.075C474.75 1.97673 474.043 2.02182 473.368 2.20748C472.693 2.39313 472.062 2.71541 471.517 3.15438C470.971 3.59334 470.521 4.13964 470.194 4.75949C469.868 5.37933 469.673 6.05953 469.62 6.758C468.565 16.1652 465.313 25.1927 460.127 33.1114C454.94 41.0302 447.964 47.6183 439.762 52.3438C430.571 57.6261 420.156 60.406 409.556 60.406C398.955 60.406 388.54 57.6261 379.349 52.3438C371.155 47.6135 364.187 41.0233 359.007 33.1049C353.828 25.1865 350.582 16.1615 349.532 6.758C349.377 5.45073 348.725 4.25326 347.711 3.41428C346.696 2.57531 345.398 2.1593 344.085 2.25267V2.21171ZM378.121 5.24257C377.319 5.29722 376.542 5.53953 375.852 5.94992C375.162 6.36032 374.578 6.9273 374.148 7.60505C373.717 8.28281 373.452 9.05234 373.374 9.85148C373.295 10.6506 373.406 11.457 373.697 12.2054C376.652 20.8853 382.665 28.1934 390.613 32.7661C396.376 36.0793 402.908 37.8229 409.556 37.8229C416.203 37.8229 422.735 36.0793 428.498 32.7661C436.461 28.1734 442.476 20.8338 445.414 12.1234C445.701 11.4781 445.851 10.7803 445.855 10.0741C445.859 9.36789 445.717 8.66846 445.438 8.01979C445.158 7.37112 444.748 6.78724 444.232 6.30488C443.716 5.82251 443.106 5.45208 442.44 5.21688C441.774 4.98169 441.067 4.88681 440.363 4.93821C439.658 4.98962 438.972 5.18619 438.348 5.51558C437.723 5.84497 437.173 6.30004 436.733 6.85219C436.292 7.40434 435.971 8.04163 435.789 8.72397C433.647 15.1244 429.231 20.5165 423.379 23.8783C419.173 26.2968 414.407 27.5696 409.556 27.5696C404.704 27.5696 399.938 26.2968 395.732 23.8783C389.88 20.5165 385.464 15.1244 383.322 8.72397C382.97 7.64241 382.267 6.70905 381.325 6.07122C380.383 5.43339 379.256 5.12742 378.121 5.20161V5.24257ZM361.246 5.57023C360.493 5.62309 359.761 5.84181 359.102 6.21071C358.444 6.57962 357.875 7.0896 357.437 7.70411C356.998 8.31863 356.701 9.02248 356.567 9.76526C356.432 10.508 356.464 11.2714 356.659 12.0006C358.305 19.3044 361.448 26.1875 365.889 32.215C370.331 38.2425 375.974 43.2834 382.462 47.0193C390.714 51.7549 400.062 54.2467 409.576 54.2467C419.09 54.2467 428.438 51.7549 436.69 47.0193C443.178 43.2834 448.821 38.2425 453.263 32.215C457.704 26.1875 460.847 19.3044 462.493 12.0006C462.819 10.6808 462.607 9.28556 461.905 8.12188C461.202 6.9582 460.065 6.12138 458.746 5.7955C457.426 5.46962 456.031 5.68138 454.867 6.3842C453.703 7.08701 452.866 8.22331 452.54 9.54312C451.222 15.5034 448.677 21.1238 445.066 26.0459C441.456 30.968 436.859 35.084 431.57 38.1315C424.873 41.9839 417.282 44.0114 409.556 44.0114C401.829 44.0114 394.238 41.9839 387.541 38.1315C382.256 35.0885 377.662 30.9789 374.052 26.0641C370.442 21.1494 367.894 15.537 366.57 9.58408C366.309 8.38933 365.628 7.32776 364.651 6.59151C363.675 5.85526 362.467 5.49298 361.246 5.57023ZM489.443 13.1064C488.362 13.1034 487.307 13.443 486.43 14.0765C485.553 14.7101 484.9 15.605 484.563 16.633C484.227 17.6609 484.224 18.7691 484.557 19.7985C484.889 20.8278 485.538 21.7256 486.412 22.3628C488.174 23.6735 489.894 25.066 491.491 26.5815V13.516C490.877 13.2293 490.181 13.0655 489.443 13.0655V13.1064ZM165.878 13.1064C164.65 13.1064 163.503 13.516 162.602 14.2942C153.765 20.8681 146.588 29.418 141.646 39.2606C136.703 49.1032 134.131 59.9656 134.136 70.9795C134.159 83.3806 137.431 95.5592 143.625 106.302C149.82 117.046 158.721 125.978 169.442 132.211C178.974 137.73 189.667 140.939 200.664 141.579C211.66 142.219 222.654 140.273 232.762 135.897C233.386 135.645 233.954 135.271 234.434 134.799C234.913 134.327 235.295 133.764 235.558 133.145C235.82 132.525 235.958 131.859 235.963 131.186C235.968 130.513 235.841 129.845 235.588 129.221C235.335 128.597 234.962 128.029 234.49 127.55C234.017 127.07 233.455 126.688 232.835 126.426C232.215 126.163 231.55 126.025 230.877 126.02C230.204 126.015 229.536 126.142 228.912 126.395C220.246 130.182 210.812 131.876 201.37 131.343C191.929 130.809 182.745 128.062 174.561 123.323C165.397 117.994 157.788 110.358 152.492 101.174C147.196 91.9909 144.398 81.5806 144.376 70.9795C144.37 61.5205 146.588 52.1926 150.849 43.7479C155.111 35.3032 161.297 27.9779 168.909 22.3628C169.786 21.7235 170.437 20.8221 170.768 19.7887C171.1 18.7552 171.094 17.6433 170.752 16.6133C170.41 15.5833 169.75 14.6886 168.867 14.0582C167.983 13.4279 166.922 13.0946 165.837 13.1064H165.878ZM0 13.557V26.6224C6.14362 32.2785 11.0453 39.1491 14.3942 46.7989C17.7432 54.4486 19.4665 62.7107 19.4549 71.0614C19.4549 88.0588 12.2054 104.155 0 115.5V128.689C9.16782 122.129 16.6425 113.482 21.806 103.461C26.9695 93.4401 29.6734 82.3342 29.6943 71.0614C29.7055 60.0406 27.137 49.1701 22.1941 39.3199C17.2512 29.4696 10.0712 20.9131 1.22873 14.3352C0.855738 14.033 0.442111 13.7849 0 13.5979L0 13.557ZM286.58 16.7107C277.089 16.7068 267.764 19.2075 259.548 23.9602C251.316 28.7466 244.481 35.6061 239.724 43.8555C234.967 52.105 232.453 61.4567 232.434 70.9795C232.426 78.4642 233.969 85.8693 236.965 92.7282C239.961 99.5871 244.345 105.751 249.841 110.831C250.557 111.541 251.467 112.023 252.456 112.218C253.445 112.413 254.469 112.312 255.401 111.927C256.332 111.542 257.13 110.891 257.692 110.055C258.255 109.219 258.559 108.235 258.565 107.227C258.565 105.712 257.951 104.36 256.927 103.459C252.425 99.3326 248.832 94.3132 246.378 88.721C243.924 83.1288 242.662 77.0865 242.674 70.9795C242.692 63.2567 244.732 55.6733 248.591 48.9835C252.449 42.2938 257.992 36.7308 264.668 32.848C269.946 29.7852 275.804 27.8572 281.869 27.1872C287.934 26.5172 294.073 27.12 299.892 28.957C301.195 29.3372 302.596 29.184 303.787 28.5311C304.977 27.8782 305.86 26.7791 306.24 25.4756C306.62 24.1721 306.467 22.771 305.814 21.5804C305.161 20.3898 304.062 19.5074 302.759 19.1272C297.52 17.4981 292.066 16.6696 286.58 16.6697V16.7107ZM41.0805 16.7107C35.5947 16.7106 30.1405 17.5391 24.9022 19.1682C24.2568 19.3564 23.6547 19.6699 23.1305 20.0909C22.6062 20.5118 22.17 21.0318 21.8467 21.6213C21.5234 22.2109 21.3194 22.8583 21.2464 23.5266C21.1733 24.195 21.2326 24.8711 21.4208 25.5166C21.6091 26.162 21.9226 26.7641 22.3435 27.2883C22.7645 27.8126 23.2845 28.2488 23.874 28.5721C24.4635 28.8954 25.1109 29.0994 25.7793 29.1724C26.4476 29.2455 27.1238 29.1862 27.7693 28.998C33.5854 27.1548 39.722 26.5453 45.7871 27.2082C51.8521 27.8711 57.7122 29.792 62.9928 32.848C69.6745 36.7343 75.2212 42.3037 79.0802 49.0013C82.9392 55.6989 84.9758 63.2907 84.987 71.0205C84.9926 77.1206 83.7282 83.155 81.2743 88.7397C78.8204 94.3245 75.2308 99.3372 70.7338 103.459C70.2083 103.914 69.7808 104.47 69.4775 105.096C69.1741 105.721 69.0012 106.401 68.9692 107.095C68.9373 107.789 69.047 108.483 69.2916 109.133C69.5363 109.784 69.9108 110.377 70.3923 110.878C70.8738 111.379 71.4523 111.777 72.0924 112.047C72.7326 112.318 73.4211 112.455 74.116 112.45C74.8108 112.446 75.4975 112.3 76.1342 112.022C76.7709 111.743 77.3443 111.338 77.8194 110.831C83.3159 105.751 87.7002 99.5871 90.6962 92.7282C93.6921 85.8693 95.2346 78.4642 95.2264 70.9795C95.2033 61.4527 92.6839 52.0983 87.9194 43.8485C83.1549 35.5987 76.3117 28.7415 68.0715 23.9602C59.8836 19.2071 50.5889 16.6927 41.1214 16.6697L41.0805 16.7107ZM483.75 29.6533C482.722 29.6584 481.718 29.9732 480.871 30.5568C480.024 31.1403 479.372 31.9655 479.001 32.9248C478.63 33.884 478.556 34.9329 478.789 35.9347C479.023 36.9365 479.553 37.8447 480.31 38.5411C485.226 43.0717 489.049 48.6595 491.491 54.8832V35.3874C490.203 33.9087 488.835 32.5004 487.395 31.1687C486.918 30.6875 486.35 30.3057 485.725 30.0455C485.099 29.7854 484.428 29.6521 483.75 29.6533ZM171.53 29.6533C170.138 29.6533 168.827 30.2267 167.926 31.1687C162.435 36.2443 158.053 42.4016 155.058 49.253C152.062 56.1044 150.517 63.5018 150.519 70.9795C150.531 80.5093 153.041 89.8694 157.798 98.1267C162.556 106.384 169.395 113.25 177.633 118.04C184.109 121.792 191.293 124.16 198.731 124.992C206.169 125.823 213.699 125.102 220.843 122.873C221.833 122.617 222.723 122.072 223.399 121.307C224.076 120.541 224.508 119.591 224.64 118.578C224.772 117.565 224.599 116.535 224.141 115.622C223.683 114.709 222.963 113.953 222.072 113.453C221.455 113.105 220.772 112.889 220.067 112.818C219.362 112.748 218.65 112.824 217.976 113.043C212.157 114.88 206.019 115.483 199.954 114.813C193.889 114.143 188.03 112.215 182.753 109.152C176.071 105.266 170.524 99.6963 166.665 92.9987C162.806 86.3011 160.77 78.7093 160.759 70.9795C160.753 64.8794 162.017 58.845 164.471 53.2603C166.925 47.6755 170.515 42.6628 175.012 38.5411C175.771 37.8424 176.302 36.9304 176.534 35.9247C176.767 34.9191 176.689 33.8667 176.313 32.9057C175.937 31.9447 175.278 31.1199 174.425 30.5395C173.571 29.9591 172.563 29.6502 171.53 29.6533ZM287.44 33.0937C280.546 32.9558 273.746 34.7125 267.781 38.1725C262.032 41.5106 257.257 46.2951 253.93 52.0506C250.603 57.806 248.841 64.3318 248.817 70.9795C248.817 80.5636 252.34 89.3285 258.197 95.9637C258.62 96.5135 259.151 96.9715 259.756 97.31C260.362 97.6485 261.03 97.8603 261.72 97.9326C262.41 98.0049 263.108 97.9361 263.771 97.7305C264.433 97.5249 265.047 97.1868 265.575 96.7366C266.103 96.2864 266.534 95.7336 266.842 95.1117C267.15 94.4898 267.328 93.8119 267.366 93.119C267.403 92.4262 267.3 91.7329 267.062 91.0813C266.823 90.4297 266.455 89.8334 265.979 89.3285C261.485 84.2735 259.007 77.7429 259.016 70.9795C259.016 61.1497 264.34 51.9752 272.86 47.0603C278.71 43.6639 285.607 42.5412 292.232 43.9065C292.894 44.0276 293.573 44.0171 294.23 43.8757C294.888 43.7344 295.511 43.4649 296.065 43.0826C296.618 42.7004 297.091 42.2129 297.456 41.648C297.821 41.0831 298.071 40.4519 298.192 39.7903C298.313 39.1287 298.302 38.4498 298.161 37.7923C298.02 37.1348 297.75 36.5115 297.368 35.9581C296.986 35.4048 296.498 34.9321 295.933 34.5671C295.368 34.2021 294.737 33.952 294.076 33.831C291.89 33.3888 289.67 33.142 287.44 33.0937ZM40.1794 33.0937C37.9677 33.1347 35.756 33.3804 33.5852 33.831C32.9237 33.952 32.2924 34.2021 31.7275 34.5671C31.1626 34.9321 30.6751 35.4048 30.2929 35.9581C29.9107 36.5115 29.6412 37.1348 29.4998 37.7923C29.3584 38.4498 29.348 39.1287 29.469 39.7903C29.59 40.4519 29.8402 41.0831 30.2051 41.648C30.5701 42.2129 31.0428 42.7004 31.5962 43.0826C32.1495 43.4649 32.7728 43.7344 33.4303 43.8757C34.0878 44.0171 34.7668 44.0276 35.4283 43.9065C42.041 42.5517 48.9211 43.674 54.7603 47.0603C58.9612 49.4952 62.4501 52.989 64.8792 57.1932C67.3083 61.3974 68.5926 66.165 68.604 71.0205C68.604 78.0242 65.9827 84.4546 61.6412 89.3695C60.987 90.1061 60.5593 91.0158 60.4093 91.9895C60.2593 92.9631 60.3934 93.9594 60.7955 94.8587C61.1976 95.7581 61.8507 96.5223 62.6763 97.0597C63.5019 97.5972 64.4651 97.885 65.4502 97.8887C67.0885 97.8887 68.5221 97.1514 69.4231 95.9637C75.5009 89.0607 78.8506 80.1769 78.8434 70.9795C78.8202 64.3318 77.0576 57.806 73.7308 52.0506C70.404 46.2951 65.6289 41.5106 59.88 38.1725C53.915 34.7125 47.1148 32.9558 40.2204 33.0937H40.1794ZM0 35.3874V54.8013C4.11491 65.1943 4.11491 76.7648 0 87.1578L0 106.613C8.57468 96.7203 13.3 84.0708 13.3112 70.9795C13.3172 57.9097 8.58841 45.2802 0 35.4283L0 35.3874ZM475.026 44.1113C474.041 44.115 473.078 44.4028 472.252 44.9403C471.427 45.4777 470.774 46.2419 470.372 47.1413C469.969 48.0406 469.835 49.0369 469.985 50.0105C470.135 50.9842 470.563 51.8939 471.217 52.6305C475.711 57.6855 478.189 64.2161 478.18 70.9795C478.18 80.8093 472.855 90.0248 464.336 94.9397C458.497 98.326 451.617 99.4483 445.004 98.0935C444.343 97.9697 443.663 97.9775 443.005 98.1164C442.346 98.2553 441.721 98.5225 441.166 98.9029C440.611 99.2832 440.136 99.7692 439.768 100.333C439.401 100.897 439.148 101.528 439.025 102.189C438.901 102.851 438.909 103.53 439.047 104.189C439.186 104.847 439.454 105.472 439.834 106.027C440.214 106.583 440.7 107.058 441.264 107.425C441.828 107.793 442.459 108.045 443.12 108.169C451.844 109.889 461.183 108.579 469.456 103.828C475.211 100.486 479.99 95.6949 483.317 89.9317C486.644 84.1685 488.403 77.6342 488.419 70.9795C488.419 61.4364 484.856 52.6715 478.999 45.9954C478.523 45.4113 477.923 44.9396 477.244 44.6139C476.564 44.2882 475.821 44.1166 475.067 44.1113H475.026ZM180.254 44.1113C178.657 44.1113 177.224 44.8486 176.322 45.9954C170.245 52.8984 166.895 61.7822 166.902 70.9795C166.914 77.6302 168.667 84.1618 171.987 89.9247C175.307 95.6875 180.077 100.481 185.825 103.828C193.779 108.439 203.146 109.984 212.16 108.169C212.822 108.048 213.453 107.798 214.018 107.433C214.583 107.068 215.07 106.595 215.453 106.042C215.835 105.488 216.104 104.865 216.246 104.208C216.387 103.55 216.398 102.871 216.277 102.21C216.156 101.548 215.905 100.917 215.54 100.352C215.175 99.7871 214.703 99.2996 214.149 98.9174C213.596 98.5351 212.973 98.2656 212.315 98.1243C211.658 97.9829 210.979 97.9724 210.317 98.0935C203.691 99.4588 196.795 98.3361 190.944 94.9397C186.751 92.4997 183.27 89.0036 180.849 84.7998C178.427 80.5959 177.149 75.831 177.142 70.9795C177.142 63.9758 179.763 57.5454 184.104 52.6305C184.761 51.8913 185.189 50.9778 185.338 50.0004C185.486 49.023 185.349 48.0235 184.942 47.1226C184.535 46.2217 183.875 45.4579 183.043 44.9236C182.212 44.3892 181.243 44.1071 180.254 44.1113ZM287.113 49.4768C283.304 49.3949 279.454 50.2959 275.972 52.3438C272.706 54.2391 269.993 56.9568 268.103 60.2263C266.213 63.4958 265.212 67.2031 265.2 70.9795C265.183 75.4379 266.558 79.7906 269.132 83.4306C269.909 84.5495 271.098 85.314 272.439 85.5559C273.779 85.7979 275.161 85.4975 276.279 84.7208C277.398 83.9441 278.163 82.7548 278.405 81.4144C278.647 80.0741 278.346 78.6925 277.57 77.5737C276.647 76.2943 276.002 74.8358 275.676 73.2922C275.351 71.7485 275.352 70.1539 275.68 68.6108C276.008 67.0677 276.655 65.6103 277.58 64.3324C278.505 63.0544 279.688 61.9842 281.051 61.1907C283.097 60.0141 285.462 59.5125 287.809 59.7571C288.484 59.8274 289.167 59.7626 289.817 59.5665C290.467 59.3704 291.072 59.0469 291.596 58.615C292.119 58.183 292.552 57.6512 292.869 57.0504C293.185 56.4496 293.379 55.7919 293.438 55.1155C293.498 54.4391 293.423 53.7576 293.217 53.1107C293.011 52.4637 292.678 51.8642 292.238 51.3471C291.798 50.83 291.259 50.4055 290.654 50.0985C290.048 49.7915 289.387 49.608 288.71 49.5587C288.165 49.5149 287.619 49.4876 287.072 49.4768H287.113ZM40.548 49.4768L38.9097 49.5587C38.2374 49.6179 37.5833 49.8089 36.9848 50.1208C36.3863 50.4328 35.8551 50.8596 35.4215 51.3768C34.5459 52.4214 34.1211 53.7711 34.2406 55.1289C34.36 56.4868 35.014 57.7415 36.0587 58.6171C37.1033 59.4928 38.453 59.9176 39.8108 59.7981C41.9589 59.607 44.1168 60.0343 46.0299 61.0296C47.9431 62.0249 49.5316 63.5467 50.608 65.4154C51.6845 67.2841 52.2039 69.4217 52.1051 71.576C52.0062 73.7303 51.2932 75.8114 50.0502 77.5737C49.6656 78.1277 49.3939 78.752 49.2506 79.411C49.1073 80.07 49.0953 80.7508 49.2151 81.4144C49.457 82.7548 50.2215 83.9441 51.3404 84.7208C52.4592 85.4975 53.8408 85.7979 55.1811 85.5559C56.5214 85.314 57.7108 84.5495 58.4874 83.4306C61.0765 79.7955 62.4654 75.4424 62.4603 70.9795C62.4494 67.2133 61.4532 63.5154 59.5707 60.2534C57.6882 56.9913 54.9849 54.2786 51.7294 52.3848C48.3476 50.4293 44.4947 49.4377 40.589 49.5177L40.548 49.4768ZM463.804 56.2757C462.863 56.2793 461.942 56.5418 461.141 57.0345C460.34 57.5273 459.69 58.2312 459.262 59.069C458.835 59.9068 458.647 60.8462 458.718 61.784C458.789 62.7218 459.118 63.6219 459.667 64.3853C460.59 65.6648 461.235 67.1232 461.56 68.6669C461.886 70.2105 461.884 71.8051 461.556 73.3483C461.229 74.8914 460.581 76.3488 459.656 77.6267C458.731 78.9046 457.549 79.9748 456.186 80.7684C454.128 81.9535 451.748 82.4554 449.387 82.2019C448.714 82.1454 448.038 82.2219 447.395 82.427C446.752 82.6322 446.156 82.9619 445.641 83.3973C444.6 84.2768 443.951 85.5337 443.837 86.8915C443.723 88.2494 444.153 89.5969 445.032 90.6377C445.912 91.6785 447.169 92.3272 448.527 92.4413C452.827 92.8099 457.251 91.9498 461.264 89.6152C464.531 87.7199 467.244 85.0023 469.134 81.7328C471.024 78.4633 472.024 74.7559 472.036 70.9795C472.041 66.5166 470.652 62.1636 468.063 58.5284C467.593 57.8322 466.958 57.2625 466.215 56.8696C465.472 56.4768 464.644 56.2728 463.804 56.2757ZM191.477 56.2757C189.716 56.2757 188.2 57.1768 187.217 58.5284C184.643 62.1685 183.268 66.5211 183.285 70.9795C183.285 78.6386 187.381 85.8062 194.016 89.6152C197.88 91.8557 202.349 92.8296 206.795 92.4003C207.472 92.3511 208.133 92.1676 208.738 91.8605C209.344 91.5535 209.883 91.1291 210.323 90.612C210.763 90.0948 211.095 89.4953 211.301 88.8484C211.508 88.2014 211.583 87.5199 211.523 86.8436C211.463 86.1672 211.27 85.5095 210.953 84.9087C210.637 84.3079 210.204 83.776 209.68 83.344C209.157 82.9121 208.552 82.5887 207.902 82.3926C207.252 82.1965 206.569 82.1317 205.894 82.2019C203.746 82.393 201.588 81.9657 199.675 80.9704C197.762 79.9751 196.173 78.4533 195.097 76.5846C194.02 74.7159 193.501 72.5783 193.6 70.424C193.698 68.2697 194.411 66.1886 195.654 64.4263C196.217 63.66 196.556 62.752 196.632 61.8042C196.708 60.8564 196.518 59.9061 196.085 59.0599C195.651 58.2137 194.99 57.505 194.176 57.0133C193.362 56.5215 192.428 56.2661 191.477 56.2757ZM204.788 65.8598C203.43 65.8598 202.128 66.3992 201.168 67.3593C200.208 68.3195 199.668 69.6217 199.668 70.9795C199.668 72.3373 200.208 73.6396 201.168 74.5997C202.128 75.5598 203.43 76.0992 204.788 76.0992C206.146 76.0992 207.448 75.5598 208.408 74.5997C209.368 73.6396 209.908 72.3373 209.908 70.9795C209.908 69.6217 209.368 68.3195 208.408 67.3593C207.448 66.3992 206.146 65.8598 204.788 65.8598ZM286.703 65.8598C285.345 65.8598 284.043 66.3992 283.083 67.3593C282.123 68.3195 281.583 69.6217 281.583 70.9795C281.583 72.3373 282.123 73.6396 283.083 74.5997C284.043 75.5598 285.345 76.0992 286.703 76.0992C288.061 76.0992 289.363 75.5598 290.323 74.5997C291.283 73.6396 291.823 72.3373 291.823 70.9795C291.823 69.6217 291.283 68.3195 290.323 67.3593C289.363 66.3992 288.061 65.8598 286.703 65.8598ZM40.589 65.8598C39.9167 65.9082 39.2604 66.0886 38.6578 66.3906C38.0552 66.6926 37.518 67.1104 37.0768 67.62C36.6356 68.1296 36.2991 68.7212 36.0865 69.3609C35.874 70.0005 35.7895 70.6758 35.8379 71.3481C35.8863 72.0205 36.0667 72.6767 36.3687 73.2793C36.6707 73.8819 37.0884 74.4192 37.5981 74.8603C38.1077 75.3015 38.6993 75.638 39.3389 75.8506C39.9786 76.0631 40.6539 76.1476 41.3262 76.0992C42.684 76.0015 43.9474 75.3683 44.8384 74.339C45.7294 73.3098 46.1751 71.9687 46.0773 70.6109C45.9795 69.2531 45.3464 67.9897 44.3171 67.0987C43.2879 66.2077 41.9468 65.7621 40.589 65.8598ZM450.902 65.8598C450.23 65.8114 449.555 65.8959 448.915 66.1085C448.275 66.321 447.684 66.6575 447.174 67.0987C446.664 67.5399 446.247 68.0771 445.945 68.6797C445.643 69.2824 445.462 69.9386 445.414 70.6109C445.365 71.2832 445.45 71.9585 445.663 72.5982C445.875 73.2379 446.212 73.8294 446.653 74.339C447.094 74.8487 447.631 75.2664 448.234 75.5684C448.836 75.8704 449.493 76.0508 450.165 76.0992C451.523 76.197 452.864 75.7513 453.893 74.8603C454.922 73.9693 455.556 72.706 455.653 71.3481C455.751 69.9903 455.305 68.6493 454.414 67.62C453.523 66.5907 452.26 65.9576 450.902 65.8598ZM327.661 71.3072C310.339 71.293 293.617 77.6502 280.679 89.1681C267.741 100.686 259.491 116.56 257.5 133.768C257.328 134.73 257.435 135.721 257.809 136.624C258.182 137.528 258.806 138.305 259.607 138.865C260.408 139.425 261.353 139.744 262.33 139.784C263.306 139.825 264.274 139.584 265.119 139.092C265.811 138.685 266.398 138.121 266.832 137.445C267.266 136.769 267.535 136 267.617 135.201C268.667 125.798 271.913 116.773 277.092 108.854C282.271 100.936 289.239 94.3455 297.434 89.6152C306.625 84.3329 317.04 81.553 327.64 81.553C338.241 81.553 348.656 84.3329 357.847 89.6152C366.041 94.3455 373.009 100.936 378.189 108.854C383.368 116.773 386.614 125.798 387.664 135.201C387.854 136.548 388.571 137.764 389.658 138.582C390.745 139.4 392.112 139.753 393.459 139.563C394.806 139.373 396.022 138.656 396.84 137.569C397.658 136.482 398.011 135.114 397.821 133.768C395.831 116.56 387.581 100.686 374.643 89.1681C361.705 77.6502 344.983 71.293 327.661 71.3072ZM491.491 87.0759C487.844 96.3645 481.16 104.145 472.528 109.152C467.247 112.208 461.387 114.129 455.322 114.792C449.257 115.455 443.12 114.845 437.304 113.002C436.321 112.699 435.27 112.7 434.287 113.004C433.304 113.308 432.435 113.901 431.794 114.705C431.153 115.51 430.77 116.489 430.693 117.515C430.617 118.54 430.851 119.566 431.365 120.456C431.699 121.045 432.146 121.561 432.68 121.976C433.214 122.391 433.825 122.696 434.478 122.873C444.536 126.006 455.29 126.132 465.419 123.236C475.548 120.34 484.61 114.548 491.491 106.572V87.0759ZM327.661 87.6902C315.349 87.6697 303.398 91.8458 293.778 99.5297C284.158 107.214 277.444 117.946 274.744 129.958C274.49 130.934 274.53 131.962 274.858 132.914C275.186 133.867 275.787 134.702 276.588 135.314C277.388 135.926 278.351 136.289 279.356 136.356C280.361 136.423 281.364 136.192 282.239 135.693C282.852 135.345 283.387 134.874 283.809 134.311C284.232 133.747 284.534 133.102 284.696 132.416C286.015 126.456 288.56 120.835 292.171 115.913C295.781 110.991 300.377 106.875 305.667 103.828C312.359 99.9827 319.943 97.9594 327.661 97.9594C335.379 97.9594 342.963 99.9827 349.655 103.828C354.944 106.875 359.541 110.991 363.151 115.913C366.762 120.835 369.307 126.456 370.625 132.416C370.853 133.419 371.378 134.329 372.131 135.029C372.884 135.729 373.831 136.187 374.847 136.341C375.864 136.496 376.903 136.341 377.83 135.897C378.758 135.452 379.53 134.739 380.046 133.849C380.783 132.621 380.906 131.228 380.578 129.958C377.885 117.939 371.175 107.197 361.554 99.5047C351.934 91.8127 339.978 87.6309 327.661 87.6493V87.6902ZM327.661 104.073C319.738 104.055 312.01 106.529 305.571 111.145C299.132 115.761 294.308 122.286 291.782 129.795C291.556 130.429 291.457 131.102 291.492 131.775C291.526 132.448 291.692 133.107 291.981 133.716C292.27 134.324 292.676 134.87 293.176 135.322C293.676 135.773 294.26 136.122 294.895 136.348C295.529 136.574 296.202 136.672 296.875 136.638C297.548 136.604 298.207 136.438 298.816 136.149C299.424 135.86 299.97 135.454 300.422 134.954C300.873 134.454 301.222 133.87 301.448 133.235C303.571 126.826 307.972 121.419 313.817 118.04C318.023 115.621 322.789 114.349 327.64 114.349C332.492 114.349 337.258 115.621 341.464 118.04C347.316 121.402 351.732 126.794 353.874 133.194C354.324 134.476 355.266 135.526 356.491 136.114C357.716 136.701 359.125 136.778 360.406 136.327C361.688 135.877 362.738 134.935 363.326 133.71C363.914 132.485 363.99 131.076 363.54 129.795C361.02 122.278 356.199 115.745 349.76 111.121C343.32 106.497 335.589 104.017 327.661 104.032V104.073ZM491.491 115.419C482.881 123.385 472.134 128.667 460.567 130.617C448.999 132.566 437.114 131.099 426.369 126.395C425.381 125.968 424.285 125.863 423.235 126.095C422.184 126.326 421.233 126.883 420.517 127.685C419.801 128.487 419.356 129.495 419.244 130.565C419.133 131.634 419.362 132.712 419.897 133.645C420.494 134.684 421.436 135.481 422.56 135.897C433.704 140.723 445.906 142.588 457.983 141.311C470.061 140.033 481.603 135.657 491.491 128.607V115.419ZM327.661 120.497C323.551 120.495 319.527 121.67 316.064 123.884C312.602 126.098 309.846 129.258 308.124 132.989C307.836 133.597 307.671 134.256 307.638 134.927C307.605 135.599 307.704 136.271 307.93 136.904C308.156 137.537 308.505 138.119 308.957 138.618C309.408 139.116 309.953 139.521 310.561 139.809C311.169 140.097 311.827 140.262 312.499 140.295C313.171 140.328 313.842 140.229 314.475 140.003C315.109 139.776 315.691 139.428 316.19 138.976C316.688 138.525 317.093 137.98 317.38 137.372C318.322 135.283 319.92 133.44 322.009 132.211C323.377 131.426 324.894 130.936 326.463 130.772C328.032 130.609 329.618 130.776 331.118 131.262C332.619 131.748 334.001 132.542 335.176 133.595C336.351 134.647 337.293 135.934 337.941 137.372C338.334 138.226 338.954 138.956 339.734 139.481C340.514 140.006 341.423 140.306 342.363 140.348C343.302 140.39 344.235 140.173 345.059 139.721C345.882 139.268 346.566 138.597 347.034 137.781C347.894 136.266 347.935 134.505 347.198 132.989C345.484 129.252 342.73 126.086 339.266 123.871C335.801 121.656 331.773 120.485 327.661 120.497ZM164.199 136.88C163.527 136.832 162.851 136.916 162.212 137.129C161.572 137.342 160.981 137.678 160.471 138.119C159.961 138.56 159.543 139.098 159.241 139.7C158.939 140.303 158.759 140.959 158.711 141.631C158.662 142.304 158.747 142.979 158.959 143.619C159.172 144.258 159.508 144.85 159.95 145.36C160.391 145.869 160.928 146.287 161.531 146.589C162.133 146.891 162.789 147.071 163.462 147.12C164.82 147.217 166.161 146.772 167.19 145.881C168.219 144.99 168.852 143.726 168.95 142.369C169.048 141.011 168.602 139.67 167.711 138.64C166.82 137.611 165.557 136.978 164.199 136.88ZM327.292 136.88C326.597 136.894 325.912 137.048 325.279 137.335C324.646 137.622 324.077 138.035 323.609 138.548C323.14 139.061 322.781 139.665 322.553 140.322C322.326 140.979 322.234 141.675 322.284 142.368C322.334 143.062 322.525 143.737 322.845 144.355C323.165 144.972 323.607 145.517 324.145 145.958C324.682 146.399 325.304 146.726 325.972 146.918C326.64 147.111 327.34 147.165 328.029 147.079C329.387 146.981 330.651 146.348 331.542 145.319C332.433 144.289 332.878 142.948 332.78 141.59C332.683 140.233 332.05 138.969 331.02 138.078C329.991 137.187 328.65 136.742 327.292 136.839V136.88ZM286.171 142.287C276.733 142.355 267.404 144.304 258.729 148.021C257.464 148.526 256.451 149.513 255.913 150.765C255.375 152.017 255.357 153.431 255.862 154.697C256.367 155.962 257.354 156.975 258.606 157.513C259.858 158.051 261.273 158.069 262.538 157.564C271.204 153.777 280.638 152.083 290.08 152.616C299.522 153.15 308.705 155.897 316.889 160.636C326.061 165.96 333.678 173.594 338.981 182.778C344.284 191.961 347.089 202.374 347.116 212.98C347.116 222.442 344.892 231.772 340.624 240.217C336.355 248.662 330.161 255.985 322.541 261.596C321.466 262.438 320.769 263.673 320.604 265.028C320.438 266.384 320.819 267.75 321.661 268.825C322.502 269.901 323.737 270.598 325.093 270.763C326.448 270.928 327.814 270.548 328.89 269.706C337.732 263.128 344.912 254.571 349.855 244.721C354.798 234.871 357.366 224 357.355 212.98C357.328 200.574 354.05 188.393 347.848 177.65C341.646 166.906 332.737 157.975 322.009 151.748C311.137 145.449 298.775 142.182 286.212 142.287H286.171ZM41.49 142.287C26.6214 142.154 12.0942 146.743 0 155.393L0 168.581C8.61018 160.615 19.3574 155.333 30.9247 153.383C42.4919 151.434 54.3767 152.901 65.1226 157.605C66.1145 158.042 67.2196 158.153 68.2786 157.922C69.3376 157.69 70.2959 157.129 71.0155 156.318C71.7351 155.508 72.1788 154.49 72.2827 153.411C72.3867 152.332 72.1455 151.248 71.5939 150.314C70.9928 149.288 70.0506 148.505 68.9316 148.103C60.2621 144.359 50.9329 142.382 41.49 142.287ZM148.512 143.597C147.676 143.658 146.867 143.924 146.157 144.371C145.447 144.818 144.857 145.433 144.441 146.161C144.024 146.889 143.793 147.708 143.767 148.547C143.741 149.385 143.922 150.217 144.294 150.97C146.147 155.032 149.227 158.412 153.1 160.636C156.366 162.507 160.066 163.492 163.83 163.492C167.595 163.492 171.295 162.507 174.561 160.636C178.434 158.412 181.513 155.032 183.367 150.97C183.697 150.357 183.898 149.683 183.959 148.99C184.019 148.296 183.938 147.598 183.719 146.937C183.5 146.276 183.149 145.667 182.688 145.147C182.226 144.626 181.662 144.205 181.032 143.91C180.402 143.614 179.718 143.45 179.023 143.428C178.327 143.405 177.634 143.525 176.986 143.779C176.339 144.034 175.75 144.418 175.255 144.908C174.761 145.397 174.371 145.983 174.111 146.628C173.205 148.587 171.757 150.245 169.939 151.407C168.121 152.569 166.009 153.187 163.851 153.187C161.693 153.187 159.58 152.569 157.762 151.407C155.944 150.245 154.497 148.587 153.591 146.628C153.162 145.66 152.443 144.848 151.534 144.305C150.624 143.762 149.568 143.515 148.512 143.597ZM98.3392 144.212C97.6265 144.264 96.9326 144.465 96.3023 144.802C95.672 145.139 95.1191 145.604 94.6793 146.167C94.2395 146.73 93.9225 147.379 93.7486 148.072C93.5748 148.765 93.548 149.487 93.67 150.192C94.9331 161.135 98.7394 171.632 104.784 180.842C110.83 190.052 118.946 197.719 128.484 203.232C139.236 209.42 151.425 212.677 163.83 212.677C176.236 212.677 188.425 209.42 199.177 203.232C208.715 197.719 216.831 190.052 222.876 180.842C228.921 171.632 232.728 161.135 233.991 150.192C234.134 149.506 234.135 148.798 233.994 148.112C233.853 147.426 233.572 146.776 233.17 146.203C232.767 145.629 232.252 145.145 231.654 144.779C231.057 144.413 230.391 144.173 229.698 144.075C229.004 143.977 228.298 144.022 227.622 144.207C226.947 144.393 226.317 144.715 225.771 145.154C225.225 145.593 224.775 146.14 224.449 146.759C224.123 147.379 223.927 148.06 223.874 148.758C222.824 158.161 219.579 167.186 214.399 175.105C209.22 183.023 202.252 189.614 194.057 194.344C185.369 199.378 175.563 202.165 165.526 202.454C155.49 202.742 145.54 200.523 136.577 195.997C127.614 191.471 119.921 184.781 114.196 176.532C108.47 168.284 104.893 158.738 103.787 148.758C103.632 147.451 102.98 146.253 101.965 145.414C100.951 144.575 99.6523 144.159 98.3392 144.253V144.212ZM132.416 147.243C131.611 147.291 130.829 147.529 130.134 147.937C129.439 148.345 128.85 148.911 128.415 149.59C127.979 150.268 127.711 151.04 127.63 151.842C127.55 152.644 127.66 153.454 127.952 154.205C130.9 162.922 136.93 170.263 144.908 174.848C150.667 178.154 157.191 179.893 163.83 179.893C170.47 179.893 176.994 178.154 182.753 174.848C190.731 170.263 196.761 162.922 199.709 154.205C199.935 153.571 200.034 152.898 200 152.225C199.965 151.552 199.799 150.893 199.51 150.284C199.221 149.676 198.815 149.13 198.315 148.678C197.815 148.227 197.231 147.878 196.596 147.652C195.962 147.426 195.289 147.328 194.616 147.362C193.943 147.396 193.284 147.562 192.675 147.851C192.067 148.14 191.521 148.546 191.069 149.046C190.618 149.546 190.269 150.13 190.043 150.765C187.912 157.159 183.511 162.55 177.674 165.919C173.464 168.345 168.69 169.622 163.83 169.622C158.971 169.622 154.197 168.345 149.987 165.919C144.15 162.55 139.749 157.159 137.618 150.765C137.265 149.683 136.562 148.75 135.62 148.112C134.679 147.474 133.551 147.168 132.416 147.243ZM115.5 147.57C114.743 147.622 114.006 147.841 113.344 148.213C112.682 148.584 112.11 149.098 111.671 149.717C111.232 150.337 110.936 151.046 110.805 151.794C110.674 152.542 110.711 153.31 110.913 154.042C112.564 161.338 115.71 168.213 120.151 174.233C124.592 180.253 130.232 185.288 136.716 189.019C144.973 193.762 154.329 196.258 163.851 196.258C173.373 196.258 182.729 193.762 190.985 189.019C197.466 185.279 203.101 180.236 207.535 174.209C211.969 168.182 215.106 161.301 216.748 154.001C217.001 153.026 216.962 151.997 216.634 151.045C216.306 150.092 215.704 149.257 214.904 148.645C214.103 148.033 213.14 147.671 212.135 147.603C211.13 147.536 210.127 147.767 209.252 148.267C208.639 148.614 208.105 149.085 207.682 149.648C207.259 150.212 206.957 150.857 206.795 151.543C205.477 157.503 202.931 163.124 199.321 168.046C195.71 172.968 191.114 177.084 185.825 180.132C179.132 183.976 171.549 186 163.83 186C156.112 186 148.529 183.976 141.836 180.132C136.551 177.088 131.958 172.979 128.348 168.064C124.737 163.149 122.189 157.537 120.866 151.584C120.603 150.382 119.916 149.315 118.931 148.577C117.946 147.84 116.728 147.483 115.5 147.57ZM411.624 155.065C410.395 155.065 409.248 155.516 408.347 156.253C399.51 162.827 392.334 171.377 387.391 181.22C382.448 191.062 379.877 201.925 379.882 212.939C379.905 225.34 383.176 237.518 389.371 248.261C395.565 259.005 404.466 267.937 415.187 274.17C424.72 279.689 435.413 282.898 446.409 283.538C457.406 284.178 468.399 282.232 478.508 277.856C479.145 277.616 479.728 277.251 480.223 276.782C480.717 276.314 481.114 275.751 481.388 275.128C481.662 274.504 481.81 273.832 481.821 273.151C481.832 272.47 481.707 271.793 481.454 271.161C481.201 270.528 480.823 269.953 480.345 269.468C479.866 268.983 479.295 268.599 478.666 268.338C478.037 268.076 477.362 267.943 476.681 267.946C475.999 267.949 475.326 268.088 474.699 268.354C466.031 272.154 456.59 273.859 447.141 273.332C437.692 272.806 428.499 270.062 420.307 265.323C411.137 259.991 403.524 252.348 398.228 243.157C392.931 233.965 390.136 223.547 390.121 212.939C390.116 203.48 392.333 194.152 396.595 185.707C400.856 177.262 407.043 169.937 414.655 164.322C415.529 163.685 416.178 162.787 416.511 161.758C416.843 160.728 416.84 159.62 416.504 158.592C416.167 157.564 415.514 156.669 414.637 156.036C413.76 155.402 412.706 155.062 411.624 155.065ZM243.698 155.065C242.605 155.05 241.536 155.385 240.648 156.02C239.759 156.656 239.097 157.559 238.758 158.598C238.419 159.637 238.422 160.757 238.765 161.794C239.109 162.831 239.775 163.731 240.667 164.363C248.279 169.978 254.465 177.303 258.727 185.748C262.988 194.193 265.206 203.52 265.2 212.98C265.174 223.585 262.369 233.998 257.066 243.181C251.763 252.365 244.146 259.999 234.974 265.323C226.79 270.062 217.606 272.809 208.165 273.343C198.723 273.876 189.289 272.182 180.623 268.395C179.636 267.968 178.539 267.863 177.489 268.095C176.439 268.326 175.488 268.883 174.772 269.685C174.055 270.487 173.61 271.495 173.499 272.565C173.387 273.634 173.616 274.712 174.152 275.645C174.735 276.679 175.663 277.476 176.773 277.897C186.882 282.273 197.875 284.219 208.871 283.579C219.868 282.939 230.561 279.73 240.093 274.211C250.822 267.984 259.731 259.053 265.933 248.309C272.135 237.566 275.413 225.385 275.44 212.98C275.451 201.959 272.883 191.088 267.94 181.238C262.997 171.388 255.817 162.831 246.974 156.253C246.051 155.498 244.891 155.092 243.698 155.106V155.065ZM491.491 155.352C482.323 161.912 474.849 170.559 469.685 180.58C464.522 190.601 461.818 201.707 461.797 212.98C461.786 224 464.354 234.871 469.297 244.721C474.24 254.571 481.42 263.128 490.262 269.706C490.672 270.033 491.082 270.279 491.491 270.443V257.418C485.35 251.761 480.449 244.89 477.1 237.241C473.752 229.591 472.027 221.33 472.036 212.98C472.036 196.023 479.286 179.886 491.491 168.581V155.352ZM286.826 158.629C281.34 158.629 275.886 159.457 270.648 161.086C270.002 161.274 269.4 161.588 268.876 162.009C268.352 162.43 267.916 162.95 267.592 163.539C266.939 164.73 266.786 166.131 267.166 167.435C267.547 168.738 268.429 169.837 269.62 170.49C270.81 171.143 272.211 171.296 273.515 170.916C279.334 169.079 285.472 168.476 291.537 169.146C297.602 169.816 303.461 171.744 308.738 174.807C315.412 178.699 320.951 184.27 324.803 190.967C328.654 197.665 330.685 205.254 330.692 212.98C330.697 219.08 329.433 225.114 326.979 230.699C324.525 236.284 320.935 241.296 316.438 245.418C315.913 245.873 315.485 246.429 315.182 247.055C314.879 247.68 314.706 248.36 314.674 249.054C314.642 249.748 314.752 250.442 314.996 251.092C315.241 251.743 315.615 252.336 316.097 252.837C316.578 253.338 317.157 253.736 317.797 254.006C318.437 254.277 319.126 254.414 319.821 254.409C320.516 254.405 321.202 254.259 321.839 253.981C322.476 253.702 323.049 253.297 323.524 252.79C329.023 247.718 333.412 241.563 336.415 234.711C339.418 227.859 340.969 220.46 340.972 212.98C340.956 203.446 338.44 194.083 333.675 185.825C328.91 177.568 322.063 170.704 313.817 165.919C305.612 161.175 296.303 158.675 286.826 158.67V158.629ZM40.8347 158.67C33.083 158.672 25.423 160.346 18.3763 163.576C11.3296 166.806 5.06185 171.517 0 177.387L0 196.924C3.6395 187.62 10.324 179.824 18.9634 174.807C24.244 171.751 30.104 169.83 36.1691 169.167C42.2341 168.504 48.3708 169.114 54.1869 170.957C54.8428 171.18 55.5371 171.267 56.2277 171.213C56.9183 171.16 57.5908 170.967 58.2046 170.646C58.8184 170.325 59.3607 169.882 59.7986 169.346C60.2365 168.809 60.561 168.189 60.7524 167.523C60.9438 166.858 60.9981 166.16 60.912 165.473C60.826 164.786 60.6014 164.123 60.2518 163.525C59.9022 162.927 59.4349 162.406 58.8782 161.994C58.3215 161.582 57.687 161.287 57.013 161.127C51.7747 159.498 46.3205 158.67 40.8347 158.67ZM417.276 171.612C415.883 171.612 414.573 172.186 413.672 173.128C408.18 178.203 403.799 184.361 400.803 191.212C397.807 198.063 396.262 205.461 396.265 212.939C396.277 222.468 398.786 231.828 403.544 240.086C408.301 248.343 415.14 255.209 423.379 259.999C429.854 263.751 437.039 266.119 444.477 266.951C451.915 267.783 459.444 267.061 466.589 264.832C467.892 264.452 468.992 263.569 469.644 262.379C470.297 261.188 470.451 259.787 470.07 258.483C469.69 257.18 468.808 256.081 467.617 255.428C466.427 254.775 465.025 254.622 463.722 255.002C457.903 256.837 451.765 257.438 445.7 256.768C439.635 256.098 433.777 254.171 428.498 251.111C421.823 247.228 416.28 241.665 412.421 234.975C408.563 228.286 406.523 220.702 406.504 212.98C406.499 206.879 407.763 200.845 410.217 195.26C412.671 189.675 416.26 184.663 420.757 180.541C421.517 179.842 422.048 178.93 422.28 177.925C422.512 176.919 422.435 175.867 422.059 174.906C421.682 173.945 421.024 173.12 420.171 172.539C419.317 171.959 418.308 171.65 417.276 171.653V171.612ZM238.005 171.612C236.967 171.608 235.953 171.92 235.096 172.505C234.239 173.091 233.581 173.923 233.208 174.891C232.835 175.859 232.765 176.918 233.007 177.927C233.249 178.936 233.792 179.848 234.564 180.541C239.061 184.663 242.651 189.675 245.105 195.26C247.559 200.845 248.823 206.879 248.817 212.98C248.799 220.702 246.759 228.286 242.9 234.975C239.042 241.665 233.499 247.228 226.823 251.111C221.546 254.174 215.687 256.102 209.622 256.772C203.557 257.442 197.419 256.839 191.6 255.002C190.954 254.814 190.278 254.754 189.61 254.828C188.941 254.901 188.294 255.105 187.704 255.428C187.115 255.751 186.595 256.187 186.174 256.712C185.753 257.236 185.439 257.838 185.251 258.483C185.063 259.129 185.004 259.805 185.077 260.473C185.15 261.142 185.354 261.789 185.677 262.379C186 262.968 186.437 263.488 186.961 263.909C187.485 264.33 188.087 264.644 188.733 264.832C195.871 267.055 203.394 267.774 210.824 266.942C218.254 266.11 225.432 263.746 231.902 259.999C240.142 255.218 246.985 248.36 251.75 240.111C256.514 231.861 259.034 222.506 259.057 212.98C259.065 205.495 257.522 198.09 254.527 191.231C251.531 184.372 247.146 178.208 241.65 173.128C241.179 172.65 240.618 172.269 239.999 172.009C239.381 171.749 238.717 171.614 238.046 171.612H238.005ZM285.925 175.053C283.713 175.094 281.502 175.38 279.331 175.79C278.282 175.952 277.309 176.437 276.548 177.176C275.786 177.915 275.273 178.873 275.08 179.916C274.887 180.96 275.022 182.038 275.468 183.001C275.914 183.964 276.649 184.765 277.57 185.292C278.716 185.948 279.986 186.111 281.174 185.866C287.787 184.511 294.667 185.633 300.506 189.019C304.707 191.454 308.196 194.948 310.625 199.152C313.054 203.356 314.338 208.124 314.35 212.98C314.35 220.024 311.728 226.455 307.387 231.329C306.733 232.065 306.305 232.975 306.155 233.949C306.005 234.922 306.139 235.918 306.541 236.818C306.943 237.717 307.596 238.481 308.422 239.019C309.248 239.556 310.211 239.844 311.196 239.848C312.834 239.848 314.268 239.11 315.169 237.964C321.247 231.061 324.596 222.177 324.589 212.98C324.573 206.325 322.814 199.791 319.487 194.027C316.159 188.264 311.38 183.473 305.626 180.132C299.661 176.672 292.86 174.915 285.966 175.053H285.925ZM41.7358 175.053C34.8197 174.932 28.0039 176.718 22.0352 180.213C16.2923 183.548 11.521 188.326 8.19459 194.074C4.86816 199.821 3.10218 206.339 3.07182 212.98C3.07182 222.564 6.63513 231.288 12.4921 237.964C13.1657 238.771 14.0718 239.352 15.0871 239.627C16.1024 239.901 17.1776 239.857 18.1666 239.499C19.1556 239.141 20.0103 238.487 20.6146 237.626C21.2188 236.765 21.5432 235.739 21.5437 234.687C21.5437 233.458 21.0932 232.23 20.274 231.329C15.7806 226.274 13.3024 219.743 13.3112 212.98C13.3112 203.15 18.6357 193.934 27.1549 189.019C32.9941 185.633 39.8742 184.511 46.4869 185.866C47.1484 185.987 47.8274 185.976 48.4849 185.835C49.1424 185.693 49.7657 185.424 50.319 185.042C50.8724 184.659 51.3451 184.172 51.7101 183.607C52.075 183.042 52.3252 182.411 52.4462 181.749C52.5672 181.088 52.5568 180.409 52.4154 179.751C52.274 179.094 52.0045 178.471 51.6223 177.917C51.2401 177.364 50.7526 176.891 50.1877 176.526C49.6228 176.161 48.9915 175.911 48.33 175.79C46.1583 175.348 43.9514 175.102 41.7358 175.053ZM491.491 177.387C482.938 187.26 478.214 199.876 478.18 212.939C478.154 226.037 482.884 238.699 491.491 248.572V229.158C487.391 218.776 487.391 207.224 491.491 196.842V177.346V177.387ZM426 186.07C424.403 186.07 422.969 186.849 422.027 187.995C415.949 194.898 412.6 203.782 412.607 212.98C412.63 219.627 414.393 226.153 417.719 231.908C421.046 237.664 425.821 242.448 431.57 245.787C439.525 250.399 448.892 251.943 457.906 250.128C458.568 250.007 459.199 249.757 459.764 249.392C460.329 249.027 460.816 248.554 461.198 248.001C461.581 247.448 461.85 246.824 461.991 246.167C462.133 245.509 462.143 244.83 462.022 244.169C461.901 243.507 461.651 242.876 461.286 242.311C460.921 241.746 460.448 241.259 459.895 240.876C459.342 240.494 458.718 240.225 458.061 240.083C457.403 239.942 456.724 239.931 456.063 240.052C449.442 241.43 442.546 240.322 436.69 236.94C432.491 234.496 429.006 230.994 426.584 226.782C424.162 222.57 422.887 217.797 422.887 212.939C422.887 205.935 425.508 199.504 429.85 194.631C430.506 193.891 430.935 192.978 431.083 192C431.232 191.023 431.094 190.023 430.687 189.123C430.28 188.222 429.621 187.458 428.789 186.924C427.957 186.389 426.989 186.107 426 186.111V186.07ZM229.363 186.111C228.374 186.107 227.405 186.389 226.573 186.924C225.742 187.458 225.082 188.222 224.675 189.123C224.268 190.023 224.131 191.023 224.279 192C224.428 192.978 224.856 193.891 225.513 194.631C230.006 199.685 232.484 206.216 232.475 212.98C232.475 222.809 227.151 232.025 218.673 236.94C212.822 240.336 205.925 241.459 199.3 240.093C198.638 239.972 197.959 239.983 197.302 240.124C196.644 240.266 196.021 240.535 195.468 240.917C194.914 241.3 194.441 241.787 194.076 242.352C193.712 242.917 193.461 243.548 193.34 244.21C193.219 244.871 193.23 245.55 193.371 246.208C193.513 246.865 193.782 247.488 194.164 248.042C194.546 248.595 195.034 249.068 195.599 249.433C196.164 249.798 196.795 250.048 197.457 250.169C206.14 251.889 215.478 250.579 223.792 245.828C229.532 242.476 234.294 237.68 237.607 231.918C240.919 226.155 242.666 219.626 242.674 212.98C242.674 203.395 239.11 194.671 233.254 187.995C232.773 187.406 232.167 186.931 231.48 186.605C230.792 186.279 230.041 186.111 229.281 186.111H229.363ZM286.376 191.436C285.802 191.436 285.27 191.477 284.737 191.559C284.053 191.595 283.383 191.769 282.767 192.07C282.151 192.371 281.601 192.792 281.151 193.309C280.701 193.826 280.359 194.428 280.146 195.079C279.933 195.731 279.853 196.418 279.91 197.101C279.968 197.784 280.162 198.449 280.481 199.055C280.801 199.662 281.238 200.198 281.769 200.632C282.299 201.067 282.911 201.39 283.569 201.583C284.227 201.776 284.916 201.836 285.597 201.757C287.752 201.559 289.918 201.984 291.839 202.981C293.759 203.978 295.353 205.505 296.431 207.381C297.509 209.257 298.027 211.403 297.921 213.565C297.816 215.726 297.092 217.811 295.837 219.574C295.455 220.128 295.186 220.751 295.045 221.409C294.904 222.067 294.894 222.747 295.016 223.408C295.138 224.07 295.389 224.702 295.754 225.266C296.12 225.831 296.593 226.318 297.147 226.7C297.701 227.082 298.325 227.351 298.983 227.492C299.641 227.633 300.32 227.643 300.982 227.521C301.644 227.399 302.275 227.148 302.84 226.783C303.405 226.417 303.892 225.944 304.274 225.39C306.855 221.766 308.243 217.428 308.247 212.98C308.247 205.32 304.11 198.153 297.475 194.344C294.093 192.388 290.24 191.397 286.335 191.477L286.376 191.436ZM41.4081 191.477C37.5991 191.395 33.7491 192.337 30.2677 194.344C26.9909 196.231 24.2674 198.945 22.3698 202.216C20.4721 205.487 19.467 209.198 19.4549 212.98C19.4498 217.442 20.8387 221.795 23.4277 225.431C23.8123 225.985 24.3022 226.457 24.8695 226.822C25.4369 227.187 26.0704 227.436 26.7341 227.556C27.3978 227.676 28.0785 227.664 28.7375 227.52C29.3965 227.377 30.0208 227.105 30.5748 226.721C31.1288 226.336 31.6017 225.846 31.9663 225.279C32.331 224.712 32.5803 224.078 32.7001 223.414C32.8199 222.751 32.8079 222.07 32.6646 221.411C32.5213 220.752 32.2496 220.128 31.865 219.574C30.6094 217.811 29.886 215.726 29.7806 213.565C29.6752 211.403 30.1923 209.257 31.2705 207.381C32.3487 205.505 33.9426 203.978 35.8631 202.981C37.7835 201.984 39.9497 201.559 42.1044 201.757C42.7798 201.827 43.4624 201.763 44.1124 201.566C44.7625 201.37 45.3671 201.047 45.891 200.615C46.4148 200.183 46.8476 199.651 47.1639 199.05C47.4803 198.45 47.674 197.792 47.7338 197.115C47.7935 196.439 47.7182 195.758 47.512 195.111C47.3059 194.464 46.9731 193.864 46.5331 193.347C46.0931 192.83 45.5546 192.406 44.949 192.098C44.3433 191.791 43.6827 191.608 43.0055 191.559C42.4603 191.515 41.914 191.488 41.3672 191.477H41.4081ZM437.263 198.276C435.502 198.276 433.987 199.136 433.004 200.528C430.429 204.168 429.055 208.521 429.072 212.98C429.08 216.752 430.074 220.457 431.957 223.726C433.839 226.995 436.544 229.715 439.803 231.615C443.667 233.856 448.136 234.83 452.581 234.4C453.254 234.341 453.908 234.15 454.506 233.838C455.105 233.526 455.636 233.099 456.07 232.582C456.503 232.065 456.831 231.467 457.033 230.824C457.236 230.18 457.31 229.502 457.251 228.83C457.191 228.158 457 227.504 456.689 226.905C456.377 226.307 455.95 225.775 455.433 225.342C454.915 224.908 454.318 224.581 453.674 224.378C453.03 224.176 452.353 224.102 451.68 224.161C449.532 224.352 447.374 223.925 445.461 222.929C443.548 221.934 441.96 220.412 440.883 218.544C439.807 216.675 439.287 214.537 439.386 212.383C439.485 210.229 440.198 208.148 441.441 206.385C441.992 205.619 442.321 204.715 442.391 203.774C442.461 202.832 442.269 201.89 441.836 201.051C441.404 200.212 440.748 199.508 439.941 199.019C439.134 198.529 438.207 198.272 437.263 198.276ZM218.14 198.276C217.196 198.272 216.269 198.529 215.462 199.019C214.655 199.508 213.999 200.212 213.567 201.051C213.135 201.89 212.943 202.832 213.013 203.774C213.082 204.715 213.411 205.619 213.963 206.385C215.218 208.148 215.941 210.233 216.047 212.394C216.152 214.556 215.635 216.702 214.557 218.578C213.479 220.454 211.885 221.981 209.964 222.978C208.044 223.975 205.878 224.4 203.723 224.202C203.051 224.143 202.373 224.217 201.73 224.419C201.086 224.622 200.488 224.949 199.971 225.383C199.454 225.816 199.027 226.348 198.715 226.946C198.403 227.545 198.212 228.199 198.153 228.871C198.094 229.543 198.168 230.221 198.37 230.865C198.573 231.508 198.9 232.106 199.334 232.623C199.767 233.14 200.299 233.567 200.897 233.879C201.496 234.191 202.15 234.382 202.822 234.441C207.123 234.851 211.587 233.95 215.601 231.574C218.849 229.675 221.544 226.96 223.419 223.699C225.294 220.437 226.284 216.742 226.291 212.98C226.291 208.351 224.816 204.051 222.318 200.528C221.851 199.838 221.223 199.272 220.488 198.879C219.753 198.487 218.933 198.279 218.099 198.276H218.14ZM40.9576 207.86C39.5998 207.86 38.2976 208.399 37.3374 209.359C36.3773 210.319 35.8379 211.622 35.8379 212.98C35.8379 214.337 36.3773 215.64 37.3374 216.6C38.2976 217.56 39.5998 218.099 40.9576 218.099C42.3154 218.099 43.6176 217.56 44.5778 216.6C45.5379 215.64 46.0773 214.337 46.0773 212.98C46.0773 211.622 45.5379 210.319 44.5778 209.359C43.6176 208.399 42.3154 207.86 40.9576 207.86ZM450.534 207.86C449.176 207.86 447.874 208.399 446.913 209.359C445.953 210.319 445.414 211.622 445.414 212.98C445.414 214.337 445.953 215.64 446.913 216.6C447.874 217.56 449.176 218.099 450.534 218.099C451.891 218.099 453.194 217.56 454.154 216.6C455.114 215.64 455.653 214.337 455.653 212.98C455.653 211.622 455.114 210.319 454.154 209.359C453.194 208.399 451.891 207.86 450.534 207.86ZM205.157 207.86C203.799 207.762 202.458 208.208 201.428 209.099C200.399 209.99 199.766 211.253 199.668 212.611C199.571 213.969 200.016 215.31 200.907 216.339C201.798 217.368 203.062 218.001 204.419 218.099C205.092 218.148 205.767 218.063 206.407 217.851C207.046 217.638 207.638 217.302 208.148 216.86C208.657 216.419 209.075 215.882 209.377 215.279C209.679 214.677 209.859 214.02 209.908 213.348C209.956 212.676 209.872 212.001 209.659 211.361C209.446 210.721 209.11 210.13 208.669 209.62C208.228 209.11 207.69 208.693 207.088 208.391C206.485 208.089 205.829 207.908 205.157 207.86ZM286.335 207.86C285.662 207.908 285.006 208.089 284.403 208.391C283.801 208.693 283.264 209.11 282.822 209.62C282.381 210.13 282.045 210.721 281.832 211.361C281.62 212.001 281.535 212.676 281.583 213.348C281.632 214.02 281.812 214.677 282.114 215.279C282.416 215.882 282.834 216.419 283.344 216.86C283.853 217.302 284.445 217.638 285.085 217.851C285.724 218.063 286.399 218.148 287.072 218.099C288.43 218.001 289.693 217.368 290.584 216.339C291.475 215.31 291.921 213.969 291.823 212.611C291.725 211.253 291.092 209.99 290.063 209.099C289.033 208.208 287.692 207.762 286.335 207.86ZM81.9562 213.307C64.62 213.273 47.8778 219.621 34.9227 231.141C21.9675 242.661 13.706 258.546 11.7139 275.768C11.5513 276.727 11.6652 277.712 12.0424 278.609C12.4197 279.505 13.0445 280.276 13.8438 280.83C14.6431 281.385 15.5838 281.7 16.5558 281.739C17.5278 281.778 18.4907 281.539 19.332 281.051C20.0245 280.644 20.6115 280.08 21.0455 279.404C21.4795 278.728 21.7484 277.959 21.8304 277.16C22.891 267.76 26.1458 258.741 31.3321 250.83C36.5185 242.918 43.4914 236.337 51.6885 231.615C60.8791 226.333 71.2942 223.553 81.8947 223.553C92.4952 223.553 102.91 226.333 112.101 231.615C120.296 236.345 127.264 242.936 132.443 250.854C137.622 258.773 140.868 267.798 141.918 277.201C141.971 277.9 142.166 278.58 142.493 279.2C142.819 279.819 143.269 280.366 143.815 280.805C144.361 281.244 144.991 281.566 145.666 281.752C146.342 281.937 147.048 281.982 147.742 281.884C148.435 281.786 149.101 281.546 149.698 281.18C150.296 280.814 150.811 280.33 151.214 279.756C151.616 279.183 151.897 278.533 152.038 277.847C152.179 277.161 152.178 276.453 152.035 275.768C150.045 258.567 141.801 242.699 128.872 231.182C115.942 219.665 99.2302 213.303 81.9152 213.307H81.9562ZM0 229.158V248.572C1.28747 250.064 2.65472 251.486 4.09576 252.831C4.80946 253.555 5.72241 254.05 6.71833 254.253C7.71425 254.456 8.74806 254.358 9.68809 253.971C10.6281 253.585 11.4318 252.927 11.9968 252.082C12.5618 251.237 12.8625 250.243 12.8607 249.227C12.8607 247.712 12.2054 246.36 11.2224 245.459C6.2963 240.944 2.45912 235.371 0 229.158H0ZM81.9152 229.69C69.609 229.668 57.6621 233.838 48.0431 241.514C38.4241 249.19 31.7068 259.913 28.998 271.917C28.6721 273.237 28.8839 274.633 29.5867 275.796C30.2895 276.96 31.4258 277.797 32.7456 278.123C34.0654 278.448 35.4606 278.237 36.6243 277.534C37.788 276.831 38.6248 275.695 38.9507 274.375C40.2689 268.415 42.8144 262.794 46.4249 257.872C50.0354 252.95 54.6318 248.834 59.921 245.787C66.6183 241.934 74.2094 239.907 81.9357 239.907C89.662 239.907 97.253 241.934 103.95 245.787C109.236 248.843 113.828 252.967 117.431 257.896C121.035 262.826 123.571 268.452 124.88 274.416C125.108 275.418 125.633 276.329 126.386 277.029C127.139 277.729 128.085 278.187 129.102 278.341C130.118 278.496 131.158 278.341 132.085 277.897C133.012 277.452 133.784 276.739 134.3 275.849C135.037 274.621 135.16 273.228 134.832 271.958C132.132 259.946 125.418 249.214 115.798 241.53C106.178 233.846 94.2271 229.67 81.9152 229.69ZM81.9152 246.073C73.9975 246.052 66.2735 248.52 59.8351 253.128C53.3967 257.737 48.5696 264.252 46.0363 271.754C45.5801 273.035 45.6518 274.446 46.2355 275.675C46.8193 276.904 47.8673 277.851 49.1491 278.307C50.4309 278.763 51.8414 278.691 53.0704 278.108C54.2994 277.524 55.2461 276.476 55.7023 275.194C57.8355 268.778 62.2522 263.371 68.1125 259.999C72.318 257.58 77.0844 256.308 81.9357 256.308C86.787 256.308 91.5534 257.58 95.7589 259.999C101.604 263.378 106.005 268.785 108.128 275.194C108.439 276.132 109.014 276.96 109.785 277.577C110.556 278.195 111.489 278.577 112.472 278.677C113.454 278.776 114.445 278.589 115.324 278.139C116.203 277.688 116.933 276.992 117.425 276.136C118.245 274.744 118.326 273.146 117.794 271.754C115.261 264.252 110.434 257.737 103.995 253.128C97.5569 248.52 89.8329 246.052 81.9152 246.073ZM0 257.418V270.443C1.15128 270.934 2.44242 270.986 3.62945 270.589C4.81648 270.193 5.81717 269.375 6.44243 268.291C7.06768 267.207 7.27419 265.931 7.02293 264.705C6.77167 263.479 6.08004 262.388 5.07874 261.637C3.3091 260.311 1.61363 258.889 0 257.378L0 257.418ZM81.9152 262.456C77.801 262.457 73.7734 263.639 70.3105 265.86C66.8476 268.082 64.0946 271.25 62.3784 274.989C62.0488 275.602 61.8476 276.276 61.7871 276.969C61.7266 277.663 61.8081 278.361 62.0266 279.022C62.2452 279.683 62.5961 280.292 63.0581 280.812C63.52 281.333 64.0833 281.754 64.7134 282.049C65.3435 282.345 66.0272 282.509 66.7228 282.531C67.4185 282.554 68.1113 282.434 68.7591 282.18C69.4069 281.925 69.996 281.541 70.4905 281.051C70.9849 280.562 71.3743 279.976 71.6348 279.331C72.5357 277.361 73.9835 275.691 75.8061 274.521C77.6286 273.35 79.7491 272.728 81.9152 272.728C84.0813 272.728 86.2018 273.35 88.0243 274.521C89.8469 275.691 91.2947 277.361 92.1956 279.331C92.4561 279.976 92.8455 280.562 93.3399 281.051C93.8344 281.541 94.4235 281.925 95.0713 282.18C95.7191 282.434 96.4119 282.554 97.1076 282.531C97.8032 282.509 98.4869 282.345 99.117 282.049C99.7471 281.754 100.31 281.333 100.772 280.812C101.234 280.292 101.585 279.683 101.804 279.022C102.022 278.361 102.104 277.663 102.043 276.969C101.983 276.276 101.782 275.602 101.452 274.989C99.744 271.244 96.993 268.07 93.5283 265.847C90.0635 263.625 86.0316 262.447 81.9152 262.456ZM81.5466 278.839C80.2536 278.933 79.0442 279.513 78.1624 280.463C77.2806 281.413 76.7921 282.663 76.7955 283.959H87.0349C87.0367 283.255 86.8931 282.557 86.6131 281.911C86.3331 281.264 85.9226 280.683 85.4075 280.202C84.8923 279.721 84.2835 279.352 83.6192 279.118C82.9548 278.883 82.2493 278.789 81.5466 278.839ZM409.945 278.839C409.241 278.782 408.532 278.873 407.865 279.105C407.198 279.337 406.587 279.706 406.07 280.188C405.554 280.67 405.144 281.254 404.866 281.903C404.588 282.553 404.448 283.253 404.456 283.959H414.696C414.709 282.66 414.224 281.405 413.34 280.453C412.456 279.5 411.241 278.923 409.945 278.839Z" fill="white"/>
</g>
</g>
<defs>
<clipPath id="clip0_5045_1126">
<rect width="456" height="260" fill="white"/>
</clipPath>
</defs>
</svg>
