<svg width="456" height="260" viewBox="0 0 456 260" fill="none" xmlns="http://www.w3.org/2000/svg">
<path d="M76.7955 0C76.7955 1.35783 77.3349 2.66004 78.295 3.62017C79.2551 4.5803 80.5574 5.1197 81.9152 5.1197C83.273 5.1197 84.5752 4.5803 85.5354 3.62017C86.4955 2.66004 87.0349 1.35783 87.0349 0H76.7955ZM404.456 0C404.456 1.35783 404.996 2.66004 405.956 3.62017C406.916 4.5803 408.218 5.1197 409.576 5.1197C410.934 5.1197 412.236 4.5803 413.196 3.62017C414.156 2.66004 414.696 1.35783 414.696 0H404.456ZM287.195 0.286703C274.631 0.182201 262.269 3.44945 251.398 9.74791C240.669 15.9755 231.76 24.9061 225.558 35.6496C219.356 46.3932 216.079 58.5745 216.051 70.9795C216.04 82.0004 218.609 92.8709 223.552 102.721C228.494 112.571 235.674 121.128 244.517 127.706C245.047 128.12 245.653 128.426 246.301 128.606C246.949 128.785 247.626 128.836 248.293 128.754C248.961 128.672 249.606 128.46 250.191 128.129C250.776 127.798 251.291 127.355 251.705 126.825C252.119 126.295 252.425 125.689 252.605 125.041C252.785 124.393 252.835 123.716 252.753 123.049C252.672 122.381 252.459 121.736 252.128 121.151C251.797 120.566 251.354 120.051 250.824 119.637C243.207 114.018 237.017 106.686 232.755 98.2338C228.494 89.7815 226.279 80.4455 226.291 70.9795C226.313 60.3784 229.112 49.9681 234.408 40.7846C239.703 31.6012 247.312 23.9648 256.476 18.6357C264.669 13.8969 273.861 11.1532 283.31 10.6267C292.76 10.1001 302.2 11.8055 310.868 15.6048C311.86 16.0418 312.965 16.1527 314.024 15.9215C315.083 15.6903 316.042 15.129 316.761 14.3183C317.481 13.5077 317.924 12.4895 318.028 11.4106C318.132 10.3316 317.891 9.24751 317.339 8.31439C316.736 7.29045 315.794 6.50851 314.677 6.10268C306.008 2.35889 296.679 0.381671 287.236 0.286703H287.195ZM40.4661 0.286703C31.0066 0.389169 21.6629 2.38045 12.9836 6.14364C12.2824 6.3306 11.629 6.66446 11.0667 7.12311C10.5044 7.58175 10.046 8.15469 9.72189 8.80394C9.3978 9.45319 9.21543 10.1639 9.18687 10.889C9.15831 11.6141 9.28422 12.337 9.55623 13.0097C9.82825 13.6824 10.2402 14.2896 10.7647 14.7911C11.2892 15.2925 11.9143 15.6768 12.5986 15.9183C13.2828 16.1598 14.0106 16.2531 14.7337 16.192C15.4568 16.1309 16.1586 15.9168 16.7926 15.5639C25.455 11.7713 34.888 10.0696 44.3295 10.5961C53.7711 11.1226 62.9564 13.8626 71.1433 18.5947C80.3152 23.9187 87.9322 31.5528 93.2355 40.7366C98.5388 49.9205 101.343 60.3335 101.37 70.9386C101.382 80.4045 99.1672 89.7406 94.9055 98.1929C90.6437 106.645 84.4541 113.977 76.8365 119.596C76.3067 120.01 75.8636 120.525 75.5326 121.11C75.2017 121.696 74.9892 122.34 74.9075 123.008C74.8257 123.675 74.8762 124.352 75.0561 125C75.236 125.648 75.5417 126.254 75.9559 126.784C76.37 127.314 76.8845 127.757 77.4698 128.088C78.0552 128.419 78.7 128.631 79.3675 128.713C80.035 128.795 80.712 128.745 81.36 128.565C82.0079 128.385 82.6141 128.079 83.1439 127.665C91.9864 121.087 99.1664 112.53 104.109 102.68C109.052 92.8299 111.621 81.9594 111.609 70.9386C111.561 58.5544 108.273 46.3984 102.072 35.6783C95.8714 24.9581 86.9737 16.0469 76.2631 9.82982C65.3997 3.50273 53.0374 0.207063 40.4661 0.286703ZM394.258 1.6383C393.421 1.69929 392.612 1.96497 391.902 2.41196C391.192 2.85895 390.603 3.47356 390.186 4.20172C389.77 4.92988 389.538 5.74927 389.513 6.58783C389.487 7.42638 389.668 8.25839 390.039 9.01067C391.885 13.0658 394.948 16.4446 398.804 18.6767C402.076 20.5559 405.783 21.5449 409.556 21.5449C413.328 21.5449 417.035 20.5559 420.307 18.6767C424.178 16.4512 427.257 13.0717 429.113 9.01067C429.688 7.77776 429.751 6.36665 429.286 5.08775C428.821 3.80886 427.868 2.76695 426.635 2.19123C425.402 1.61551 423.991 1.55314 422.712 2.01785C421.433 2.48255 420.391 3.43626 419.815 4.66917C418.905 6.61619 417.458 8.26318 415.644 9.41701C413.83 10.5709 411.725 11.1837 409.576 11.1837C407.426 11.1837 405.322 10.5709 403.508 9.41701C401.694 8.26318 400.247 6.61619 399.337 4.66917C398.908 3.70064 398.189 2.88902 397.279 2.34619C396.37 1.80335 395.314 1.55603 394.258 1.6383ZM344.085 2.21171C343.369 2.25867 342.67 2.45572 342.035 2.79008C341.4 3.12444 340.842 3.58863 340.398 4.15252C339.954 4.71641 339.633 5.3674 339.457 6.06323C339.281 6.75906 339.253 7.48418 339.375 8.19152C340.639 19.1401 344.45 29.6404 350.503 38.851C356.556 48.0616 364.682 55.7265 374.23 61.2316C384.977 67.4126 397.158 70.6656 409.556 70.6656C421.953 70.6656 434.134 67.4126 444.881 61.2316C454.429 55.7265 462.555 48.0616 468.608 38.851C474.661 29.6404 478.472 19.1401 479.736 8.19152C479.88 7.50587 479.881 6.79811 479.74 6.11203C479.598 5.42594 479.318 4.77613 478.915 4.2028C478.513 3.62947 477.997 3.14481 477.4 2.77882C476.803 2.41282 476.137 2.17328 475.443 2.075C474.75 1.97673 474.043 2.02182 473.368 2.20748C472.693 2.39313 472.062 2.71541 471.517 3.15438C470.971 3.59334 470.521 4.13964 470.194 4.75949C469.868 5.37933 469.673 6.05953 469.62 6.758C468.565 16.1652 465.313 25.1927 460.127 33.1114C454.94 41.0302 447.964 47.6183 439.762 52.3438C430.571 57.6261 420.156 60.406 409.556 60.406C398.955 60.406 388.54 57.6261 379.349 52.3438C371.155 47.6135 364.187 41.0233 359.007 33.1049C353.828 25.1865 350.582 16.1615 349.532 6.758C349.377 5.45073 348.725 4.25326 347.711 3.41428C346.696 2.57531 345.398 2.1593 344.085 2.25267V2.21171ZM378.121 5.24257C377.319 5.29722 376.542 5.53953 375.852 5.94992C375.162 6.36032 374.578 6.9273 374.148 7.60505C373.717 8.28281 373.452 9.05234 373.374 9.85148C373.295 10.6506 373.406 11.457 373.697 12.2054C376.652 20.8853 382.665 28.1934 390.613 32.7661C396.376 36.0793 402.908 37.8229 409.556 37.8229C416.203 37.8229 422.735 36.0793 428.498 32.7661C436.461 28.1734 442.476 20.8338 445.414 12.1234C445.701 11.4781 445.851 10.7803 445.855 10.0741C445.859 9.36789 445.717 8.66846 445.438 8.01979C445.158 7.37112 444.748 6.78724 444.232 6.30488C443.716 5.82251 443.106 5.45208 442.44 5.21688C441.774 4.98169 441.067 4.88681 440.363 4.93821C439.658 4.98962 438.972 5.18619 438.348 5.51558C437.723 5.84497 437.173 6.30004 436.733 6.85219C436.292 7.40434 435.971 8.04163 435.789 8.72397C433.647 15.1244 429.231 20.5165 423.379 23.8783C419.173 26.2968 414.407 27.5696 409.556 27.5696C404.704 27.5696 399.938 26.2968 395.732 23.8783C389.88 20.5165 385.464 15.1244 383.322 8.72397C382.97 7.64241 382.267 6.70905 381.325 6.07122C380.383 5.43339 379.256 5.12742 378.121 5.20161V5.24257ZM361.246 5.57023C360.493 5.62309 359.761 5.84181 359.102 6.21071C358.444 6.57962 357.875 7.0896 357.437 7.70411C356.998 8.31863 356.701 9.02248 356.567 9.76526C356.432 10.508 356.464 11.2714 356.659 12.0006C358.305 19.3044 361.448 26.1875 365.889 32.215C370.331 38.2425 375.974 43.2834 382.462 47.0193C390.714 51.7549 400.062 54.2467 409.576 54.2467C419.09 54.2467 428.438 51.7549 436.69 47.0193C443.178 43.2834 448.821 38.2425 453.263 32.215C457.704 26.1875 460.847 19.3044 462.493 12.0006C462.819 10.6808 462.607 9.28556 461.905 8.12188C461.202 6.9582 460.065 6.12138 458.746 5.7955C457.426 5.46962 456.031 5.68138 454.867 6.3842C453.703 7.08701 452.866 8.22331 452.54 9.54312C451.222 15.5034 448.677 21.1238 445.066 26.0459C441.456 30.968 436.859 35.084 431.57 38.1315C424.873 41.9839 417.282 44.0114 409.556 44.0114C401.829 44.0114 394.238 41.9839 387.541 38.1315C382.256 35.0885 377.662 30.9789 374.052 26.0641C370.442 21.1494 367.894 15.537 366.57 9.58408C366.309 8.38933 365.628 7.32776 364.651 6.59151C363.675 5.85526 362.467 5.49298 361.246 5.57023ZM489.443 13.1064C488.362 13.1034 487.307 13.443 486.43 14.0765C485.553 14.7101 484.9 15.605 484.563 16.633C484.227 17.6609 484.224 18.7691 484.557 19.7985C484.889 20.8278 485.538 21.7256 486.412 22.3628C488.174 23.6735 489.894 25.066 491.491 26.5815V13.516C490.877 13.2293 490.181 13.0655 489.443 13.0655V13.1064ZM165.878 13.1064C164.65 13.1064 163.503 13.516 162.602 14.2942C153.765 20.8681 146.588 29.418 141.646 39.2606C136.703 49.1032 134.131 59.9656 134.136 70.9795C134.159 83.3806 137.431 95.5592 143.625 106.302C149.82 117.046 158.721 125.978 169.442 132.211C178.974 137.73 189.667 140.939 200.664 141.579C211.66 142.219 222.654 140.273 232.762 135.897C233.386 135.645 233.954 135.271 234.434 134.799C234.913 134.327 235.295 133.764 235.558 133.145C235.82 132.525 235.958 131.859 235.963 131.186C235.968 130.513 235.841 129.845 235.588 129.221C235.335 128.597 234.962 128.029 234.49 127.55C234.017 127.07 233.455 126.688 232.835 126.426C232.215 126.163 231.55 126.025 230.877 126.02C230.204 126.015 229.536 126.142 228.912 126.395C220.246 130.182 210.812 131.876 201.37 131.343C191.929 130.809 182.745 128.062 174.561 123.323C165.397 117.994 157.788 110.358 152.492 101.174C147.196 91.9909 144.398 81.5806 144.376 70.9795C144.37 61.5205 146.588 52.1926 150.849 43.7479C155.111 35.3032 161.297 27.9779 168.909 22.3628C169.786 21.7235 170.437 20.8221 170.768 19.7887C171.1 18.7552 171.094 17.6433 170.752 16.6133C170.41 15.5833 169.75 14.6886 168.867 14.0582C167.983 13.4279 166.922 13.0946 165.837 13.1064H165.878ZM0 13.557V26.6224C6.14362 32.2785 11.0453 39.1491 14.3942 46.7989C17.7432 54.4486 19.4665 62.7107 19.4549 71.0614C19.4549 88.0588 12.2054 104.155 0 115.5V128.689C9.16782 122.129 16.6425 113.482 21.806 103.461C26.9695 93.4401 29.6734 82.3342 29.6943 71.0614C29.7055 60.0406 27.137 49.1701 22.1941 39.3199C17.2512 29.4696 10.0712 20.9131 1.22873 14.3352C0.855738 14.033 0.442111 13.7849 0 13.5979L0 13.557ZM286.58 16.7107C277.089 16.7068 267.764 19.2075 259.548 23.9602C251.316 28.7466 244.481 35.6061 239.724 43.8555C234.967 52.105 232.453 61.4567 232.434 70.9795C232.426 78.4642 233.969 85.8693 236.965 92.7282C239.961 99.5871 244.345 105.751 249.841 110.831C250.557 111.541 251.467 112.023 252.456 112.218C253.445 112.413 254.469 112.312 255.401 111.927C256.332 111.542 257.13 110.891 257.692 110.055C258.255 109.219 258.559 108.235 258.565 107.227C258.565 105.712 257.951 104.36 256.927 103.459C252.425 99.3326 248.832 94.3132 246.378 88.721C243.924 83.1288 242.662 77.0865 242.674 70.9795C242.692 63.2567 244.732 55.6733 248.591 48.9835C252.449 42.2938 257.992 36.7308 264.668 32.848C269.946 29.7852 275.804 27.8572 281.869 27.1872C287.934 26.5172 294.073 27.12 299.892 28.957C301.195 29.3372 302.596 29.184 303.787 28.5311C304.977 27.8782 305.86 26.7791 306.24 25.4756C306.62 24.1721 306.467 22.771 305.814 21.5804C305.161 20.3898 304.062 19.5074 302.759 19.1272C297.52 17.4981 292.066 16.6696 286.58 16.6697V16.7107ZM41.0805 16.7107C35.5947 16.7106 30.1405 17.5391 24.9022 19.1682C24.2568 19.3564 23.6547 19.6699 23.1305 20.0909C22.6062 20.5118 22.17 21.0318 21.8467 21.6213C21.5234 22.2109 21.3194 22.8583 21.2464 23.5266C21.1733 24.195 21.2326 24.8711 21.4208 25.5166C21.6091 26.162 21.9226 26.7641 22.3435 27.2883C22.7645 27.8126 23.2845 28.2488 23.874 28.5721C24.4635 28.8954 25.1109 29.0994 25.7793 29.1724C26.4476 29.2455 27.1238 29.1862 27.7693 28.998C33.5854 27.1548 39.722 26.5453 45.7871 27.2082C51.8521 27.8711 57.7122 29.792 62.9928 32.848C69.6745 36.7343 75.2212 42.3037 79.0802 49.0013C82.9392 55.6989 84.9758 63.2907 84.987 71.0205C84.9926 77.1206 83.7282 83.155 81.2743 88.7397C78.8204 94.3245 75.2308 99.3372 70.7338 103.459C70.2083 103.914 69.7808 104.47 69.4775 105.096C69.1741 105.721 69.0012 106.401 68.9692 107.095C68.9373 107.789 69.047 108.483 69.2916 109.133C69.5363 109.784 69.9108 110.377 70.3923 110.878C70.8738 111.379 71.4523 111.777 72.0924 112.047C72.7326 112.318 73.4211 112.455 74.116 112.45C74.8108 112.446 75.4975 112.3 76.1342 112.022C76.7709 111.743 77.3443 111.338 77.8194 110.831C83.3159 105.751 87.7002 99.5871 90.6962 92.7282C93.6921 85.8693 95.2346 78.4642 95.2264 70.9795C95.2033 61.4527 92.6839 52.0983 87.9194 43.8485C83.1549 35.5987 76.3117 28.7415 68.0715 23.9602C59.8836 19.2071 50.5889 16.6927 41.1214 16.6697L41.0805 16.7107ZM483.75 29.6533C482.722 29.6584 481.718 29.9732 480.871 30.5568C480.024 31.1403 479.372 31.9655 479.001 32.9248C478.63 33.884 478.556 34.9329 478.789 35.9347C479.023 36.9365 479.553 37.8447 480.31 38.5411C485.226 43.0717 489.049 48.6595 491.491 54.8832V35.3874C490.203 33.9087 488.835 32.5004 487.395 31.1687C486.918 30.6875 486.35 30.3057 485.725 30.0455C485.099 29.7854 484.428 29.6521 483.75 29.6533ZM171.53 29.6533C170.138 29.6533 168.827 30.2267 167.926 31.1687C162.435 36.2443 158.053 42.4016 155.058 49.253C152.062 56.1044 150.517 63.5018 150.519 70.9795C150.531 80.5093 153.041 89.8694 157.798 98.1267C162.556 106.384 169.395 113.25 177.633 118.04C184.109 121.792 191.293 124.16 198.731 124.992C206.169 125.823 213.699 125.102 220.843 122.873C221.833 122.617 222.723 122.072 223.399 121.307C224.076 120.541 224.508 119.591 224.64 118.578C224.772 117.565 224.599 116.535 224.141 115.622C223.683 114.709 222.963 113.953 222.072 113.453C221.455 113.105 220.772 112.889 220.067 112.818C219.362 112.748 218.65 112.824 217.976 113.043C212.157 114.88 206.019 115.483 199.954 114.813C193.889 114.143 188.03 112.215 182.753 109.152C176.071 105.266 170.524 99.6963 166.665 92.9987C162.806 86.3011 160.77 78.7093 160.759 70.9795C160.753 64.8794 162.017 58.845 164.471 53.2603C166.925 47.6755 170.515 42.6628 175.012 38.5411C175.771 37.8424 176.302 36.9304 176.534 35.9247C176.767 34.9191 176.689 33.8667 176.313 32.9057C175.937 31.9447 175.278 31.1199 174.425 30.5395C173.571 29.9591 172.563 29.6502 171.53 29.6533ZM287.44 33.0937C280.546 32.9558 273.746 34.7125 267.781 38.1725C262.032 41.5106 257.257 46.2951 253.93 52.0506C250.603 57.806 248.841 64.3318 248.817 70.9795C248.817 80.5636 252.34 89.3285 258.197 95.9637C258.62 96.5135 259.151 96.9715 259.756 97.31C260.362 97.6485 261.03 97.8603 261.72 97.9326C262.41 98.0049 263.108 97.9361 263.771 97.7305C264.433 97.5249 265.047 97.1868 265.575 96.7366C266.103 96.2864 266.534 95.7336 266.842 95.1117C267.15 94.4898 267.328 93.8119 267.366 93.119C267.403 92.4262 267.3 91.7329 267.062 91.0813C266.823 90.4297 266.455 89.8334 265.979 89.3285C261.485 84.2735 259.007 77.7429 259.016 70.9795C259.016 61.1497 264.34 51.9752 272.86 47.0603C278.71 43.6639 285.607 42.5412 292.232 43.9065C292.894 44.0276 293.573 44.0171 294.23 43.8757C294.888 43.7344 295.511 43.4649 296.065 43.0826C296.618 42.7004 297.091 42.2129 297.456 41.648C297.821 41.0831 298.071 40.4519 298.192 39.7903C298.313 39.1287 298.302 38.4498 298.161 37.7923C298.02 37.1348 297.75 36.5115 297.368 35.9581C296.986 35.4048 296.498 34.9321 295.933 34.5671C295.368 34.2021 294.737 33.952 294.076 33.831C291.89 33.3888 289.67 33.142 287.44 33.0937ZM40.1794 33.0937C37.9677 33.1347 35.756 33.3804 33.5852 33.831C32.9237 33.952 32.2924 34.2021 31.7275 34.5671C31.1626 34.9321 30.6751 35.4048 30.2929 35.9581C29.9107 36.5115 29.6412 37.1348 29.4998 37.7923C29.3584 38.4498 29.348 39.1287 29.469 39.7903C29.59 40.4519 29.8402 41.0831 30.2051 41.648C30.5701 42.2129 31.0428 42.7004 31.5962 43.0826C32.1495 43.4649 32.7728 43.7344 33.4303 43.8757C34.0878 44.0171 34.7668 44.0276 35.4283 43.9065C42.041 42.5517 48.9211 43.674 54.7603 47.0603C58.9612 49.4952 62.4501 52.989 64.8792 57.1932C67.3083 61.3974 68.5926 66.165 68.604 71.0205C68.604 78.0242 65.9827 84.4546 61.6412 89.3695C60.987 90.1061 60.5593 91.0158 60.4093 91.9895C60.2593 92.9631 60.3934 93.9594 60.7955 94.8587C61.1976 95.7581 61.8507 96.5223 62.6763 97.0597C63.5019 97.5972 64.4651 97.885 65.4502 97.8887C67.0885 97.8887 68.5221 97.1514 69.4231 95.9637C75.5009 89.0607 78.8506 80.1769 78.8434 70.9795C78.8202 64.3318 77.0576 57.806 73.7308 52.0506C70.404 46.2951 65.6289 41.5106 59.88 38.1725C53.915 34.7125 47.1148 32.9558 40.2204 33.0937H40.1794ZM0 35.3874V54.8013C4.11491 65.1943 4.11491 76.7648 0 87.1578L0 106.613C8.57468 96.7203 13.3 84.0708 13.3112 70.9795C13.3172 57.9097 8.58841 45.2802 0 35.4283L0 35.3874ZM475.026 44.1113C474.041 44.115 473.078 44.4028 472.252 44.9403C471.427 45.4777 470.774 46.2419 470.372 47.1413C469.969 48.0406 469.835 49.0369 469.985 50.0105C470.135 50.9842 470.563 51.8939 471.217 52.6305C475.711 57.6855 478.189 64.2161 478.18 70.9795C478.18 80.8093 472.855 90.0248 464.336 94.9397C458.497 98.326 451.617 99.4483 445.004 98.0935C444.343 97.9697 443.663 97.9775 443.005 98.1164C442.346 98.2553 441.721 98.5225 441.166 98.9029C440.611 99.2832 440.136 99.7692 439.768 100.333C439.401 100.897 439.148 101.528 439.025 102.189C438.901 102.851 438.909 103.53 439.047 104.189C439.186 104.847 439.454 105.472 439.834 106.027C440.214 106.583 440.7 107.058 441.264 107.425C441.828 107.793 442.459 108.045 443.12 108.169C451.844 109.889 461.183 108.579 469.456 103.828C475.211 100.486 479.99 95.6949 483.317 89.9317C486.644 84.1685 488.403 77.6342 488.419 70.9795C488.419 61.4364 484.856 52.6715 478.999 45.9954C478.523 45.4113 477.923 44.9396 477.244 44.6139C476.564 44.2882 475.821 44.1166 475.067 44.1113H475.026ZM180.254 44.1113C178.657 44.1113 177.224 44.8486 176.322 45.9954C170.245 52.8984 166.895 61.7822 166.902 70.9795C166.914 77.6302 168.667 84.1618 171.987 89.9247C175.307 95.6875 180.077 100.481 185.825 103.828C193.779 108.439 203.146 109.984 212.16 108.169C212.822 108.048 213.453 107.798 214.018 107.433C214.583 107.068 215.07 106.595 215.453 106.042C215.835 105.488 216.104 104.865 216.246 104.208C216.387 103.55 216.398 102.871 216.277 102.21C216.156 101.548 215.905 100.917 215.54 100.352C215.175 99.7871 214.703 99.2996 214.149 98.9174C213.596 98.5351 212.973 98.2656 212.315 98.1243C211.658 97.9829 210.979 97.9724 210.317 98.0935C203.691 99.4588 196.795 98.3361 190.944 94.9397C186.751 92.4997 183.27 89.0036 180.849 84.7998C178.427 80.5959 177.149 75.831 177.142 70.9795C177.142 63.9758 179.763 57.5454 184.104 52.6305C184.761 51.8913 185.189 50.9778 185.338 50.0004C185.486 49.023 185.349 48.0235 184.942 47.1226C184.535 46.2217 183.875 45.4579 183.043 44.9236C182.212 44.3892 181.243 44.1071 180.254 44.1113ZM287.113 49.4768C283.304 49.3949 279.454 50.2959 275.972 52.3438C272.706 54.2391 269.993 56.9568 268.103 60.2263C266.213 63.4958 265.212 67.2031 265.2 70.9795C265.183 75.4379 266.558 79.7906 269.132 83.4306C269.909 84.5495 271.098 85.314 272.439 85.5559C273.779 85.7979 275.161 85.4975 276.279 84.7208C277.398 83.9441 278.163 82.7548 278.405 81.4144C278.647 80.0741 278.346 78.6925 277.57 77.5737C276.647 76.2943 276.002 74.8358 275.676 73.2922C275.351 71.7485 275.352 70.1539 275.68 68.6108C276.008 67.0677 276.655 65.6103 277.58 64.3324C278.505 63.0544 279.688 61.9842 281.051 61.1907C283.097 60.0141 285.462 59.5125 287.809 59.7571C288.484 59.8274 289.167 59.7626 289.817 59.5665C290.467 59.3704 291.072 59.0469 291.596 58.615C292.119 58.183 292.552 57.6512 292.869 57.0504C293.185 56.4496 293.379 55.7919 293.438 55.1155C293.498 54.4391 293.423 53.7576 293.217 53.1107C293.011 52.4637 292.678 51.8642 292.238 51.3471C291.798 50.83 291.259 50.4055 290.654 50.0985C290.048 49.7915 289.387 49.608 288.71 49.5587C288.165 49.5149 287.619 49.4876 287.072 49.4768H287.113ZM40.548 49.4768L38.9097 49.5587C38.2374 49.6179 37.5833 49.8089 36.9848 50.1208C36.3863 50.4328 35.8551 50.8596 35.4215 51.3768C34.5459 52.4214 34.1211 53.7711 34.2406 55.1289C34.36 56.4868 35.014 57.7415 36.0587 58.6171C37.1033 59.4928 38.453 59.9176 39.8108 59.7981C41.9589 59.607 44.1168 60.0343 46.0299 61.0296C47.9431 62.0249 49.5316 63.5467 50.608 65.4154C51.6845 67.2841 52.2039 69.4217 52.1051 71.576C52.0062 73.7303 51.2932 75.8114 50.0502 77.5737C49.6656 78.1277 49.3939 78.752 49.2506 79.411C49.1073 80.07 49.0953 80.7508 49.2151 81.4144C49.457 82.7548 50.2215 83.9441 51.3404 84.7208C52.4592 85.4975 53.8408 85.7979 55.1811 85.5559C56.5214 85.314 57.7108 84.5495 58.4874 83.4306C61.0765 79.7955 62.4654 75.4424 62.4603 70.9795C62.4494 67.2133 61.4532 63.5154 59.5707 60.2534C57.6882 56.9913 54.9849 54.2786 51.7294 52.3848C48.3476 50.4293 44.4947 49.4377 40.589 49.5177L40.548 49.4768ZM463.804 56.2757C462.863 56.2793 461.942 56.5418 461.141 57.0345C460.34 57.5273 459.69 58.2312 459.262 59.069C458.835 59.9068 458.647 60.8462 458.718 61.784C458.789 62.7218 459.118 63.6219 459.667 64.3853C460.59 65.6648 461.235 67.1232 461.56 68.6669C461.886 70.2105 461.884 71.8051 461.556 73.3483C461.229 74.8914 460.581 76.3488 459.656 77.6267C458.731 78.9046 457.549 79.9748 456.186 80.7684C454.128 81.9535 451.748 82.4554 449.387 82.2019C448.714 82.1454 448.038 82.2219 447.395 82.427C446.752 82.6322 446.156 82.9619 445.641 83.3973C444.6 84.2768 443.951 85.5337 443.837 86.8915C443.723 88.2494 444.153 89.5969 445.032 90.6377C445.912 91.6785 447.169 92.3272 448.527 92.4413C452.827 92.8099 457.251 91.9498 461.264 89.6152C464.531 87.7199 467.244 85.0023 469.134 81.7328C471.024 78.4633 472.024 74.7559 472.036 70.9795C472.041 66.5166 470.652 62.1636 468.063 58.5284C467.593 57.8322 466.958 57.2625 466.215 56.8696C465.472 56.4768 464.644 56.2728 463.804 56.2757ZM191.477 56.2757C189.716 56.2757 188.2 57.1768 187.217 58.5284C184.643 62.1685 183.268 66.5211 183.285 70.9795C183.285 78.6386 187.381 85.8062 194.016 89.6152C197.88 91.8557 202.349 92.8296 206.795 92.4003C207.472 92.3511 208.133 92.1676 208.738 91.8605C209.344 91.5535 209.883 91.1291 210.323 90.612C210.763 90.0948 211.095 89.4953 211.301 88.8484C211.508 88.2014 211.583 87.5199 211.523 86.8436C211.463 86.1672 211.27 85.5095 210.953 84.9087C210.637 84.3079 210.204 83.776 209.68 83.344C209.157 82.9121 208.552 82.5887 207.902 82.3926C207.252 82.1965 206.569 82.1317 205.894 82.2019C203.746 82.393 201.588 81.9657 199.675 80.9704C197.762 79.9751 196.173 78.4533 195.097 76.5846C194.02 74.7159 193.501 72.5783 193.6 70.424C193.698 68.2697 194.411 66.1886 195.654 64.4263C196.217 63.66 196.556 62.752 196.632 61.8042C196.708 60.8564 196.518 59.9061 196.085 59.0599C195.651 58.2137 194.99 57.505 194.176 57.0133C193.362 56.5215 192.428 56.2661 191.477 56.2757ZM204.788 65.8598C203.43 65.8598 202.128 66.3992 201.168 67.3593C200.208 68.3195 199.668 69.6217 199.668 70.9795C199.668 72.3373 200.208 73.6396 201.168 74.5997C202.128 75.5598 203.43 76.0992 204.788 76.0992C206.146 76.0992 207.448 75.5598 208.408 74.5997C209.368 73.6396 209.908 72.3373 209.908 70.9795C209.908 69.6217 209.368 68.3195 208.408 67.3593C207.448 66.3992 206.146 65.8598 204.788 65.8598ZM286.703 65.8598C285.345 65.8598 284.043 66.3992 283.083 67.3593C282.123 68.3195 281.583 69.6217 281.583 70.9795C281.583 72.3373 282.123 73.6396 283.083 74.5997C284.043 75.5598 285.345 76.0992 286.703 76.0992C288.061 76.0992 289.363 75.5598 290.323 74.5997C291.283 73.6396 291.823 72.3373 291.823 70.9795C291.823 69.6217 291.283 68.3195 290.323 67.3593C289.363 66.3992 288.061 65.8598 286.703 65.8598ZM40.589 65.8598C39.9167 65.9082 39.2604 66.0886 38.6578 66.3906C38.0552 66.6926 37.518 67.1104 37.0768 67.62C36.6356 68.1296 36.2991 68.7212 36.0865 69.3609C35.874 70.0005 35.7895 70.6758 35.8379 71.3481C35.8863 72.0205 36.0667 72.6767 36.3687 73.2793C36.6707 73.8819 37.0884 74.4192 37.5981 74.8603C38.1077 75.3015 38.6993 75.638 39.3389 75.8506C39.9786 76.0631 40.6539 76.1476 41.3262 76.0992C42.684 76.0015 43.9474 75.3683 44.8384 74.339C45.7294 73.3098 46.1751 71.9687 46.0773 70.6109C45.9795 69.2531 45.3464 67.9897 44.3171 67.0987C43.2879 66.2077 41.9468 65.7621 40.589 65.8598ZM450.902 65.8598C450.23 65.8114 449.555 65.8959 448.915 66.1085C448.275 66.321 447.684 66.6575 447.174 67.0987C446.664 67.5399 446.247 68.0771 445.945 68.6797C445.643 69.2824 445.462 69.9386 445.414 70.6109C445.365 71.2832 445.45 71.9585 445.663 72.5982C445.875 73.2379 446.212 73.8294 446.653 74.339C447.094 74.8487 447.631 75.2664 448.234 75.5684C448.836 75.8704 449.493 76.0508 450.165 76.0992C451.523 76.197 452.864 75.7513 453.893 74.8603C454.922 73.9693 455.556 72.706 455.653 71.3481C455.751 69.9903 455.305 68.6493 454.414 67.62C453.523 66.5907 452.26 65.9576 450.902 65.8598ZM327.661 71.3072C310.339 71.293 293.617 77.6502 280.679 89.1681C267.741 100.686 259.491 116.56 257.5 133.768C257.328 134.73 257.435 135.721 257.809 136.624C258.182 137.528 258.806 138.305 259.607 138.865C260.408 139.425 261.353 139.744 262.33 139.784C263.306 139.825 264.274 139.584 265.119 139.092C265.811 138.685 266.398 138.121 266.832 137.445C267.266 136.769 267.535 136 267.617 135.201C268.667 125.798 271.913 116.773 277.092 108.854C282.271 100.936 289.239 94.3455 297.434 89.6152C306.625 84.3329 317.04 81.553 327.64 81.553C338.241 81.553 348.656 84.3329 357.847 89.6152C366.041 94.3455 373.009 100.936 378.189 108.854C383.368 116.773 386.614 125.798 387.664 135.201C387.854 136.548 388.571 137.764 389.658 138.582C390.745 139.4 392.112 139.753 393.459 139.563C394.806 139.373 396.022 138.656 396.84 137.569C397.658 136.482 398.011 135.114 397.821 133.768C395.831 116.56 387.581 100.686 374.643 89.1681C361.705 77.6502 344.983 71.293 327.661 71.3072ZM491.491 87.0759C487.844 96.3645 481.16 104.145 472.528 109.152C467.247 112.208 461.387 114.129 455.322 114.792C449.257 115.455 443.12 114.845 437.304 113.002C436.321 112.699 435.27 112.7 434.287 113.004C433.304 113.308 432.435 113.901 431.794 114.705C431.153 115.51 430.77 116.489 430.693 117.515C430.617 118.54 430.851 119.566 431.365 120.456C431.699 121.045 432.146 121.561 432.68 121.976C433.214 122.391 433.825 122.696 434.478 122.873C444.536 126.006 455.29 126.132 465.419 123.236C475.548 120.34 484.61 114.548 491.491 106.572V87.0759ZM327.661 87.6902C315.349 87.6697 303.398 91.8458 293.778 99.5297C284.158 107.214 277.444 117.946 274.744 129.958C274.49 130.934 274.53 131.962 274.858 132.914C275.186 133.867 275.787 134.702 276.588 135.314C277.388 135.926 278.351 136.289 279.356 136.356C280.361 136.423 281.364 136.192 282.239 135.693C282.852 135.345 283.387 134.874 283.809 134.311C284.232 133.747 284.534 133.102 284.696 132.416C286.015 126.456 288.56 120.835 292.171 115.913C295.781 110.991 300.377 106.875 305.667 103.828C312.359 99.9827 319.943 97.9594 327.661 97.9594C335.379 97.9594 342.963 99.9827 349.655 103.828C354.944 106.875 359.541 110.991 363.151 115.913C366.762 120.835 369.307 126.456 370.625 132.416C370.853 133.419 371.378 134.329 372.131 135.029C372.884 135.729 373.831 136.187 374.847 136.341C375.864 136.496 376.903 136.341 377.83 135.897C378.758 135.452 379.53 134.739 380.046 133.849C380.783 132.621 380.906 131.228 380.578 129.958C377.885 117.939 371.175 107.197 361.554 99.5047C351.934 91.8127 339.978 87.6309 327.661 87.6493V87.6902ZM327.661 104.073C319.738 104.055 312.01 106.529 305.571 111.145C299.132 115.761 294.308 122.286 291.782 129.795C291.556 130.429 291.457 131.102 291.492 131.775C291.526 132.448 291.692 133.107 291.981 133.716C292.27 134.324 292.676 134.87 293.176 135.322C293.676 135.773 294.26 136.122 294.895 136.348C295.529 136.574 296.202 136.672 296.875 136.638C297.548 136.604 298.207 136.438 298.816 136.149C299.424 135.86 299.97 135.454 300.422 134.954C300.873 134.454 301.222 133.87 301.448 133.235C303.571 126.826 307.972 121.419 313.817 118.04C318.023 115.621 322.789 114.349 327.64 114.349C332.492 114.349 337.258 115.621 341.464 118.04C347.316 121.402 351.732 126.794 353.874 133.194C354.324 134.476 355.266 135.526 356.491 136.114C357.716 136.701 359.125 136.778 360.406 136.327C361.688 135.877 362.738 134.935 363.326 133.71C363.914 132.485 363.99 131.076 363.54 129.795C361.02 122.278 356.199 115.745 349.76 111.121C343.32 106.497 335.589 104.017 327.661 104.032V104.073ZM491.491 115.419C482.881 123.385 472.134 128.667 460.567 130.617C448.999 132.566 437.114 131.099 426.369 126.395C425.381 125.968 424.285 125.863 423.235 126.095C422.184 126.326 421.233 126.883 420.517 127.685C419.801 128.487 419.356 129.495 419.244 130.565C419.133 131.634 419.362 132.712 419.897 133.645C420.494 134.684 421.436 135.481 422.56 135.897C433.704 140.723 445.906 142.588 457.983 141.311C470.061 140.033 481.603 135.657 491.491 128.607V115.419ZM327.661 120.497C323.551 120.495 319.527 121.67 316.064 123.884C312.602 126.098 309.846 129.258 308.124 132.989C307.836 133.597 307.671 134.256 307.638 134.927C307.605 135.599 307.704 136.271 307.93 136.904C308.156 137.537 308.505 138.119 308.957 138.618C309.408 139.116 309.953 139.521 310.561 139.809C311.169 140.097 311.827 140.262 312.499 140.295C313.171 140.328 313.842 140.229 314.475 140.003C315.109 139.776 315.691 139.428 316.19 138.976C316.688 138.525 317.093 137.98 317.38 137.372C318.322 135.283 319.92 133.44 322.009 132.211C323.377 131.426 324.894 130.936 326.463 130.772C328.032 130.609 329.618 130.776 331.118 131.262C332.619 131.748 334.001 132.542 335.176 133.595C336.351 134.647 337.293 135.934 337.941 137.372C338.334 138.226 338.954 138.956 339.734 139.481C340.514 140.006 341.423 140.306 342.363 140.348C343.302 140.39 344.235 140.173 345.059 139.721C345.882 139.268 346.566 138.597 347.034 137.781C347.894 136.266 347.935 134.505 347.198 132.989C345.484 129.252 342.73 126.086 339.266 123.871C335.801 121.656 331.773 120.485 327.661 120.497ZM164.199 136.88C163.527 136.832 162.851 136.916 162.212 137.129C161.572 137.342 160.981 137.678 160.471 138.119C159.961 138.56 159.543 139.098 159.241 139.7C158.939 140.303 158.759 140.959 158.711 141.631C158.662 142.304 158.747 142.979 158.959 143.619C159.172 144.258 159.508 144.85 159.95 145.36C160.391 145.869 160.928 146.287 161.531 146.589C162.133 146.891 162.789 147.071 163.462 147.12C164.82 147.217 166.161 146.772 167.19 145.881C168.219 144.99 168.852 143.726 168.95 142.369C169.048 141.011 168.602 139.67 167.711 138.64C166.82 137.611 165.557 136.978 164.199 136.88ZM327.292 136.88C326.597 136.894 325.912 137.048 325.279 137.335C324.646 137.622 324.077 138.035 323.609 138.548C323.14 139.061 322.781 139.665 322.553 140.322C322.326 140.979 322.234 141.675 322.284 142.368C322.334 143.062 322.525 143.737 322.845 144.355C323.165 144.972 323.607 145.517 324.145 145.958C324.682 146.399 325.304 146.726 325.972 146.918C326.64 147.111 327.34 147.165 328.029 147.079C329.387 146.981 330.651 146.348 331.542 145.319C332.433 144.289 332.878 142.948 332.78 141.59C332.683 140.233 332.05 138.969 331.02 138.078C329.991 137.187 328.65 136.742 327.292 136.839V136.88ZM286.171 142.287C276.733 142.355 267.404 144.304 258.729 148.021C257.464 148.526 256.451 149.513 255.913 150.765C255.375 152.017 255.357 153.431 255.862 154.697C256.367 155.962 257.354 156.975 258.606 157.513C259.858 158.051 261.273 158.069 262.538 157.564C271.204 153.777 280.638 152.083 290.08 152.616C299.522 153.15 308.705 155.897 316.889 160.636C326.061 165.96 333.678 173.594 338.981 182.778C344.284 191.961 347.089 202.374 347.116 212.98C347.116 222.442 344.892 231.772 340.624 240.217C336.355 248.662 330.161 255.985 322.541 261.596C321.466 262.438 320.769 263.673 320.604 265.028C320.438 266.384 320.819 267.75 321.661 268.825C322.502 269.901 323.737 270.598 325.093 270.763C326.448 270.928 327.814 270.548 328.89 269.706C337.732 263.128 344.912 254.571 349.855 244.721C354.798 234.871 357.366 224 357.355 212.98C357.328 200.574 354.05 188.393 347.848 177.65C341.646 166.906 332.737 157.975 322.009 151.748C311.137 145.449 298.775 142.182 286.212 142.287H286.171ZM41.49 142.287C26.6214 142.154 12.0942 146.743 0 155.393L0 168.581C8.61018 160.615 19.3574 155.333 30.9247 153.383C42.4919 151.434 54.3767 152.901 65.1226 157.605C66.1145 158.042 67.2196 158.153 68.2786 157.922C69.3376 157.69 70.2959 157.129 71.0155 156.318C71.7351 155.508 72.1788 154.49 72.2827 153.411C72.3867 152.332 72.1455 151.248 71.5939 150.314C70.9928 149.288 70.0506 148.505 68.9316 148.103C60.2621 144.359 50.9329 142.382 41.49 142.287ZM148.512 143.597C147.676 143.658 146.867 143.924 146.157 144.371C145.447 144.818 144.857 145.433 144.441 146.161C144.024 146.889 143.793 147.708 143.767 148.547C143.741 149.385 143.922 150.217 144.294 150.97C146.147 155.032 149.227 158.412 153.1 160.636C156.366 162.507 160.066 163.492 163.83 163.492C167.595 163.492 171.295 162.507 174.561 160.636C178.434 158.412 181.513 155.032 183.367 150.97C183.697 150.357 183.898 149.683 183.959 148.99C184.019 148.296 183.938 147.598 183.719 146.937C183.5 146.276 183.149 145.667 182.688 145.147C182.226 144.626 181.662 144.205 181.032 143.91C180.402 143.614 179.718 143.45 179.023 143.428C178.327 143.405 177.634 143.525 176.986 143.779C176.339 144.034 175.75 144.418 175.255 144.908C174.761 145.397 174.371 145.983 174.111 146.628C173.205 148.587 171.757 150.245 169.939 151.407C168.121 152.569 166.009 153.187 163.851 153.187C161.693 153.187 159.58 152.569 157.762 151.407C155.944 150.245 154.497 148.587 153.591 146.628C153.162 145.66 152.443 144.848 151.534 144.305C150.624 143.762 149.568 143.515 148.512 143.597ZM98.3392 144.212C97.6265 144.264 96.9326 144.465 96.3023 144.802C95.672 145.139 95.1191 145.604 94.6793 146.167C94.2395 146.73 93.9225 147.379 93.7486 148.072C93.5748 148.765 93.548 149.487 93.67 150.192C94.9331 161.135 98.7394 171.632 104.784 180.842C110.83 190.052 118.946 197.719 128.484 203.232C139.236 209.42 151.425 212.677 163.83 212.677C176.236 212.677 188.425 209.42 199.177 203.232C208.715 197.719 216.831 190.052 222.876 180.842C228.921 171.632 232.728 161.135 233.991 150.192C234.134 149.506 234.135 148.798 233.994 148.112C233.853 147.426 233.572 146.776 233.17 146.203C232.767 145.629 232.252 145.145 231.654 144.779C231.057 144.413 230.391 144.173 229.698 144.075C229.004 143.977 228.298 144.022 227.622 144.207C226.947 144.393 226.317 144.715 225.771 145.154C225.225 145.593 224.775 146.14 224.449 146.759C224.123 147.379 223.927 148.06 223.874 148.758C222.824 158.161 219.579 167.186 214.399 175.105C209.22 183.023 202.252 189.614 194.057 194.344C185.369 199.378 175.563 202.165 165.526 202.454C155.49 202.742 145.54 200.523 136.577 195.997C127.614 191.471 119.921 184.781 114.196 176.532C108.47 168.284 104.893 158.738 103.787 148.758C103.632 147.451 102.98 146.253 101.965 145.414C100.951 144.575 99.6523 144.159 98.3392 144.253V144.212ZM132.416 147.243C131.611 147.291 130.829 147.529 130.134 147.937C129.439 148.345 128.85 148.911 128.415 149.59C127.979 150.268 127.711 151.04 127.63 151.842C127.55 152.644 127.66 153.454 127.952 154.205C130.9 162.922 136.93 170.263 144.908 174.848C150.667 178.154 157.191 179.893 163.83 179.893C170.47 179.893 176.994 178.154 182.753 174.848C190.731 170.263 196.761 162.922 199.709 154.205C199.935 153.571 200.034 152.898 200 152.225C199.965 151.552 199.799 150.893 199.51 150.284C199.221 149.676 198.815 149.13 198.315 148.678C197.815 148.227 197.231 147.878 196.596 147.652C195.962 147.426 195.289 147.328 194.616 147.362C193.943 147.396 193.284 147.562 192.675 147.851C192.067 148.14 191.521 148.546 191.069 149.046C190.618 149.546 190.269 150.13 190.043 150.765C187.912 157.159 183.511 162.55 177.674 165.919C173.464 168.345 168.69 169.622 163.83 169.622C158.971 169.622 154.197 168.345 149.987 165.919C144.15 162.55 139.749 157.159 137.618 150.765C137.265 149.683 136.562 148.75 135.62 148.112C134.679 147.474 133.551 147.168 132.416 147.243ZM115.5 147.57C114.743 147.622 114.006 147.841 113.344 148.213C112.682 148.584 112.11 149.098 111.671 149.717C111.232 150.337 110.936 151.046 110.805 151.794C110.674 152.542 110.711 153.31 110.913 154.042C112.564 161.338 115.71 168.213 120.151 174.233C124.592 180.253 130.232 185.288 136.716 189.019C144.973 193.762 154.329 196.258 163.851 196.258C173.373 196.258 182.729 193.762 190.985 189.019C197.466 185.279 203.101 180.236 207.535 174.209C211.969 168.182 215.106 161.301 216.748 154.001C217.001 153.026 216.962 151.997 216.634 151.045C216.306 150.092 215.704 149.257 214.904 148.645C214.103 148.033 213.14 147.671 212.135 147.603C211.13 147.536 210.127 147.767 209.252 148.267C208.639 148.614 208.105 149.085 207.682 149.648C207.259 150.212 206.957 150.857 206.795 151.543C205.477 157.503 202.931 163.124 199.321 168.046C195.71 172.968 191.114 177.084 185.825 180.132C179.132 183.976 171.549 186 163.83 186C156.112 186 148.529 183.976 141.836 180.132C136.551 177.088 131.958 172.979 128.348 168.064C124.737 163.149 122.189 157.537 120.866 151.584C120.603 150.382 119.916 149.315 118.931 148.577C117.946 147.84 116.728 147.483 115.5 147.57ZM411.624 155.065C410.395 155.065 409.248 155.516 408.347 156.253C399.51 162.827 392.334 171.377 387.391 181.22C382.448 191.062 379.877 201.925 379.882 212.939C379.905 225.34 383.176 237.518 389.371 248.261C395.565 259.005 404.466 267.937 415.187 274.17C424.72 279.689 435.413 282.898 446.409 283.538C457.406 284.178 468.399 282.232 478.508 277.856C479.145 277.616 479.728 277.251 480.223 276.782C480.717 276.314 481.114 275.751 481.388 275.128C481.662 274.504 481.81 273.832 481.821 273.151C481.832 272.47 481.707 271.793 481.454 271.161C481.201 270.528 480.823 269.953 480.345 269.468C479.866 268.983 479.295 268.599 478.666 268.338C478.037 268.076 477.362 267.943 476.681 267.946C475.999 267.949 475.326 268.088 474.699 268.354C466.031 272.154 456.59 273.859 447.141 273.332C437.692 272.806 428.499 270.062 420.307 265.323C411.137 259.991 403.524 252.348 398.228 243.157C392.931 233.965 390.136 223.547 390.121 212.939C390.116 203.48 392.333 194.152 396.595 185.707C400.856 177.262 407.043 169.937 414.655 164.322C415.529 163.685 416.178 162.787 416.511 161.758C416.843 160.728 416.84 159.62 416.504 158.592C416.167 157.564 415.514 156.669 414.637 156.036C413.76 155.402 412.706 155.062 411.624 155.065ZM243.698 155.065C242.605 155.05 241.536 155.385 240.648 156.02C239.759 156.656 239.097 157.559 238.758 158.598C238.419 159.637 238.422 160.757 238.765 161.794C239.109 162.831 239.775 163.731 240.667 164.363C248.279 169.978 254.465 177.303 258.727 185.748C262.988 194.193 265.206 203.52 265.2 212.98C265.174 223.585 262.369 233.998 257.066 243.181C251.763 252.365 244.146 259.999 234.974 265.323C226.79 270.062 217.606 272.809 208.165 273.343C198.723 273.876 189.289 272.182 180.623 268.395C179.636 267.968 178.539 267.863 177.489 268.095C176.439 268.326 175.488 268.883 174.772 269.685C174.055 270.487 173.61 271.495 173.499 272.565C173.387 273.634 173.616 274.712 174.152 275.645C174.735 276.679 175.663 277.476 176.773 277.897C186.882 282.273 197.875 284.219 208.871 283.579C219.868 282.939 230.561 279.73 240.093 274.211C250.822 267.984 259.731 259.053 265.933 248.309C272.135 237.566 275.413 225.385 275.44 212.98C275.451 201.959 272.883 191.088 267.94 181.238C262.997 171.388 255.817 162.831 246.974 156.253C246.051 155.498 244.891 155.092 243.698 155.106V155.065ZM491.491 155.352C482.323 161.912 474.849 170.559 469.685 180.58C464.522 190.601 461.818 201.707 461.797 212.98C461.786 224 464.354 234.871 469.297 244.721C474.24 254.571 481.42 263.128 490.262 269.706C490.672 270.033 491.082 270.279 491.491 270.443V257.418C485.35 251.761 480.449 244.89 477.1 237.241C473.752 229.591 472.027 221.33 472.036 212.98C472.036 196.023 479.286 179.886 491.491 168.581V155.352ZM286.826 158.629C281.34 158.629 275.886 159.457 270.648 161.086C270.002 161.274 269.4 161.588 268.876 162.009C268.352 162.43 267.916 162.95 267.592 163.539C266.939 164.73 266.786 166.131 267.166 167.435C267.547 168.738 268.429 169.837 269.62 170.49C270.81 171.143 272.211 171.296 273.515 170.916C279.334 169.079 285.472 168.476 291.537 169.146C297.602 169.816 303.461 171.744 308.738 174.807C315.412 178.699 320.951 184.27 324.803 190.967C328.654 197.665 330.685 205.254 330.692 212.98C330.697 219.08 329.433 225.114 326.979 230.699C324.525 236.284 320.935 241.296 316.438 245.418C315.913 245.873 315.485 246.429 315.182 247.055C314.879 247.68 314.706 248.36 314.674 249.054C314.642 249.748 314.752 250.442 314.996 251.092C315.241 251.743 315.615 252.336 316.097 252.837C316.578 253.338 317.157 253.736 317.797 254.006C318.437 254.277 319.126 254.414 319.821 254.409C320.516 254.405 321.202 254.259 321.839 253.981C322.476 253.702 323.049 253.297 323.524 252.79C329.023 247.718 333.412 241.563 336.415 234.711C339.418 227.859 340.969 220.46 340.972 212.98C340.956 203.446 338.44 194.083 333.675 185.825C328.91 177.568 322.063 170.704 313.817 165.919C305.612 161.175 296.303 158.675 286.826 158.67V158.629ZM40.8347 158.67C33.083 158.672 25.423 160.346 18.3763 163.576C11.3296 166.806 5.06185 171.517 0 177.387L0 196.924C3.6395 187.62 10.324 179.824 18.9634 174.807C24.244 171.751 30.104 169.83 36.1691 169.167C42.2341 168.504 48.3708 169.114 54.1869 170.957C54.8428 171.18 55.5371 171.267 56.2277 171.213C56.9183 171.16 57.5908 170.967 58.2046 170.646C58.8184 170.325 59.3607 169.882 59.7986 169.346C60.2365 168.809 60.561 168.189 60.7524 167.523C60.9438 166.858 60.9981 166.16 60.912 165.473C60.826 164.786 60.6014 164.123 60.2518 163.525C59.9022 162.927 59.4349 162.406 58.8782 161.994C58.3215 161.582 57.687 161.287 57.013 161.127C51.7747 159.498 46.3205 158.67 40.8347 158.67ZM417.276 171.612C415.883 171.612 414.573 172.186 413.672 173.128C408.18 178.203 403.799 184.361 400.803 191.212C397.807 198.063 396.262 205.461 396.265 212.939C396.277 222.468 398.786 231.828 403.544 240.086C408.301 248.343 415.14 255.209 423.379 259.999C429.854 263.751 437.039 266.119 444.477 266.951C451.915 267.783 459.444 267.061 466.589 264.832C467.892 264.452 468.992 263.569 469.644 262.379C470.297 261.188 470.451 259.787 470.07 258.483C469.69 257.18 468.808 256.081 467.617 255.428C466.427 254.775 465.025 254.622 463.722 255.002C457.903 256.837 451.765 257.438 445.7 256.768C439.635 256.098 433.777 254.171 428.498 251.111C421.823 247.228 416.28 241.665 412.421 234.975C408.563 228.286 406.523 220.702 406.504 212.98C406.499 206.879 407.763 200.845 410.217 195.26C412.671 189.675 416.26 184.663 420.757 180.541C421.517 179.842 422.048 178.93 422.28 177.925C422.512 176.919 422.435 175.867 422.059 174.906C421.682 173.945 421.024 173.12 420.171 172.539C419.317 171.959 418.308 171.65 417.276 171.653V171.612ZM238.005 171.612C236.967 171.608 235.953 171.92 235.096 172.505C234.239 173.091 233.581 173.923 233.208 174.891C232.835 175.859 232.765 176.918 233.007 177.927C233.249 178.936 233.792 179.848 234.564 180.541C239.061 184.663 242.651 189.675 245.105 195.26C247.559 200.845 248.823 206.879 248.817 212.98C248.799 220.702 246.759 228.286 242.9 234.975C239.042 241.665 233.499 247.228 226.823 251.111C221.546 254.174 215.687 256.102 209.622 256.772C203.557 257.442 197.419 256.839 191.6 255.002C190.954 254.814 190.278 254.754 189.61 254.828C188.941 254.901 188.294 255.105 187.704 255.428C187.115 255.751 186.595 256.187 186.174 256.712C185.753 257.236 185.439 257.838 185.251 258.483C185.063 259.129 185.004 259.805 185.077 260.473C185.15 261.142 185.354 261.789 185.677 262.379C186 262.968 186.437 263.488 186.961 263.909C187.485 264.33 188.087 264.644 188.733 264.832C195.871 267.055 203.394 267.774 210.824 266.942C218.254 266.11 225.432 263.746 231.902 259.999C240.142 255.218 246.985 248.36 251.75 240.111C256.514 231.861 259.034 222.506 259.057 212.98C259.065 205.495 257.522 198.09 254.527 191.231C251.531 184.372 247.146 178.208 241.65 173.128C241.179 172.65 240.618 172.269 239.999 172.009C239.381 171.749 238.717 171.614 238.046 171.612H238.005ZM285.925 175.053C283.713 175.094 281.502 175.38 279.331 175.79C278.282 175.952 277.309 176.437 276.548 177.176C275.786 177.915 275.273 178.873 275.08 179.916C274.887 180.96 275.022 182.038 275.468 183.001C275.914 183.964 276.649 184.765 277.57 185.292C278.716 185.948 279.986 186.111 281.174 185.866C287.787 184.511 294.667 185.633 300.506 189.019C304.707 191.454 308.196 194.948 310.625 199.152C313.054 203.356 314.338 208.124 314.35 212.98C314.35 220.024 311.728 226.455 307.387 231.329C306.733 232.065 306.305 232.975 306.155 233.949C306.005 234.922 306.139 235.918 306.541 236.818C306.943 237.717 307.596 238.481 308.422 239.019C309.248 239.556 310.211 239.844 311.196 239.848C312.834 239.848 314.268 239.11 315.169 237.964C321.247 231.061 324.596 222.177 324.589 212.98C324.573 206.325 322.814 199.791 319.487 194.027C316.159 188.264 311.38 183.473 305.626 180.132C299.661 176.672 292.86 174.915 285.966 175.053H285.925ZM41.7358 175.053C34.8197 174.932 28.0039 176.718 22.0352 180.213C16.2923 183.548 11.521 188.326 8.19459 194.074C4.86816 199.821 3.10218 206.339 3.07182 212.98C3.07182 222.564 6.63513 231.288 12.4921 237.964C13.1657 238.771 14.0718 239.352 15.0871 239.627C16.1024 239.901 17.1776 239.857 18.1666 239.499C19.1556 239.141 20.0103 238.487 20.6146 237.626C21.2188 236.765 21.5432 235.739 21.5437 234.687C21.5437 233.458 21.0932 232.23 20.274 231.329C15.7806 226.274 13.3024 219.743 13.3112 212.98C13.3112 203.15 18.6357 193.934 27.1549 189.019C32.9941 185.633 39.8742 184.511 46.4869 185.866C47.1484 185.987 47.8274 185.976 48.4849 185.835C49.1424 185.693 49.7657 185.424 50.319 185.042C50.8724 184.659 51.3451 184.172 51.7101 183.607C52.075 183.042 52.3252 182.411 52.4462 181.749C52.5672 181.088 52.5568 180.409 52.4154 179.751C52.274 179.094 52.0045 178.471 51.6223 177.917C51.2401 177.364 50.7526 176.891 50.1877 176.526C49.6228 176.161 48.9915 175.911 48.33 175.79C46.1583 175.348 43.9514 175.102 41.7358 175.053ZM491.491 177.387C482.938 187.26 478.214 199.876 478.18 212.939C478.154 226.037 482.884 238.699 491.491 248.572V229.158C487.391 218.776 487.391 207.224 491.491 196.842V177.346V177.387ZM426 186.07C424.403 186.07 422.969 186.849 422.027 187.995C415.949 194.898 412.6 203.782 412.607 212.98C412.63 219.627 414.393 226.153 417.719 231.908C421.046 237.664 425.821 242.448 431.57 245.787C439.525 250.399 448.892 251.943 457.906 250.128C458.568 250.007 459.199 249.757 459.764 249.392C460.329 249.027 460.816 248.554 461.198 248.001C461.581 247.448 461.85 246.824 461.991 246.167C462.133 245.509 462.143 244.83 462.022 244.169C461.901 243.507 461.651 242.876 461.286 242.311C460.921 241.746 460.448 241.259 459.895 240.876C459.342 240.494 458.718 240.225 458.061 240.083C457.403 239.942 456.724 239.931 456.063 240.052C449.442 241.43 442.546 240.322 436.69 236.94C432.491 234.496 429.006 230.994 426.584 226.782C424.162 222.57 422.887 217.797 422.887 212.939C422.887 205.935 425.508 199.504 429.85 194.631C430.506 193.891 430.935 192.978 431.083 192C431.232 191.023 431.094 190.023 430.687 189.123C430.28 188.222 429.621 187.458 428.789 186.924C427.957 186.389 426.989 186.107 426 186.111V186.07ZM229.363 186.111C228.374 186.107 227.405 186.389 226.573 186.924C225.742 187.458 225.082 188.222 224.675 189.123C224.268 190.023 224.131 191.023 224.279 192C224.428 192.978 224.856 193.891 225.513 194.631C230.006 199.685 232.484 206.216 232.475 212.98C232.475 222.809 227.151 232.025 218.673 236.94C212.822 240.336 205.925 241.459 199.3 240.093C198.638 239.972 197.959 239.983 197.302 240.124C196.644 240.266 196.021 240.535 195.468 240.917C194.914 241.3 194.441 241.787 194.076 242.352C193.712 242.917 193.461 243.548 193.34 244.21C193.219 244.871 193.23 245.55 193.371 246.208C193.513 246.865 193.782 247.488 194.164 248.042C194.546 248.595 195.034 249.068 195.599 249.433C196.164 249.798 196.795 250.048 197.457 250.169C206.14 251.889 215.478 250.579 223.792 245.828C229.532 242.476 234.294 237.68 237.607 231.918C240.919 226.155 242.666 219.626 242.674 212.98C242.674 203.395 239.11 194.671 233.254 187.995C232.773 187.406 232.167 186.931 231.48 186.605C230.792 186.279 230.041 186.111 229.281 186.111H229.363ZM286.376 191.436C285.802 191.436 285.27 191.477 284.737 191.559C284.053 191.595 283.383 191.769 282.767 192.07C282.151 192.371 281.601 192.792 281.151 193.309C280.701 193.826 280.359 194.428 280.146 195.079C279.933 195.731 279.853 196.418 279.91 197.101C279.968 197.784 280.162 198.449 280.481 199.055C280.801 199.662 281.238 200.198 281.769 200.632C282.299 201.067 282.911 201.39 283.569 201.583C284.227 201.776 284.916 201.836 285.597 201.757C287.752 201.559 289.918 201.984 291.839 202.981C293.759 203.978 295.353 205.505 296.431 207.381C297.509 209.257 298.027 211.403 297.921 213.565C297.816 215.726 297.092 217.811 295.837 219.574C295.455 220.128 295.186 220.751 295.045 221.409C294.904 222.067 294.894 222.747 295.016 223.408C295.138 224.07 295.389 224.702 295.754 225.266C296.12 225.831 296.593 226.318 297.147 226.7C297.701 227.082 298.325 227.351 298.983 227.492C299.641 227.633 300.32 227.643 300.982 227.521C301.644 227.399 302.275 227.148 302.84 226.783C303.405 226.417 303.892 225.944 304.274 225.39C306.855 221.766 308.243 217.428 308.247 212.98C308.247 205.32 304.11 198.153 297.475 194.344C294.093 192.388 290.24 191.397 286.335 191.477L286.376 191.436ZM41.4081 191.477C37.5991 191.395 33.7491 192.337 30.2677 194.344C26.9909 196.231 24.2674 198.945 22.3698 202.216C20.4721 205.487 19.467 209.198 19.4549 212.98C19.4498 217.442 20.8387 221.795 23.4277 225.431C23.8123 225.985 24.3022 226.457 24.8695 226.822C25.4369 227.187 26.0704 227.436 26.7341 227.556C27.3978 227.676 28.0785 227.664 28.7375 227.52C29.3965 227.377 30.0208 227.105 30.5748 226.721C31.1288 226.336 31.6017 225.846 31.9663 225.279C32.331 224.712 32.5803 224.078 32.7001 223.414C32.8199 222.751 32.8079 222.07 32.6646 221.411C32.5213 220.752 32.2496 220.128 31.865 219.574C30.6094 217.811 29.886 215.726 29.7806 213.565C29.6752 211.403 30.1923 209.257 31.2705 207.381C32.3487 205.505 33.9426 203.978 35.8631 202.981C37.7835 201.984 39.9497 201.559 42.1044 201.757C42.7798 201.827 43.4624 201.763 44.1124 201.566C44.7625 201.37 45.3671 201.047 45.891 200.615C46.4148 200.183 46.8476 199.651 47.1639 199.05C47.4803 198.45 47.674 197.792 47.7338 197.115C47.7935 196.439 47.7182 195.758 47.512 195.111C47.3059 194.464 46.9731 193.864 46.5331 193.347C46.0931 192.83 45.5546 192.406 44.949 192.098C44.3433 191.791 43.6827 191.608 43.0055 191.559C42.4603 191.515 41.914 191.488 41.3672 191.477H41.4081ZM437.263 198.276C435.502 198.276 433.987 199.136 433.004 200.528C430.429 204.168 429.055 208.521 429.072 212.98C429.08 216.752 430.074 220.457 431.957 223.726C433.839 226.995 436.544 229.715 439.803 231.615C443.667 233.856 448.136 234.83 452.581 234.4C453.254 234.341 453.908 234.15 454.506 233.838C455.105 233.526 455.636 233.099 456.07 232.582C456.503 232.065 456.831 231.467 457.033 230.824C457.236 230.18 457.31 229.502 457.251 228.83C457.191 228.158 457 227.504 456.689 226.905C456.377 226.307 455.95 225.775 455.433 225.342C454.915 224.908 454.318 224.581 453.674 224.378C453.03 224.176 452.353 224.102 451.68 224.161C449.532 224.352 447.374 223.925 445.461 222.929C443.548 221.934 441.96 220.412 440.883 218.544C439.807 216.675 439.287 214.537 439.386 212.383C439.485 210.229 440.198 208.148 441.441 206.385C441.992 205.619 442.321 204.715 442.391 203.774C442.461 202.832 442.269 201.89 441.836 201.051C441.404 200.212 440.748 199.508 439.941 199.019C439.134 198.529 438.207 198.272 437.263 198.276ZM218.14 198.276C217.196 198.272 216.269 198.529 215.462 199.019C214.655 199.508 213.999 200.212 213.567 201.051C213.135 201.89 212.943 202.832 213.013 203.774C213.082 204.715 213.411 205.619 213.963 206.385C215.218 208.148 215.941 210.233 216.047 212.394C216.152 214.556 215.635 216.702 214.557 218.578C213.479 220.454 211.885 221.981 209.964 222.978C208.044 223.975 205.878 224.4 203.723 224.202C203.051 224.143 202.373 224.217 201.73 224.419C201.086 224.622 200.488 224.949 199.971 225.383C199.454 225.816 199.027 226.348 198.715 226.946C198.403 227.545 198.212 228.199 198.153 228.871C198.094 229.543 198.168 230.221 198.37 230.865C198.573 231.508 198.9 232.106 199.334 232.623C199.767 233.14 200.299 233.567 200.897 233.879C201.496 234.191 202.15 234.382 202.822 234.441C207.123 234.851 211.587 233.95 215.601 231.574C218.849 229.675 221.544 226.96 223.419 223.699C225.294 220.437 226.284 216.742 226.291 212.98C226.291 208.351 224.816 204.051 222.318 200.528C221.851 199.838 221.223 199.272 220.488 198.879C219.753 198.487 218.933 198.279 218.099 198.276H218.14ZM40.9576 207.86C39.5998 207.86 38.2976 208.399 37.3374 209.359C36.3773 210.319 35.8379 211.622 35.8379 212.98C35.8379 214.337 36.3773 215.64 37.3374 216.6C38.2976 217.56 39.5998 218.099 40.9576 218.099C42.3154 218.099 43.6176 217.56 44.5778 216.6C45.5379 215.64 46.0773 214.337 46.0773 212.98C46.0773 211.622 45.5379 210.319 44.5778 209.359C43.6176 208.399 42.3154 207.86 40.9576 207.86ZM450.534 207.86C449.176 207.86 447.874 208.399 446.913 209.359C445.953 210.319 445.414 211.622 445.414 212.98C445.414 214.337 445.953 215.64 446.913 216.6C447.874 217.56 449.176 218.099 450.534 218.099C451.891 218.099 453.194 217.56 454.154 216.6C455.114 215.64 455.653 214.337 455.653 212.98C455.653 211.622 455.114 210.319 454.154 209.359C453.194 208.399 451.891 207.86 450.534 207.86ZM205.157 207.86C203.799 207.762 202.458 208.208 201.428 209.099C200.399 209.99 199.766 211.253 199.668 212.611C199.571 213.969 200.016 215.31 200.907 216.339C201.798 217.368 203.062 218.001 204.419 218.099C205.092 218.148 205.767 218.063 206.407 217.851C207.046 217.638 207.638 217.302 208.148 216.86C208.657 216.419 209.075 215.882 209.377 215.279C209.679 214.677 209.859 214.02 209.908 213.348C209.956 212.676 209.872 212.001 209.659 211.361C209.446 210.721 209.11 210.13 208.669 209.62C208.228 209.11 207.69 208.693 207.088 208.391C206.485 208.089 205.829 207.908 205.157 207.86ZM286.335 207.86C285.662 207.908 285.006 208.089 284.403 208.391C283.801 208.693 283.264 209.11 282.822 209.62C282.381 210.13 282.045 210.721 281.832 211.361C281.62 212.001 281.535 212.676 281.583 213.348C281.632 214.02 281.812 214.677 282.114 215.279C282.416 215.882 282.834 216.419 283.344 216.86C283.853 217.302 284.445 217.638 285.085 217.851C285.724 218.063 286.399 218.148 287.072 218.099C288.43 218.001 289.693 217.368 290.584 216.339C291.475 215.31 291.921 213.969 291.823 212.611C291.725 211.253 291.092 209.99 290.063 209.099C289.033 208.208 287.692 207.762 286.335 207.86ZM81.9562 213.307C64.62 213.273 47.8778 219.621 34.9227 231.141C21.9675 242.661 13.706 258.546 11.7139 275.768C11.5513 276.727 11.6652 277.712 12.0424 278.609C12.4197 279.505 13.0445 280.276 13.8438 280.83C14.6431 281.385 15.5838 281.7 16.5558 281.739C17.5278 281.778 18.4907 281.539 19.332 281.051C20.0245 280.644 20.6115 280.08 21.0455 279.404C21.4795 278.728 21.7484 277.959 21.8304 277.16C22.891 267.76 26.1458 258.741 31.3321 250.83C36.5185 242.918 43.4914 236.337 51.6885 231.615C60.8791 226.333 71.2942 223.553 81.8947 223.553C92.4952 223.553 102.91 226.333 112.101 231.615C120.296 236.345 127.264 242.936 132.443 250.854C137.622 258.773 140.868 267.798 141.918 277.201C141.971 277.9 142.166 278.58 142.493 279.2C142.819 279.819 143.269 280.366 143.815 280.805C144.361 281.244 144.991 281.566 145.666 281.752C146.342 281.937 147.048 281.982 147.742 281.884C148.435 281.786 149.101 281.546 149.698 281.18C150.296 280.814 150.811 280.33 151.214 279.756C151.616 279.183 151.897 278.533 152.038 277.847C152.179 277.161 152.178 276.453 152.035 275.768C150.045 258.567 141.801 242.699 128.872 231.182C115.942 219.665 99.2302 213.303 81.9152 213.307H81.9562ZM0 229.158V248.572C1.28747 250.064 2.65472 251.486 4.09576 252.831C4.80946 253.555 5.72241 254.05 6.71833 254.253C7.71425 254.456 8.74806 254.358 9.68809 253.971C10.6281 253.585 11.4318 252.927 11.9968 252.082C12.5618 251.237 12.8625 250.243 12.8607 249.227C12.8607 247.712 12.2054 246.36 11.2224 245.459C6.2963 240.944 2.45912 235.371 0 229.158H0ZM81.9152 229.69C69.609 229.668 57.6621 233.838 48.0431 241.514C38.4241 249.19 31.7068 259.913 28.998 271.917C28.6721 273.237 28.8839 274.633 29.5867 275.796C30.2895 276.96 31.4258 277.797 32.7456 278.123C34.0654 278.448 35.4606 278.237 36.6243 277.534C37.788 276.831 38.6248 275.695 38.9507 274.375C40.2689 268.415 42.8144 262.794 46.4249 257.872C50.0354 252.95 54.6318 248.834 59.921 245.787C66.6183 241.934 74.2094 239.907 81.9357 239.907C89.662 239.907 97.253 241.934 103.95 245.787C109.236 248.843 113.828 252.967 117.431 257.896C121.035 262.826 123.571 268.452 124.88 274.416C125.108 275.418 125.633 276.329 126.386 277.029C127.139 277.729 128.085 278.187 129.102 278.341C130.118 278.496 131.158 278.341 132.085 277.897C133.012 277.452 133.784 276.739 134.3 275.849C135.037 274.621 135.16 273.228 134.832 271.958C132.132 259.946 125.418 249.214 115.798 241.53C106.178 233.846 94.2271 229.67 81.9152 229.69ZM81.9152 246.073C73.9975 246.052 66.2735 248.52 59.8351 253.128C53.3967 257.737 48.5696 264.252 46.0363 271.754C45.5801 273.035 45.6518 274.446 46.2355 275.675C46.8193 276.904 47.8673 277.851 49.1491 278.307C50.4309 278.763 51.8414 278.691 53.0704 278.108C54.2994 277.524 55.2461 276.476 55.7023 275.194C57.8355 268.778 62.2522 263.371 68.1125 259.999C72.318 257.58 77.0844 256.308 81.9357 256.308C86.787 256.308 91.5534 257.58 95.7589 259.999C101.604 263.378 106.005 268.785 108.128 275.194C108.439 276.132 109.014 276.96 109.785 277.577C110.556 278.195 111.489 278.577 112.472 278.677C113.454 278.776 114.445 278.589 115.324 278.139C116.203 277.688 116.933 276.992 117.425 276.136C118.245 274.744 118.326 273.146 117.794 271.754C115.261 264.252 110.434 257.737 103.995 253.128C97.5569 248.52 89.8329 246.052 81.9152 246.073ZM0 257.418V270.443C1.15128 270.934 2.44242 270.986 3.62945 270.589C4.81648 270.193 5.81717 269.375 6.44243 268.291C7.06768 267.207 7.27419 265.931 7.02293 264.705C6.77167 263.479 6.08004 262.388 5.07874 261.637C3.3091 260.311 1.61363 258.889 0 257.378L0 257.418ZM81.9152 262.456C77.801 262.457 73.7734 263.639 70.3105 265.86C66.8476 268.082 64.0946 271.25 62.3784 274.989C62.0488 275.602 61.8476 276.276 61.7871 276.969C61.7266 277.663 61.8081 278.361 62.0266 279.022C62.2452 279.683 62.5961 280.292 63.0581 280.812C63.52 281.333 64.0833 281.754 64.7134 282.049C65.3435 282.345 66.0272 282.509 66.7228 282.531C67.4185 282.554 68.1113 282.434 68.7591 282.18C69.4069 281.925 69.996 281.541 70.4905 281.051C70.9849 280.562 71.3743 279.976 71.6348 279.331C72.5357 277.361 73.9835 275.691 75.8061 274.521C77.6286 273.35 79.7491 272.728 81.9152 272.728C84.0813 272.728 86.2018 273.35 88.0243 274.521C89.8469 275.691 91.2947 277.361 92.1956 279.331C92.4561 279.976 92.8455 280.562 93.3399 281.051C93.8344 281.541 94.4235 281.925 95.0713 282.18C95.7191 282.434 96.4119 282.554 97.1076 282.531C97.8032 282.509 98.4869 282.345 99.117 282.049C99.7471 281.754 100.31 281.333 100.772 280.812C101.234 280.292 101.585 279.683 101.804 279.022C102.022 278.361 102.104 277.663 102.043 276.969C101.983 276.276 101.782 275.602 101.452 274.989C99.744 271.244 96.993 268.07 93.5283 265.847C90.0635 263.625 86.0316 262.447 81.9152 262.456ZM81.5466 278.839C80.2536 278.933 79.0442 279.513 78.1624 280.463C77.2806 281.413 76.7921 282.663 76.7955 283.959H87.0349C87.0367 283.255 86.8931 282.557 86.6131 281.911C86.3331 281.264 85.9226 280.683 85.4075 280.202C84.8923 279.721 84.2835 279.352 83.6192 279.118C82.9548 278.883 82.2493 278.789 81.5466 278.839ZM409.945 278.839C409.241 278.782 408.532 278.873 407.865 279.105C407.198 279.337 406.587 279.706 406.07 280.188C405.554 280.67 405.144 281.254 404.866 281.903C404.588 282.553 404.448 283.253 404.456 283.959H414.696C414.709 282.66 414.224 281.405 413.34 280.453C412.456 279.5 411.241 278.923 409.945 278.839Z" fill="white"/>
</svg>
