<svg xmlns="http://www.w3.org/2000/svg" width="14" height="12" viewBox="0 0 14 12" fill="none">
  <path d="M3.85463 0.146039C3.80819 0.099476 3.75301 0.0625333 3.69227 0.0373268C3.63152 0.0121204 3.5664 -0.000854492 3.50063 -0.000854492C3.43486 -0.000854492 3.36974 0.0121204 3.309 0.0373268C3.24825 0.0625333 3.19308 0.099476 3.14663 0.146039L0.146632 3.14604C0.052745 3.23993 0 3.36726 0 3.50004C0 3.63282 0.052745 3.76015 0.146632 3.85404C0.240518 3.94793 0.367856 4.00067 0.500632 4.00067C0.633407 4.00067 0.760745 3.94793 0.854632 3.85404L3.00063 1.70704V11.5C3.00063 11.6326 3.05331 11.7598 3.14708 11.8536C3.24085 11.9474 3.36802 12 3.50063 12C3.63324 12 3.76042 11.9474 3.85418 11.8536C3.94795 11.7598 4.00063 11.6326 4.00063 11.5V1.70704L6.14663 3.85404C6.24052 3.94793 6.36786 4.00067 6.50063 4.00067C6.63341 4.00067 6.76075 3.94793 6.85463 3.85404C6.94852 3.76015 7.00126 3.63282 7.00126 3.50004C7.00126 3.36726 6.94852 3.23993 6.85463 3.14604L3.85463 0.146039ZM10.1526 11.86C10.2459 11.9505 10.3707 12.001 10.5006 12.001C10.6305 12.001 10.7554 11.9505 10.8486 11.86L13.8486 8.96004C13.9441 8.86774 13.999 8.7413 14.0013 8.60852C14.0035 8.47575 13.9529 8.34752 13.8606 8.25204C13.7683 8.15656 13.6419 8.10166 13.5091 8.09941C13.3763 8.09716 13.2481 8.14774 13.1526 8.24004L11.0006 10.321V0.501039C11.0006 0.368431 10.948 0.241254 10.8542 0.147486C10.7604 0.0537178 10.6332 0.00103927 10.5006 0.00103927C10.368 0.00103927 10.2408 0.0537178 10.1471 0.147486C10.0533 0.241254 10.0006 0.368431 10.0006 0.501039V10.321L7.84863 8.24104C7.80161 8.19475 7.74589 8.15822 7.68468 8.13356C7.62347 8.1089 7.55799 8.09661 7.49201 8.09738C7.42603 8.09815 7.36085 8.11197 7.30024 8.13805C7.23962 8.16413 7.18477 8.20195 7.13884 8.24933C7.09291 8.29671 7.05682 8.35272 7.03263 8.41411C7.00845 8.47551 6.99666 8.54108 6.99795 8.60706C6.99923 8.67303 7.01356 8.7381 7.0401 8.79851C7.06665 8.85892 7.1049 8.91348 7.15263 8.95904L10.1526 11.859V11.86Z" fill="#8999B9"/>
</svg>