<svg xmlns="http://www.w3.org/2000/svg" width="20" height="20" viewBox="0 0 20 20" fill="none">
  <path d="M19.0007 7.91602H15.834C15.5007 7.91602 15.1673 7.66602 15.1673 7.24935C15.1673 6.83268 15.4173 6.66602 15.7507 6.66602H16.834L10.1673 2.24935L3.50065 6.66602H14.084C14.4173 6.66602 14.7507 6.91602 14.7507 7.33268C14.7507 7.74935 14.5007 7.99935 14.084 7.99935H1.50065C1.16732 7.91602 0.917318 7.74935 0.833984 7.41602C0.750651 7.16602 0.833984 6.83268 1.08398 6.74935L9.83398 0.916016C10.084 0.749349 10.334 0.749349 10.5007 0.916016L19.2507 6.74935C19.5007 6.91602 19.584 7.16602 19.5007 7.41602C19.5007 7.74935 19.2507 7.91602 19.0007 7.91602Z" fill="#8999B9"/>
  <path d="M2.16667 17.8327C1.83333 17.8327 1.5 17.5827 1.5 17.166V9.08268C1.5 8.74935 1.75 8.41602 2.16667 8.41602C2.58333 8.41602 2.83333 8.66601 2.83333 9.08268V17.2493C2.83333 17.5827 2.58333 17.8327 2.16667 17.8327Z" fill="#8999B9"/>
  <path d="M5.75065 17.8327C5.41732 17.8327 5.08398 17.5827 5.08398 17.166V9.08268C5.08398 8.74935 5.33398 8.41602 5.75065 8.41602C6.16732 8.41602 6.41732 8.66601 6.41732 9.08268V17.2493C6.41732 17.5827 6.16732 17.8327 5.75065 17.8327Z" fill="#8999B9"/>
  <path fill-rule="evenodd" clip-rule="evenodd" d="M11.815 19.583C11.4133 19.2203 11.0655 18.7992 10.7848 18.333H1.40036C1.04637 18.333 0.833984 18.4997 0.833984 18.9163C0.833984 19.333 1.11717 19.583 1.40036 19.583H11.815Z" fill="#8999B9"/>
  <path fill-rule="evenodd" clip-rule="evenodd" d="M15.3333 10.0015C14.8724 10.0152 14.4257 10.0857 14 10.2061V9.08268C14 8.74935 14.25 8.41602 14.6667 8.41602C15.0833 8.41602 15.3333 8.66601 15.3333 9.08268V10.0015Z" fill="#8999B9"/>
  <path fill-rule="evenodd" clip-rule="evenodd" d="M18.9173 11.1892C18.5149 10.8697 18.0666 10.6053 17.584 10.4076V8.98239C17.584 8.6992 17.834 8.41602 18.2507 8.41602C18.6673 8.41602 18.9173 8.6284 18.9173 8.98239V11.1892Z" fill="#8999B9"/>
  <path fill-rule="evenodd" clip-rule="evenodd" d="M9.53906 16C9.53906 16.2523 9.74829 16.4615 10.0006 16.4615C10.0285 16.4615 10.0558 16.459 10.0825 16.4541C10.0283 16.1442 10 15.8254 10 15.5C10 14.7138 10.165 13.9662 10.4621 13.2897V10.4615C10.4621 10.2092 10.2529 10 10.0006 10C9.74829 10 9.53906 10.2092 9.53906 10.4615V16Z" fill="#8999B9"/>
  <path fill-rule="evenodd" clip-rule="evenodd" d="M11.8188 11.4135C11.5655 10.9346 11.073 10.6094 10.5108 10.6094H9.35385C8.60924 10.6094 8 11.2432 8 12.0125C8 12.9171 8.52923 13.2001 8.92308 13.3417L10.2646 13.8097C10.3603 13.5132 10.4804 13.2277 10.6227 12.9555L9.22461 12.4678C9.01538 12.394 8.92308 12.3448 8.92308 12.0125C8.92308 11.7478 9.11385 11.5325 9.35385 11.5325H10.5108C10.8246 11.5325 11.0769 11.8094 11.0769 12.1478C11.0769 12.1731 11.079 12.1979 11.083 12.2221C11.3011 11.9288 11.5478 11.6578 11.8188 11.4135ZM10.0107 15.8463C10.0036 15.7318 10 15.6163 10 15.5C10 15.3052 10.0101 15.1128 10.0299 14.9232H9.48924C9.17539 14.9232 8.92308 14.6463 8.92308 14.3078C8.92308 14.0555 8.71385 13.8463 8.46154 13.8463C8.20923 13.8463 8 14.0555 8 14.3078C8 15.1571 8.67078 15.8463 9.48924 15.8463H10.0107Z" fill="#8999B9"/>
  <path d="M15.5 19C17.425 19 19 17.425 19 15.5C19 13.575 17.425 12 15.5 12C13.575 12 12 13.575 12 15.5C12 17.425 13.575 19 15.5 19Z" stroke="#8999B9" stroke-linecap="round" stroke-linejoin="round"/>
  <path d="M13.834 15.4953L14.966 16.6273L17.234 14.3633" stroke="#8999B9" stroke-width="0.9" stroke-linecap="round" stroke-linejoin="round"/>
</svg>