<svg width="20" height="20" viewBox="0 0 20 20" fill="none" xmlns="http://www.w3.org/2000/svg">
<g clip-path="url(#clip0_517_16612)">
<g clip-path="url(#clip1_517_16612)">
<path d="M19.0007 7.91602H15.834C15.5007 7.91602 15.1673 7.66602 15.1673 7.24935C15.1673 6.83268 15.4173 6.66602 15.7507 6.66602H16.834L10.1673 2.24935L3.50065 6.66602H14.084C14.4173 6.66602 14.7507 6.91602 14.7507 7.33268C14.7507 7.74935 14.5007 7.99935 14.084 7.99935H1.50065C1.16732 7.91602 0.917318 7.74935 0.833984 7.41602C0.750651 7.16602 0.833984 6.83268 1.08398 6.74935L9.83398 0.916016C10.084 0.749349 10.334 0.749349 10.5007 0.916016L19.2507 6.74935C19.5007 6.91602 19.584 7.16602 19.5007 7.41602C19.5007 7.74935 19.2507 7.91602 19.0007 7.91602Z" fill="#8999B9"/>
<path d="M19.0007 19.583H1.50065C1.16732 19.583 0.833984 19.333 0.833984 18.9163C0.833984 18.4997 1.08398 18.333 1.50065 18.333H19.0007C19.334 18.333 19.6673 18.583 19.6673 18.9997C19.6673 19.4163 19.334 19.583 19.0007 19.583Z" fill="#8999B9"/>
<path d="M2.16667 17.8327C1.83333 17.8327 1.5 17.5827 1.5 17.166V9.08268C1.5 8.74935 1.75 8.41602 2.16667 8.41602C2.58333 8.41602 2.83333 8.66601 2.83333 9.08268V17.2493C2.83333 17.5827 2.58333 17.8327 2.16667 17.8327Z" fill="#8999B9"/>
<path d="M18.2507 17.8327C17.9173 17.8327 17.584 17.5827 17.584 17.166V9.08268C17.584 8.74935 17.834 8.41602 18.2507 8.41602C18.6673 8.41602 18.9173 8.66601 18.9173 9.08268V17.2493C18.834 17.5827 18.584 17.8327 18.2507 17.8327Z" fill="#8999B9"/>
<path d="M5.75065 17.8327C5.41732 17.8327 5.08398 17.5827 5.08398 17.166V9.08268C5.08398 8.74935 5.33398 8.41602 5.75065 8.41602C6.16732 8.41602 6.41732 8.66601 6.41732 9.08268V17.2493C6.41732 17.5827 6.16732 17.8327 5.75065 17.8327Z" fill="#8999B9"/>
<path d="M14.6667 17.8327C14.3333 17.8327 14 17.5827 14 17.166V9.08268C14 8.74935 14.25 8.41602 14.6667 8.41602C15.0833 8.41602 15.3333 8.66601 15.3333 9.08268V17.2493C15.25 17.5827 15 17.8327 14.6667 17.8327Z" fill="#8999B9"/>
</g>
<path d="M10.6461 15.8463H9.48924C8.67078 15.8463 8 15.1571 8 14.3078C8 14.0555 8.20923 13.8463 8.46154 13.8463C8.71385 13.8463 8.92308 14.0555 8.92308 14.3078C8.92308 14.6463 9.17539 14.9232 9.48924 14.9232H10.6461C10.8861 14.9232 11.0769 14.7078 11.0769 14.4432C11.0769 14.1109 10.9846 14.0617 10.7754 13.9878L8.92308 13.3417C8.52923 13.2001 8 12.9171 8 12.0125C8 11.2432 8.60924 10.6094 9.35385 10.6094H10.5108C11.3292 10.6094 12 11.2986 12 12.1478C12 12.4001 11.7908 12.6094 11.5385 12.6094C11.2862 12.6094 11.0769 12.4001 11.0769 12.1478C11.0769 11.8094 10.8246 11.5325 10.5108 11.5325H9.35385C9.11385 11.5325 8.92308 11.7478 8.92308 12.0125C8.92308 12.3448 9.01538 12.394 9.22461 12.4678L11.0769 13.114C11.4708 13.2555 12 13.5386 12 14.4432C12 15.2186 11.3908 15.8463 10.6461 15.8463Z" fill="#8999B9"/>
<path d="M10.0006 16.4615C9.74829 16.4615 9.53906 16.2523 9.53906 16V10.4615C9.53906 10.2092 9.74829 10 10.0006 10C10.2529 10 10.4621 10.2092 10.4621 10.4615V16C10.4621 16.2523 10.2529 16.4615 10.0006 16.4615Z" fill="#8999B9"/>
</g>
<defs>
<clipPath id="clip0_517_16612">
<rect width="20" height="20" fill="white"/>
</clipPath>
<clipPath id="clip1_517_16612">
<rect width="18.75" height="18.75" fill="white" transform="translate(0.833984 0.833008)"/>
</clipPath>
</defs>
</svg>
