<svg xmlns="http://www.w3.org/2000/svg" width="18" height="18" viewBox="0 0 18 18" fill="none">
  <path d="M11.6573 17.2861H6.26522C5.94804 17.2861 5.63086 17.0482 5.63086 16.6517C5.63086 16.2552 5.86874 16.0173 6.26522 16.0173H11.6573C11.9745 16.0173 12.2917 16.2552 12.2917 16.6517C12.2917 17.0482 11.9745 17.2861 11.6573 17.2861Z" fill="#8999B9"/>
  <path d="M15.6211 15.066H2.29956C1.03084 15.066 0 14.1938 0 13.0837V2.696C0 1.58587 1.03084 0.713623 2.29956 0.713623H15.6211C16.8899 0.713623 17.9207 1.58587 17.9207 2.696V9.83257C17.9207 10.1497 17.6828 10.4669 17.2863 10.4669C16.8899 10.4669 16.652 10.229 16.652 9.91186V2.7753C16.652 2.29953 16.1762 1.98235 15.5419 1.98235H2.29956C1.74449 1.98235 1.18943 2.37882 1.18943 2.7753V13.163C1.18943 13.6387 1.6652 13.9559 2.29956 13.9559H15.6211C16.1762 13.9559 16.7313 13.5594 16.7313 13.163V11.7356C16.7313 11.4185 16.9692 11.1013 17.3656 11.1013C17.7621 11.1013 18 11.3392 18 11.7356V13.163C17.8414 14.1938 16.8106 15.066 15.6211 15.066Z" fill="#8999B9"/>
  <path d="M14.2305 11.9995C14.2038 11.9986 14.1771 11.9964 14.1506 11.9927H11.7486C11.6494 11.9941 11.5509 11.9758 11.4588 11.9388C11.3667 11.9019 11.2828 11.847 11.2122 11.7774C11.1415 11.7079 11.0854 11.6249 11.047 11.5335C11.0087 11.4421 10.989 11.344 10.989 11.2449C10.989 11.1458 11.0087 11.0477 11.047 10.9563C11.0854 10.8649 11.1415 10.782 11.2122 10.7124C11.2828 10.6428 11.3667 10.5879 11.4588 10.551C11.5509 10.514 11.6494 10.4957 11.7486 10.4971H12.4371L9.75143 7.81572L7.28514 10.2781C7.14468 10.4183 6.95421 10.497 6.75561 10.497C6.55701 10.497 6.36654 10.4183 6.22608 10.2781L3.23026 7.28703C3.15838 7.21813 3.101 7.1356 3.06147 7.04428C3.02194 6.95295 3.00105 6.85467 3.00004 6.75519C2.99903 6.65571 3.0179 6.55703 3.05557 6.46492C3.09323 6.37282 3.14893 6.28914 3.21939 6.21879C3.28985 6.14844 3.37366 6.09284 3.46591 6.05524C3.55816 6.01763 3.657 5.99878 3.75664 5.99979C3.85628 6.00081 3.95472 6.02166 4.04619 6.06113C4.13766 6.10059 4.22032 6.15789 4.28933 6.22965L6.75561 8.692L9.22189 6.22965C9.36235 6.08947 9.55282 6.01073 9.75143 6.01073C9.95003 6.01073 10.1405 6.08947 10.281 6.22965L13.4962 9.43976V8.75237C13.4948 8.65328 13.5131 8.5549 13.5501 8.46295C13.5871 8.371 13.6421 8.28731 13.7118 8.21675C13.7815 8.14618 13.8645 8.09015 13.9561 8.0519C14.0476 8.01365 14.1459 7.99396 14.2451 7.99396C14.3444 7.99396 14.4427 8.01365 14.5342 8.0519C14.6258 8.09015 14.7088 8.14618 14.7785 8.21675C14.8482 8.28731 14.9032 8.371 14.9402 8.46295C14.9772 8.5549 14.9955 8.65328 14.9941 8.75237V11.1582C15.0076 11.2652 14.9978 11.3739 14.9654 11.4767C14.9329 11.5796 14.8785 11.6742 14.806 11.7541C14.7335 11.834 14.6445 11.8973 14.5451 11.9397C14.4458 11.982 14.3385 12.0024 14.2305 11.9995Z" fill="#8999B9"/>
</svg>