<svg xmlns="http://www.w3.org/2000/svg" width="18" height="18" viewBox="0 0 18 18" fill="none">
  <path d="M5.15408 11.6559C4.8369 11.6559 4.51971 11.418 4.51971 11.0215V7.13607C4.51971 6.81889 4.7576 6.50171 5.15408 6.50171C5.55055 6.50171 5.78844 6.73959 5.78844 7.13607V11.0215C5.70914 11.418 5.47126 11.6559 5.15408 11.6559Z" fill="#8999B9"/>
  <path d="M7.53291 11.656C7.21573 11.656 6.89854 11.4181 6.89854 11.0216V5.78817C6.89854 5.47099 7.13643 5.15381 7.53291 5.15381C7.92938 5.15381 8.16727 5.39169 8.16727 5.78817V11.0216C8.16727 11.4181 7.92938 11.656 7.53291 11.656Z" fill="#8999B9"/>
  <path d="M9.99105 11.656C9.67387 11.656 9.35669 11.4181 9.35669 11.0216V7.6119C9.35669 7.29472 9.59458 6.97754 9.99105 6.97754C10.3875 6.97754 10.6254 7.21542 10.6254 7.6119V11.1009C10.6254 11.4181 10.3082 11.656 9.99105 11.656Z" fill="#8999B9"/>
  <path d="M12.4494 11.656C12.1322 11.656 11.815 11.4181 11.815 11.0216V5.31234C11.8943 4.99516 12.1322 4.67798 12.4494 4.67798C12.7666 4.67798 13.0838 4.91586 13.0838 5.31234V11.1009C13.0838 11.4181 12.7666 11.656 12.4494 11.656Z" fill="#8999B9"/>
  <path d="M13.7973 11.6561H4.044C3.72682 11.6561 3.40964 11.4182 3.40964 11.0217C3.40964 10.6252 3.64752 10.3873 4.044 10.3873H13.718C14.0352 10.3873 14.3524 10.6252 14.3524 11.0217C14.3524 11.4182 14.1145 11.6561 13.7973 11.6561Z" fill="#8999B9"/>
  <path d="M11.6565 17.2863H6.26438C5.9472 17.2863 5.63002 17.0484 5.63002 16.6519C5.63002 16.2555 5.86791 16.0176 6.26438 16.0176H11.6565C11.9736 16.0176 12.2908 16.2555 12.2908 16.6519C12.2908 17.0484 11.9736 17.2863 11.6565 17.2863Z" fill="#8999B9"/>
  <path d="M15.6211 15.066H2.29956C1.03084 15.066 0 14.1938 0 13.0837V2.696C0 1.58587 1.03084 0.713623 2.29956 0.713623H15.6211C16.8899 0.713623 17.9207 1.58587 17.9207 2.696V9.83257C17.9207 10.1497 17.6828 10.4669 17.2863 10.4669C16.8899 10.4669 16.652 10.229 16.652 9.91186V2.7753C16.652 2.29953 16.1762 1.98235 15.5419 1.98235H2.29956C1.74449 1.98235 1.18943 2.37882 1.18943 2.7753V13.163C1.18943 13.6387 1.6652 13.9559 2.29956 13.9559H15.6211C16.1762 13.9559 16.7313 13.5594 16.7313 13.163V11.7356C16.7313 11.4185 16.9692 11.1013 17.3656 11.1013C17.7621 11.1013 18 11.3392 18 11.7356V13.163C17.8414 14.1938 16.8106 15.066 15.6211 15.066Z" fill="#8999B9"/>
</svg>