<svg xmlns="http://www.w3.org/2000/svg" width="20" height="20" viewBox="0 0 20 20" fill="none">
  <path d="M15.625 8.75C15.625 8.91576 15.5592 9.07473 15.4419 9.19194C15.3247 9.30915 15.1658 9.375 15 9.375H11.875C11.7092 9.375 11.5503 9.30915 11.4331 9.19194C11.3158 9.07473 11.25 8.91576 11.25 8.75C11.25 8.58424 11.3158 8.42527 11.4331 8.30806C11.5503 8.19085 11.7092 8.125 11.875 8.125H15C15.1658 8.125 15.3247 8.19085 15.4419 8.30806C15.5592 8.42527 15.625 8.58424 15.625 8.75ZM15 10.625H11.875C11.7092 10.625 11.5503 10.6908 11.4331 10.8081C11.3158 10.9253 11.25 11.0842 11.25 11.25C11.25 11.4158 11.3158 11.5747 11.4331 11.6919C11.5503 11.8092 11.7092 11.875 11.875 11.875H15C15.1658 11.875 15.3247 11.8092 15.4419 11.6919C15.5592 11.5747 15.625 11.4158 15.625 11.25C15.625 11.0842 15.5592 10.9253 15.4419 10.8081C15.3247 10.6908 15.1658 10.625 15 10.625ZM10.2188 12.9688C10.2399 13.0478 10.2451 13.1302 10.2341 13.2112C10.2231 13.2923 10.196 13.3703 10.1546 13.4408C10.1132 13.5113 10.0581 13.5729 9.99271 13.6219C9.92727 13.671 9.85274 13.7066 9.77344 13.7266C9.69392 13.7478 9.611 13.7531 9.52944 13.7422C9.44787 13.7312 9.36926 13.7043 9.29813 13.6629C9.22699 13.6216 9.16473 13.5665 9.11491 13.501C9.06509 13.4355 9.02869 13.3609 9.00781 13.2812C8.9019 12.8814 8.66671 12.5277 8.33888 12.2754C8.01105 12.0231 7.60899 11.8863 7.19531 11.8863C6.78164 11.8863 6.37957 12.0231 6.05175 12.2754C5.72392 12.5277 5.48873 12.8814 5.38281 13.2812C5.34679 13.4154 5.2676 13.5341 5.15747 13.6188C5.04734 13.7035 4.91238 13.7496 4.77344 13.75L4.61719 13.7266C4.53789 13.7066 4.46336 13.671 4.39792 13.6219C4.33248 13.5729 4.27745 13.5113 4.23602 13.4408C4.19458 13.3703 4.16758 13.2923 4.15656 13.2112C4.14555 13.1302 4.15076 13.0478 4.17188 12.9688C4.36213 12.23 4.81479 11.5857 5.44531 11.1562C5.09068 10.8086 4.84761 10.3633 4.74708 9.877C4.64655 9.3907 4.69312 8.88547 4.88086 8.42575C5.0686 7.96602 5.38899 7.57262 5.80119 7.2957C6.2134 7.01878 6.69873 6.87089 7.19531 6.87089C7.6919 6.87089 8.17723 7.01878 8.58943 7.2957C9.00163 7.57262 9.32203 7.96602 9.50977 8.42575C9.6975 8.88547 9.74408 9.3907 9.64355 9.877C9.54302 10.3633 9.29994 10.8086 8.94531 11.1562C9.57584 11.5857 10.0285 12.23 10.2188 12.9688ZM7.19531 10.625C7.44254 10.625 7.68421 10.5517 7.88978 10.4143C8.09534 10.277 8.25555 10.0818 8.35016 9.85335C8.44477 9.62495 8.46953 9.37361 8.42129 9.13114C8.37306 8.88866 8.25401 8.66593 8.0792 8.49112C7.90438 8.3163 7.68165 8.19725 7.43918 8.14902C7.1967 8.10079 6.94537 8.12554 6.71696 8.22015C6.48855 8.31476 6.29333 8.47498 6.15598 8.68054C6.01862 8.8861 5.94531 9.12777 5.94531 9.375C5.94531 9.70652 6.07701 10.0245 6.31143 10.2589C6.54585 10.4933 6.86379 10.625 7.19531 10.625ZM18.125 4.375V15.625C18.125 15.9565 17.9933 16.2745 17.7589 16.5089C17.5245 16.7433 17.2065 16.875 16.875 16.875H3.125C2.79348 16.875 2.47554 16.7433 2.24112 16.5089C2.0067 16.2745 1.875 15.9565 1.875 15.625V4.375C1.875 4.04348 2.0067 3.72554 2.24112 3.49112C2.47554 3.2567 2.79348 3.125 3.125 3.125H16.875C17.2065 3.125 17.5245 3.2567 17.7589 3.49112C17.9933 3.72554 18.125 4.04348 18.125 4.375ZM16.875 15.625V4.375H3.125V15.625H16.875Z" fill="#8999B9"/>
</svg>