<svg xmlns="http://www.w3.org/2000/svg" width="20" height="20" viewBox="0 0 20 20" fill="none">
  <g clip-path="url(#clip0_515_16569)">
    <path d="M16.8346 4.24935H3.58464C3.2513 4.24935 2.91797 3.99935 2.91797 3.58268C2.91797 3.16602 3.16797 2.91602 3.58464 2.91602H16.8346C17.168 2.91602 17.5013 3.16602 17.5013 3.58268C17.5013 3.99935 17.168 4.24935 16.8346 4.24935Z" fill="#8999B9"/>
    <path d="M10.1686 15.413C9.83529 15.413 9.50195 15.151 9.50195 14.7143V5.28172C9.50195 4.93236 9.75195 4.58301 10.1686 4.58301C10.5853 4.58301 10.8353 4.93236 10.8353 5.28172V14.8016C10.8353 15.151 10.5853 15.413 10.1686 15.413Z" fill="#8999B9"/>
    <path d="M10.1686 2.66634C9.83529 2.66634 9.50195 2.41634 9.50195 1.99967V1.49967C9.50195 1.16634 9.75195 0.833008 10.1686 0.833008C10.5853 0.833008 10.8353 1.08301 10.8353 1.49967V2.08301C10.8353 2.41634 10.5853 2.66634 10.1686 2.66634Z" fill="#8999B9"/>
    <path d="M4.16862 10C3.83529 10 3.50195 9.75 3.50195 9.33333V5.41667C3.50195 5.08333 3.75195 4.75 4.16862 4.75C4.58529 4.75 4.83529 5 4.83529 5.41667V9.33333C4.83529 9.66667 4.50195 10 4.16862 10Z" fill="#8999B9"/>
    <path d="M16.2506 10C15.9173 10 15.584 9.75 15.584 9.33333V5.41667C15.584 5.08333 15.834 4.75 16.2506 4.75C16.6673 4.75 16.9173 5 16.9173 5.41667V9.33333C16.834 9.66667 16.584 10 16.2506 10Z" fill="#8999B9"/>
    <path d="M19.0007 19.583H1.50065C1.16732 19.583 0.833984 19.333 0.833984 18.9163C0.833984 18.4997 1.08398 18.333 1.50065 18.333H19.0007C19.334 18.333 19.6673 18.583 19.6673 18.9997C19.6673 19.4163 19.334 19.583 19.0007 19.583Z" fill="#8999B9"/>
    <path d="M14.9173 17.4993H5.50065C5.16732 17.4993 4.83398 17.2493 4.83398 16.8327C4.83398 16.416 5.08398 16.166 5.50065 16.166H14.9173C15.2507 16.166 15.584 16.416 15.584 16.8327C15.584 17.2493 15.2507 17.4993 14.9173 17.4993Z" fill="#8999B9"/>
    <path d="M4.16732 12.666C2.33398 12.666 0.833984 11.166 0.833984 9.33268C0.833984 8.99935 1.08398 8.66602 1.50065 8.66602H7.00065C7.33398 8.66602 7.66732 8.91602 7.66732 9.33268C7.58398 11.166 6.08398 12.666 4.16732 12.666ZM2.16732 9.99935C2.41732 10.8327 3.25065 11.4993 4.16732 11.4993C5.08398 11.4993 5.91732 10.8327 6.25065 9.99935H2.16732Z" fill="#8999B9"/>
    <path d="M16.2513 12.666C14.418 12.666 12.918 11.166 12.918 9.33268C12.918 8.99935 13.168 8.66602 13.5846 8.66602H19.0846C19.418 8.66602 19.7513 8.91602 19.7513 9.33268C19.5846 11.166 18.0846 12.666 16.2513 12.666ZM14.168 9.99935C14.418 10.8327 15.2513 11.4993 16.168 11.4993C17.0846 11.4993 17.918 10.8327 18.168 9.99935H14.168Z" fill="#8999B9"/>
  </g>
  <defs>
    <clipPath id="clip0_515_16569">
      <rect width="18.75" height="18.75" fill="white" transform="translate(0.833984 0.833008)"/>
    </clipPath>
  </defs>
</svg>