<svg width="456" height="260" viewBox="0 0 456 260" fill="none" xmlns="http://www.w3.org/2000/svg">
<path d="M240.626 0C240.626 1.35783 241.165 2.66004 242.125 3.62017C243.086 4.58031 244.388 5.1197 245.746 5.1197C247.103 5.1197 248.406 4.58031 249.366 3.62017C250.326 2.66004 250.865 1.35783 250.865 0H240.626ZM122.873 0.286703C113.25 0.309131 103.733 2.28788 94.8988 6.10268C94.2613 6.34298 93.6781 6.70809 93.1835 7.17663C92.6889 7.64517 92.2928 8.20771 92.0184 8.83129C91.744 9.45487 91.5969 10.1269 91.5855 10.8081C91.5742 11.4893 91.6989 12.1659 91.9524 12.7983C92.2059 13.4307 92.5831 14.0061 93.0618 14.4908C93.5405 14.9756 94.1111 15.3599 94.7403 15.6213C95.3694 15.8827 96.0444 16.0158 96.7257 16.013C97.407 16.0102 98.0808 15.8714 98.7078 15.6048C106.333 12.2882 114.558 10.5734 122.873 10.5671C131.187 10.5671 139.42 12.2873 147.038 15.6048C148.03 16.0418 149.135 16.1527 150.194 15.9215C151.253 15.6903 152.211 15.129 152.931 14.3183C153.65 13.5077 154.094 12.4895 154.198 11.4106C154.302 10.3316 154.061 9.24751 153.509 8.31439C152.908 7.28819 151.966 6.50547 150.847 6.10268C142.013 2.28788 132.495 0.309131 122.873 0.286703ZM230.427 1.6383C229.591 1.69929 228.782 1.96497 228.072 2.41196C227.362 2.85895 226.773 3.47356 226.356 4.20172C225.939 4.92988 225.708 5.74927 225.682 6.58783C225.657 7.42638 225.837 8.25839 226.209 9.01067C226.769 10.2305 227.441 11.3959 228.216 12.4921C228.594 13.0585 229.081 13.5438 229.649 13.9196C230.218 14.2953 230.855 14.5539 231.524 14.6802C232.194 14.8065 232.881 14.7979 233.547 14.6551C234.213 14.5122 234.844 14.238 235.403 13.8483C235.961 13.4586 236.437 12.9614 236.801 12.3857C237.165 11.81 237.41 11.1675 237.523 10.4958C237.635 9.82404 237.613 9.13658 237.457 8.47366C237.3 7.81075 237.013 7.1857 236.612 6.63513C236.173 6.0143 235.79 5.3565 235.465 4.66917C235.041 3.71452 234.335 2.91248 233.442 2.37071C232.549 1.82894 231.511 1.57337 230.468 1.6383H230.427ZM180.254 2.25267C179.546 2.30572 178.856 2.50571 178.229 2.8399C177.602 3.17409 177.051 3.63517 176.612 4.19379C176.173 4.75242 175.855 5.39635 175.678 6.08461C175.501 6.77288 175.47 7.4904 175.585 8.19152C176.719 17.7599 179.784 26.9984 184.596 35.3464C189.405 43.683 195.856 50.9565 203.559 56.7263C204.309 57.3512 205.223 57.7485 206.191 57.8715C207.16 57.9945 208.143 57.8379 209.026 57.4203C209.908 57.0028 210.653 56.3415 211.172 55.5147C211.691 54.6878 211.963 53.7297 211.956 52.7534C211.956 51.0741 211.136 49.5587 209.867 48.6576C203.189 43.7022 197.599 37.4292 193.443 30.2267C189.284 23.016 186.649 15.0282 185.702 6.758C185.547 5.45073 184.895 4.25326 183.88 3.41428C182.866 2.57531 181.567 2.1593 180.254 2.25267ZM214.331 5.28353C213.532 5.3342 212.755 5.57183 212.064 5.97729C211.373 6.38275 210.787 6.94474 210.352 7.61803C209.918 8.29133 209.648 9.05715 209.564 9.85389C209.479 10.6506 209.583 11.4561 209.867 12.2054C211.467 16.9051 213.971 21.2463 217.239 24.9841C217.909 25.808 218.818 26.4033 219.84 26.6878C220.863 26.9722 221.949 26.9317 222.948 26.5718C223.947 26.2119 224.809 25.5504 225.415 24.6789C226.021 23.8075 226.342 22.7691 226.332 21.7075C226.332 20.4378 225.84 19.2501 225.062 18.349C222.581 15.5605 220.687 12.3011 219.492 8.76493C219.134 7.69816 218.434 6.77907 217.501 6.14978C216.569 5.52048 215.454 5.21604 214.331 5.28353ZM197.416 5.57023C196.658 5.62178 195.921 5.84118 195.259 6.21255C194.597 6.58391 194.026 7.09793 193.586 7.71738C193.147 8.33683 192.852 9.04619 192.72 9.79408C192.589 10.542 192.626 11.3097 192.828 12.0415C194.044 17.3472 196.045 22.4413 198.767 27.1549C201.487 31.868 204.897 36.1477 208.884 39.8517C209.6 40.5614 210.509 41.0439 211.498 41.2389C212.487 41.4338 213.511 41.3325 214.443 40.9476C215.375 40.5627 216.172 39.9114 216.735 39.0753C217.298 38.2391 217.602 37.2554 217.608 36.2475C217.608 34.732 216.993 33.3804 215.969 32.4384C212.674 29.4131 209.857 25.9055 207.614 22.0352C205.382 18.1534 203.753 13.9551 202.781 9.58408C202.519 8.38933 201.839 7.32776 200.862 6.59151C199.885 5.85526 198.677 5.49298 197.457 5.57023H197.416ZM329.709 13.1064C328.48 13.1064 327.292 13.557 326.432 14.2942C318.714 20.059 312.248 27.3329 307.428 35.6741C302.616 44.0221 299.551 53.2605 298.417 62.829C298.232 64.1759 298.59 65.5411 299.412 66.6241C300.234 67.7071 301.453 68.4193 302.8 68.604C304.146 68.7887 305.512 68.4307 306.595 67.6088C307.678 66.7869 308.39 65.5685 308.575 64.2215C309.515 55.9684 312.135 47.9953 316.275 40.7938C320.442 33.5867 326.046 27.3132 332.74 22.3629C333.616 21.7235 334.268 20.8221 334.599 19.7887C334.93 18.7553 334.924 17.6433 334.583 16.6133C334.241 15.5833 333.581 14.6886 332.697 14.0582C331.814 13.4279 330.753 13.0946 329.668 13.1064H329.709ZM122.873 16.6697C117.425 16.6697 112.019 17.5299 106.817 19.1272C106.172 19.3155 105.57 19.629 105.046 20.0499C104.521 20.4708 104.085 20.9909 103.762 21.5804C103.439 22.1699 103.235 22.8173 103.162 23.4857C103.088 24.154 103.148 24.8302 103.336 25.4756C103.524 26.1211 103.838 26.7231 104.259 27.2474C104.68 27.7716 105.2 28.2079 105.789 28.5311C106.379 28.8544 107.026 29.0584 107.694 29.1315C108.363 29.2046 109.039 29.1453 109.684 28.957C113.952 27.6107 118.398 26.9202 122.873 26.9091C127.378 26.9091 131.802 27.6464 136.061 28.957C137.365 29.3372 138.766 29.184 139.956 28.5311C141.147 27.8782 142.029 26.7791 142.41 25.4756C142.79 24.1721 142.637 22.771 141.984 21.5804C141.331 20.3898 140.232 19.5074 138.928 19.1272C133.729 17.5103 128.317 16.6819 122.873 16.6697ZM335.361 29.6123C333.927 29.6123 332.658 30.1858 331.757 31.1278C327.756 34.8298 324.333 39.1094 321.599 43.8246C318.891 48.5406 316.904 53.6346 315.701 58.938C315.482 59.607 315.403 60.314 315.47 61.0148C315.536 61.7156 315.747 62.3952 316.088 63.011C316.429 63.6269 316.893 64.1658 317.452 64.5941C318.01 65.0224 318.651 65.3309 319.335 65.5003C320.018 65.6697 320.729 65.6964 321.423 65.5787C322.117 65.461 322.779 65.2014 323.368 64.8161C323.958 64.4309 324.461 63.9283 324.847 63.3398C325.233 62.7512 325.494 62.0893 325.613 61.3954C326.598 57.0225 328.242 52.8243 330.487 48.9443C332.727 45.0596 335.544 41.5379 338.842 38.5001C339.602 37.8014 340.133 36.8894 340.365 35.8838C340.597 34.8781 340.52 33.8258 340.143 32.8648C339.767 31.9037 339.109 31.0789 338.255 30.4985C337.402 29.9181 336.393 29.6092 335.361 29.6123ZM122.873 33.0937C120.415 33.0937 117.917 33.3395 115.5 33.831C114.452 33.9933 113.479 34.4776 112.718 35.2169C111.956 35.9562 111.443 36.9138 111.25 37.9574C111.056 39.001 111.192 40.0789 111.638 41.042C112.084 42.005 112.818 42.8057 113.739 43.3331C114.886 43.9885 116.156 44.1523 117.344 43.9066C120.992 43.1629 124.753 43.1629 128.402 43.9066C129.064 44.0276 129.743 44.0171 130.4 43.8757C131.058 43.7344 131.681 43.4649 132.234 43.0826C132.788 42.7004 133.26 42.2129 133.625 41.648C133.99 41.0831 134.24 40.4519 134.361 39.7903C134.482 39.1287 134.472 38.4498 134.331 37.7923C134.189 37.1348 133.92 36.5115 133.538 35.9581C133.155 35.4048 132.668 34.9321 132.103 34.5671C131.538 34.2021 130.907 33.952 130.245 33.831C127.818 33.3457 125.348 33.0988 122.873 33.0937ZM344.085 44.1113C342.447 44.1113 341.054 44.8076 340.112 45.9954C336.845 49.7338 334.341 54.0748 332.74 58.7742C332.466 59.4162 332.327 60.1074 332.33 60.8053C332.334 61.5031 332.48 62.1929 332.76 62.8322C333.039 63.4715 333.447 64.0469 333.957 64.523C334.467 64.9991 335.07 65.3658 335.727 65.6007C336.384 65.8356 337.082 65.9337 337.779 65.8889C338.475 65.8441 339.155 65.6574 339.777 65.3403C340.398 65.0232 340.948 64.5824 341.393 64.0448C341.839 63.5073 342.169 62.8845 342.365 62.2146C343.544 58.6804 345.425 55.4206 347.894 52.6305C348.548 51.8939 348.976 50.9842 349.126 50.0105C349.276 49.0369 349.142 48.0406 348.74 47.1413C348.337 46.2419 347.684 45.4777 346.859 44.9403C346.033 44.4028 345.07 44.115 344.085 44.1113ZM122.873 49.4768C122.217 49.4768 121.521 49.5177 120.866 49.5997C120.189 49.6489 119.528 49.8324 118.922 50.1395C118.317 50.4465 117.778 50.8709 117.338 51.388C116.898 51.9052 116.565 52.5047 116.359 53.1516C116.153 53.7986 116.078 54.4801 116.138 55.1564C116.197 55.8328 116.391 56.4905 116.707 57.0913C117.024 57.6921 117.457 58.224 117.98 58.6559C118.504 59.0879 119.109 59.4114 119.759 59.6074C120.409 59.8035 121.092 59.8683 121.767 59.7981C122.516 59.7267 123.27 59.7267 124.02 59.7981C124.692 59.8546 125.369 59.7781 126.012 59.573C126.654 59.3679 127.25 59.0381 127.766 58.6027C128.281 58.1672 128.706 57.6345 129.015 57.0349C129.325 56.4354 129.513 55.7808 129.569 55.1085C129.626 54.4361 129.549 53.7593 129.344 53.1165C129.139 52.4737 128.809 51.8777 128.374 51.3623C127.938 50.847 127.406 50.4225 126.806 50.113C126.207 49.8035 125.552 49.6152 124.88 49.5587C124.212 49.504 123.543 49.4767 122.873 49.4768ZM355.307 56.2757C353.546 56.2757 351.99 57.1359 351.048 58.5284C350.285 59.6248 349.627 60.7904 349.082 62.0098C348.752 62.6228 348.551 63.2965 348.49 63.9898C348.43 64.6832 348.511 65.3816 348.73 66.0423C348.948 66.7031 349.299 67.3124 349.761 67.833C350.223 68.3535 350.786 68.7744 351.417 69.07C352.047 69.3655 352.73 69.5295 353.426 69.5518C354.122 69.5742 354.815 69.4545 355.462 69.2001C356.11 68.9456 356.699 68.5618 357.194 68.072C357.688 67.5822 358.077 66.9967 358.338 66.3513C358.651 65.6582 359.036 64.9993 359.485 64.3854C360.036 63.6191 360.365 62.7152 360.435 61.7738C360.504 60.8324 360.313 59.89 359.88 59.0508C359.448 58.2116 358.792 57.5083 357.985 57.0185C357.178 56.5288 356.251 56.2717 355.307 56.2757ZM368.618 65.8598C367.261 65.8598 365.958 66.3992 364.998 67.3594C364.038 68.3195 363.499 69.6217 363.499 70.9795C363.499 72.3374 364.038 73.6396 364.998 74.5997C365.958 75.5598 367.261 76.0992 368.618 76.0992C369.976 76.0992 371.278 75.5598 372.239 74.5997C373.199 73.6396 373.738 72.3374 373.738 70.9795C373.738 69.6217 373.199 68.3195 372.239 67.3594C371.278 66.3992 369.976 65.8598 368.618 65.8598ZM123.241 65.8598C122.569 65.8141 121.894 65.9013 121.256 66.1163C120.617 66.3314 120.027 66.6701 119.519 67.1132C119.012 67.5563 118.596 68.095 118.297 68.6987C117.997 69.3023 117.819 69.9591 117.774 70.6314C117.728 71.3037 117.815 71.9785 118.03 72.6171C118.245 73.2558 118.584 73.8458 119.027 74.3535C119.47 74.8613 120.009 75.2768 120.612 75.5763C121.216 75.8758 121.873 76.0535 122.545 76.0992C123.903 76.1916 125.242 75.7407 126.267 74.8459C127.293 73.951 127.921 72.6855 128.013 71.3277C128.105 69.9698 127.654 68.6309 126.76 67.6055C125.865 66.5801 124.599 65.9522 123.241 65.8598ZM383.896 72.5769C382.845 72.4973 381.796 72.7462 380.894 73.2892C379.991 73.8323 379.28 74.6425 378.858 75.6077C378.555 76.298 378.185 76.9566 377.752 77.5737C377.351 78.1243 377.064 78.7493 376.907 79.4122C376.751 80.0752 376.729 80.7626 376.841 81.4343C376.954 82.1061 377.199 82.7486 377.563 83.3243C377.927 83.8999 378.403 84.3972 378.961 84.7868C379.52 85.1765 380.151 85.4508 380.817 85.5937C381.483 85.7365 382.17 85.745 382.84 85.6187C383.509 85.4924 384.146 85.2338 384.714 84.8581C385.283 84.4824 385.77 83.9971 386.148 83.4306C386.924 82.3351 387.596 81.1696 388.155 79.9492C388.527 79.194 388.708 78.3585 388.68 77.5169C388.652 76.6753 388.417 75.8536 387.996 75.1245C387.575 74.3954 386.98 73.7815 386.265 73.3371C385.55 72.8927 384.736 72.6316 383.896 72.5769ZM434.069 73.2322C432.753 73.1284 431.449 73.5407 430.432 74.3816C429.416 75.2225 428.766 76.4261 428.621 77.7375C427.687 86.0047 425.066 93.9923 420.921 101.206C416.753 108.413 411.149 114.686 404.456 119.637C403.926 120.051 403.483 120.566 403.152 121.151C402.822 121.737 402.609 122.381 402.527 123.049C402.446 123.716 402.496 124.393 402.676 125.041C402.856 125.689 403.162 126.295 403.576 126.825C403.99 127.355 404.504 127.798 405.09 128.129C405.675 128.46 406.32 128.672 406.987 128.754C407.655 128.836 408.332 128.785 408.98 128.606C409.628 128.426 410.234 128.12 410.764 127.706C418.482 121.941 424.948 114.667 429.768 106.326C434.581 97.9783 437.646 88.7397 438.779 79.171C438.895 78.4667 438.862 77.746 438.683 77.0551C438.503 76.3642 438.182 75.7184 437.738 75.1591C437.295 74.5999 436.739 74.1396 436.107 73.8077C435.475 73.4759 434.781 73.2798 434.069 73.2322ZM400.074 76.2631C398.936 76.1695 397.8 76.4622 396.848 77.0939C395.897 77.7255 395.187 78.6593 394.831 79.7445C393.649 83.2772 391.768 86.5364 389.302 89.3285C388.648 90.0651 388.22 90.9749 388.07 91.9485C387.92 92.9222 388.054 93.9184 388.456 94.8178C388.858 95.7171 389.511 96.4813 390.337 97.0188C391.163 97.5562 392.126 97.844 393.111 97.8477C394.749 97.8477 396.142 97.1105 397.084 95.9637C400.351 92.2252 402.855 87.8842 404.456 83.1849C404.747 82.4365 404.858 81.6301 404.78 80.831C404.702 80.0319 404.436 79.2623 404.006 78.5846C403.575 77.9068 402.991 77.3399 402.301 76.9295C401.611 76.5191 400.834 76.2767 400.033 76.2221L400.074 76.2631ZM416.907 76.5498C415.685 76.4639 414.473 76.8229 413.494 77.5605C412.516 78.2982 411.837 79.3648 411.583 80.5636C410.611 84.9347 408.982 89.1329 406.75 93.0147C404.507 96.885 401.69 100.393 398.395 103.418C397.869 103.873 397.442 104.429 397.138 105.055C396.835 105.68 396.662 106.36 396.63 107.054C396.598 107.748 396.708 108.442 396.952 109.092C397.197 109.743 397.572 110.336 398.053 110.837C398.535 111.338 399.113 111.736 399.753 112.006C400.393 112.277 401.082 112.414 401.777 112.409C402.472 112.405 403.158 112.259 403.795 111.981C404.432 111.702 405.005 111.297 405.48 110.79C409.464 107.099 412.874 102.833 415.597 98.1344C418.308 93.4057 420.296 88.2976 421.495 82.9801C421.69 82.2509 421.721 81.4876 421.587 80.7448C421.452 80.002 421.155 79.2982 420.717 78.6836C420.278 78.0691 419.71 77.5592 419.051 77.1902C418.392 76.8213 417.66 76.6026 416.907 76.5498ZM120.948 82.2019C119.59 82.191 118.283 82.72 117.316 83.6725C116.348 84.6249 115.798 85.9228 115.787 87.2806C115.776 88.6385 116.305 89.945 117.258 90.9128C118.21 91.8806 119.508 92.4305 120.866 92.4413C122.201 92.5686 123.545 92.5686 124.88 92.4413C125.552 92.3821 126.206 92.1911 126.805 91.8792C127.403 91.5672 127.934 91.1405 128.368 90.6232C128.802 90.106 129.129 89.5084 129.332 88.8646C129.534 88.2208 129.608 87.5434 129.549 86.8711C129.49 86.1987 129.299 85.5447 128.987 84.9461C128.675 84.3476 128.248 83.8164 127.731 83.3829C127.214 82.9493 126.616 82.6218 125.972 82.4192C125.328 82.2166 124.651 82.1427 123.979 82.2019C123.23 82.2786 122.475 82.2786 121.726 82.2019C121.453 82.18 121.179 82.18 120.907 82.2019H120.948ZM38.9507 84.1269C37.8796 84.1354 36.8382 84.4797 35.9731 85.1111C35.1079 85.7426 34.4626 86.6295 34.128 87.6469C33.7934 88.6644 33.7863 89.7612 34.1077 90.7829C34.4291 91.8046 35.0629 92.6998 35.9198 93.3424C42.5976 98.2978 48.1876 104.571 52.3438 111.773C56.4918 118.986 59.1128 126.974 60.0438 135.242C60.2339 136.589 60.9513 137.805 62.0382 138.623C63.1251 139.441 64.4924 139.794 65.8393 139.604C67.1863 139.414 68.4026 138.697 69.2206 137.61C70.0387 136.523 70.3914 135.155 70.2013 133.808C69.0687 124.24 66.0031 115.001 61.1907 106.654C56.3706 98.3125 49.9048 91.0385 42.1863 85.2737C41.2627 84.5185 40.1027 84.1125 38.9097 84.1269H38.9507ZM116.401 98.0525C115.12 98.0449 113.883 98.518 112.933 99.3783C111.984 100.239 111.392 101.424 111.273 102.699C111.155 103.975 111.519 105.249 112.294 106.269C113.069 107.289 114.199 107.982 115.459 108.21C120.327 109.172 125.336 109.172 130.204 108.21C130.868 108.092 131.503 107.844 132.071 107.48C132.64 107.117 133.131 106.645 133.517 106.091C133.903 105.538 134.176 104.914 134.321 104.255C134.466 103.596 134.48 102.915 134.361 102.251C134.243 101.586 133.995 100.952 133.632 100.384C133.268 99.8151 132.796 99.3239 132.243 98.9378C131.689 98.5518 131.065 98.2785 130.406 98.1337C129.747 97.9888 129.066 97.9751 128.402 98.0935C124.753 98.8371 120.992 98.8371 117.344 98.0935C117.033 98.0374 116.717 98.01 116.401 98.0115V98.0525ZM33.2576 100.674C32.229 100.679 31.2257 100.994 30.3786 101.577C29.5315 102.161 28.8799 102.986 28.5085 103.945C28.1372 104.905 28.0634 105.953 28.2969 106.955C28.5303 107.957 29.06 108.865 29.8171 109.562C33.0937 112.592 35.9198 116.115 38.1725 119.965C40.4038 123.847 42.0334 128.045 43.0055 132.416C43.228 133.421 43.7485 134.336 44.499 135.041C45.2495 135.746 46.1952 136.208 47.2125 136.368C48.2298 136.527 49.2714 136.376 50.2015 135.934C51.1315 135.492 51.9066 134.78 52.4257 133.89C53.122 132.662 53.2449 131.269 52.9582 129.958C51.743 124.653 49.7412 119.559 47.0193 114.845C44.2993 110.132 40.8893 105.852 36.9028 102.148C36.4224 101.674 35.853 101.3 35.2274 101.047C34.6018 100.794 33.9324 100.667 33.2576 100.674ZM107.596 112.838C106.406 112.96 105.296 113.494 104.459 114.348C103.622 115.202 103.11 116.323 103.013 117.515C102.916 118.707 103.239 119.895 103.926 120.874C104.614 121.853 105.622 122.56 106.776 122.873C111.989 124.493 117.415 125.322 122.873 125.33C128.32 125.33 133.727 124.511 138.928 122.873C139.574 122.685 140.176 122.371 140.7 121.95C141.224 121.529 141.66 121.009 141.984 120.42C142.307 119.83 142.511 119.183 142.584 118.514C142.657 117.846 142.598 117.17 142.41 116.524C142.221 115.879 141.908 115.277 141.487 114.753C141.066 114.228 140.546 113.792 139.956 113.469C139.367 113.146 138.719 112.942 138.051 112.869C137.383 112.795 136.707 112.855 136.061 113.043C131.794 114.389 127.347 115.079 122.873 115.091C118.385 115.083 113.924 114.393 109.643 113.043C108.982 112.837 108.285 112.767 107.596 112.838ZM24.5746 115.091C23.5894 115.095 22.6263 115.382 21.8006 115.92C20.975 116.457 20.322 117.221 19.9198 118.121C19.5177 119.02 19.3836 120.016 19.5336 120.99C19.6836 121.964 20.1114 122.873 20.7655 123.61C23.2347 126.4 25.1153 129.66 26.2948 133.194C26.6115 134.121 27.1874 134.937 27.9543 135.547C28.7211 136.156 29.6466 136.533 30.6211 136.632C31.5955 136.731 32.5779 136.549 33.4518 136.106C34.3256 135.664 35.0542 134.98 35.5512 134.136C36.3703 132.744 36.4523 131.146 35.9608 129.754C34.3473 125.051 31.8288 120.71 28.5474 116.975C28.0668 116.385 27.4608 115.911 26.7736 115.585C26.0863 115.259 25.3351 115.09 24.5746 115.091ZM96.4551 125.986C95.276 126.039 94.1515 126.498 93.2721 127.286C92.3926 128.073 91.8123 129.14 91.6292 130.306C91.4461 131.472 91.6715 132.665 92.2673 133.684C92.8631 134.703 93.7927 135.485 94.8988 135.897C103.733 139.712 113.25 141.691 122.873 141.713C132.506 141.708 142.038 139.743 150.888 135.938C151.512 135.685 152.08 135.312 152.559 134.84C153.039 134.368 153.421 133.805 153.683 133.186C153.946 132.566 154.084 131.9 154.089 131.227C154.094 130.554 153.967 129.886 153.714 129.262C153.461 128.638 153.088 128.07 152.616 127.591C152.143 127.111 151.581 126.729 150.961 126.466C150.341 126.204 149.676 126.066 149.002 126.061C148.329 126.056 147.662 126.183 147.038 126.436C139.413 129.752 131.188 131.466 122.873 131.474C114.558 131.466 106.333 129.752 98.7078 126.436C97.9971 126.133 97.2272 125.993 96.4551 126.027V125.986ZM13.3522 127.214C12.3979 127.207 11.4605 127.466 10.6457 127.963C9.83095 128.46 9.17125 129.174 8.74107 130.026C8.31089 130.878 8.12736 131.833 8.21118 132.784C8.29501 133.734 8.64285 134.642 9.21546 135.406C9.64546 136.01 10.0158 136.655 10.3213 137.331C10.6064 137.941 11.0089 138.49 11.5059 138.945C12.0029 139.4 12.5846 139.752 13.2178 139.982C13.8511 140.212 14.5234 140.315 15.1965 140.286C15.8696 140.256 16.5303 140.094 17.1408 139.809C17.7512 139.524 18.2996 139.121 18.7545 138.624C19.2094 138.127 19.562 137.546 19.7921 136.912C20.0222 136.279 20.1253 135.607 20.0955 134.934C20.0658 134.26 19.9038 133.6 19.6187 132.989C19.0464 131.767 18.3608 130.602 17.5708 129.508C17.1041 128.817 16.4759 128.251 15.7407 127.859C15.0055 127.466 14.1856 127.259 13.3522 127.255V127.214ZM491.491 136.88C490.133 136.88 488.831 137.42 487.871 138.38C486.911 139.34 486.371 140.642 486.371 142C486.371 143.358 486.911 144.66 487.871 145.62C488.831 146.58 490.133 147.12 491.491 147.12V136.88ZM0 136.88V147.12C1.35783 147.12 2.66004 146.58 3.62017 145.62C4.5803 144.66 5.1197 143.358 5.1197 142C5.1197 140.642 4.5803 139.34 3.62017 138.38C2.66004 137.42 1.35783 136.88 0 136.88H0ZM368.618 142.287C358.999 142.296 349.481 144.261 340.644 148.062C340.007 148.302 339.424 148.667 338.929 149.136C338.435 149.604 338.038 150.167 337.764 150.79C337.49 151.414 337.342 152.086 337.331 152.767C337.32 153.448 337.444 154.125 337.698 154.757C337.951 155.39 338.329 155.965 338.807 156.45C339.286 156.935 339.857 157.319 340.486 157.58C341.115 157.842 341.79 157.975 342.471 157.972C343.153 157.969 343.826 157.83 344.453 157.564C352.078 154.247 360.303 152.533 368.618 152.526C376.933 152.526 385.165 154.287 392.783 157.605C393.41 157.855 394.08 157.979 394.754 157.97C395.429 157.962 396.095 157.82 396.715 157.554C397.335 157.288 397.897 156.902 398.367 156.419C398.838 155.936 399.209 155.364 399.459 154.738C399.71 154.111 399.834 153.441 399.825 152.767C399.816 152.092 399.675 151.426 399.409 150.806C399.142 150.186 398.757 149.625 398.273 149.154C397.79 148.683 397.219 148.312 396.592 148.062C387.752 144.275 378.235 142.324 368.618 142.328V142.287ZM476.173 143.597C475.336 143.658 474.527 143.924 473.817 144.371C473.107 144.818 472.518 145.433 472.102 146.161C471.685 146.889 471.454 147.708 471.428 148.547C471.402 149.385 471.583 150.217 471.954 150.97C472.512 152.191 473.184 153.356 473.961 154.451C474.34 155.018 474.827 155.503 475.395 155.879C475.963 156.254 476.601 156.513 477.27 156.639C477.939 156.766 478.627 156.757 479.293 156.614C479.959 156.471 480.59 156.197 481.148 155.807C481.707 155.418 482.182 154.92 482.546 154.345C482.91 153.769 483.156 153.127 483.268 152.455C483.381 151.783 483.359 151.096 483.202 150.433C483.046 149.77 482.759 149.145 482.358 148.594C481.91 147.979 481.526 147.32 481.211 146.628C480.784 145.667 480.072 144.86 479.17 144.318C478.269 143.775 477.222 143.524 476.173 143.597ZM426 144.253C425.291 144.306 424.602 144.506 423.974 144.84C423.347 145.174 422.797 145.635 422.357 146.194C421.918 146.752 421.6 147.396 421.423 148.085C421.247 148.773 421.215 149.49 421.331 150.192C422.452 159.757 425.503 168.995 430.301 177.346C435.126 185.672 441.591 192.932 449.305 198.685C450.375 199.522 451.733 199.899 453.081 199.734C454.429 199.569 455.656 198.875 456.493 197.805C457.329 196.735 457.706 195.376 457.541 194.028C457.376 192.68 456.682 191.453 455.612 190.617C448.92 185.665 443.316 179.392 439.147 172.186C435.008 164.984 432.387 157.011 431.447 148.758C431.293 147.451 430.64 146.253 429.626 145.414C428.612 144.575 427.313 144.159 426 144.253ZM460.036 147.243C459.235 147.297 458.458 147.54 457.767 147.95C457.077 148.36 456.493 148.927 456.063 149.605C455.632 150.283 455.367 151.052 455.289 151.851C455.211 152.651 455.321 153.457 455.612 154.205C457.214 158.905 459.718 163.246 462.985 166.984C463.408 167.534 463.939 167.992 464.544 168.33C465.15 168.669 465.818 168.881 466.508 168.953C467.198 169.025 467.896 168.957 468.559 168.751C469.221 168.545 469.835 168.207 470.363 167.757C470.891 167.307 471.322 166.754 471.63 166.132C471.938 165.51 472.116 164.832 472.154 164.14C472.191 163.447 472.088 162.753 471.85 162.102C471.611 161.45 471.243 160.854 470.767 160.349C468.3 157.557 466.42 154.298 465.237 150.765C464.885 149.683 464.182 148.75 463.24 148.112C462.298 147.474 461.171 147.168 460.036 147.243ZM443.161 147.57C442.408 147.623 441.676 147.842 441.018 148.211C440.359 148.58 439.79 149.09 439.352 149.704C438.913 150.319 438.616 151.022 438.482 151.765C438.347 152.508 438.379 153.271 438.574 154.001C439.772 159.318 441.76 164.426 444.472 169.155C447.205 173.87 450.629 178.15 454.629 181.852C455.348 182.564 456.261 183.047 457.254 183.241C458.246 183.434 459.274 183.33 460.207 182.94C461.141 182.55 461.938 181.892 462.497 181.05C463.057 180.207 463.355 179.218 463.353 178.207C463.353 176.732 462.739 175.34 461.715 174.438C455.076 168.332 450.46 160.344 448.486 151.543C448.223 150.341 447.536 149.274 446.551 148.537C445.565 147.799 444.348 147.442 443.12 147.529L443.161 147.57ZM83.9631 155.106C82.7344 155.106 81.5875 155.516 80.6865 156.253C72.968 162.018 66.5022 169.292 61.6821 177.633C56.8707 185.981 53.8052 195.22 52.6715 204.788C52.5773 205.455 52.6155 206.134 52.7838 206.786C52.952 207.438 53.2471 208.051 53.6522 208.589C54.0572 209.127 54.5643 209.58 55.1445 209.923C55.7246 210.265 56.3665 210.489 57.0335 210.584C57.7004 210.678 58.3794 210.639 59.0316 210.471C59.6838 210.303 60.2964 210.008 60.8346 209.603C61.3728 209.198 61.8259 208.691 62.1681 208.111C62.5103 207.53 62.7348 206.888 62.829 206.222C63.7623 197.954 66.3831 189.966 70.529 182.753C74.6962 175.546 80.3005 169.272 86.9939 164.322C87.8508 163.679 88.4846 162.784 88.8061 161.762C89.1275 160.741 89.1204 159.644 88.7858 158.626C88.4511 157.609 87.8058 156.722 86.9407 156.091C86.0755 155.459 85.0341 155.115 83.9631 155.106ZM368.618 158.67C363.171 158.67 357.765 159.489 352.563 161.127C351.918 161.315 351.316 161.629 350.791 162.05C350.267 162.471 349.831 162.991 349.508 163.58C349.184 164.17 348.98 164.817 348.907 165.486C348.834 166.154 348.893 166.83 349.082 167.476C349.27 168.121 349.583 168.723 350.004 169.247C350.425 169.772 350.945 170.208 351.535 170.531C352.124 170.854 352.772 171.058 353.44 171.131C354.108 171.205 354.785 171.145 355.43 170.957C359.697 169.611 364.144 168.92 368.618 168.909C373.124 168.909 377.547 169.646 381.807 170.957C382.793 171.271 383.85 171.28 384.841 170.981C385.832 170.682 386.709 170.09 387.356 169.283C388.004 168.476 388.391 167.492 388.468 166.46C388.545 165.428 388.307 164.397 387.787 163.503C387.105 162.33 385.985 161.475 384.674 161.127C379.475 159.511 374.063 158.683 368.618 158.67ZM89.6152 171.612C88.2227 171.612 86.912 172.186 86.011 173.128C82.0099 176.829 78.5861 181.109 75.8535 185.825C73.1447 190.54 71.1567 195.634 69.9556 200.938C69.7942 201.592 69.7632 202.27 69.8642 202.936C69.9652 203.601 70.1963 204.241 70.5443 204.817C70.8923 205.393 71.3504 205.895 71.8924 206.294C72.4344 206.693 73.0497 206.982 73.7032 207.143C74.3567 207.304 75.0356 207.336 75.7011 207.234C76.3666 207.133 77.0057 206.902 77.5819 206.554C78.1581 206.206 78.6601 205.748 79.0593 205.206C79.4584 204.664 79.7469 204.049 79.9083 203.395C80.8798 199.024 82.5094 194.826 84.7413 190.944C86.9814 187.06 89.7987 183.538 93.0966 180.5C93.8563 179.801 94.387 178.889 94.6192 177.884C94.8514 176.878 94.7742 175.826 94.3977 174.865C94.0213 173.904 93.3632 173.079 92.5097 172.499C91.6563 171.918 90.6473 171.609 89.6152 171.612ZM368.618 175.053C366.161 175.053 363.663 175.299 361.246 175.79C360.197 175.952 359.225 176.437 358.463 177.176C357.702 177.915 357.189 178.873 356.995 179.916C356.802 180.96 356.937 182.038 357.383 183.001C357.829 183.964 358.564 184.765 359.485 185.292C360.632 185.948 361.901 186.111 363.089 185.866C366.738 185.122 370.499 185.122 374.148 185.866C374.809 185.989 375.489 185.982 376.147 185.843C376.806 185.704 377.431 185.437 377.986 185.056C378.541 184.676 379.016 184.19 379.384 183.626C379.751 183.062 380.004 182.431 380.127 181.77C380.251 181.108 380.243 180.429 380.104 179.77C379.966 179.112 379.698 178.487 379.318 177.932C378.938 177.376 378.452 176.901 377.888 176.534C377.324 176.167 376.693 175.914 376.032 175.79C373.591 175.302 371.108 175.055 368.618 175.053ZM98.3392 186.111C96.7419 186.111 95.3083 186.808 94.4073 187.954C91.1359 191.705 88.6313 196.06 87.0349 200.774C86.7615 201.416 86.6223 202.107 86.6258 202.805C86.6292 203.503 86.7754 204.193 87.0551 204.832C87.3349 205.472 87.7424 206.047 88.2526 206.523C88.7629 206.999 89.365 207.366 90.0222 207.601C90.6793 207.836 91.3775 207.934 92.0739 207.889C92.7703 207.844 93.4502 207.657 94.0719 207.34C94.6935 207.023 95.2438 206.582 95.6888 206.045C96.1339 205.507 96.4644 204.885 96.6599 204.215C97.8375 200.667 99.718 197.394 102.189 194.59C102.846 193.85 103.274 192.937 103.423 191.959C103.571 190.982 103.434 189.983 103.026 189.082C102.619 188.181 101.96 187.417 101.128 186.883C100.297 186.348 99.3278 186.066 98.3392 186.07V186.111ZM368.618 191.395C367.963 191.395 367.267 191.395 366.611 191.518C365.934 191.567 365.274 191.751 364.668 192.058C364.062 192.365 363.524 192.789 363.084 193.306C362.644 193.823 362.311 194.423 362.105 195.07C361.899 195.717 361.823 196.398 361.883 197.075C361.943 197.751 362.137 198.409 362.453 199.009C362.769 199.61 363.202 200.142 363.726 200.574C364.25 201.006 364.854 201.329 365.505 201.526C366.155 201.722 366.837 201.786 367.513 201.716C368.262 201.642 369.016 201.642 369.765 201.716C370.438 201.773 371.114 201.696 371.757 201.491C372.4 201.286 372.996 200.956 373.511 200.521C374.027 200.085 374.451 199.553 374.761 198.953C375.07 198.354 375.258 197.699 375.315 197.027C375.371 196.354 375.295 195.677 375.09 195.035C374.885 194.392 374.555 193.796 374.12 193.28C373.684 192.765 373.151 192.341 372.552 192.031C371.952 191.722 371.298 191.533 370.625 191.477C369.958 191.419 369.288 191.392 368.618 191.395ZM109.562 198.235C107.8 198.235 106.285 199.136 105.302 200.487C104.541 201.585 103.883 202.75 103.336 203.969C103.006 204.582 102.805 205.256 102.745 205.949C102.684 206.642 102.766 207.341 102.984 208.001C103.203 208.662 103.554 209.271 104.016 209.792C104.478 210.313 105.041 210.733 105.671 211.029C106.301 211.325 106.985 211.489 107.68 211.511C108.376 211.533 109.069 211.414 109.717 211.159C110.365 210.905 110.954 210.521 111.448 210.031C111.943 209.541 112.332 208.956 112.592 208.31C112.908 207.618 113.292 206.96 113.739 206.344C114.291 205.578 114.619 204.674 114.689 203.733C114.759 202.791 114.567 201.849 114.135 201.01C113.702 200.171 113.046 199.467 112.239 198.978C111.432 198.488 110.506 198.231 109.562 198.235ZM122.873 207.86C121.515 207.86 120.213 208.399 119.253 209.359C118.292 210.319 117.753 211.622 117.753 212.98C117.753 214.337 118.292 215.64 119.253 216.6C120.213 217.56 121.515 218.099 122.873 218.099C124.231 218.099 125.533 217.56 126.493 216.6C127.453 215.64 127.992 214.337 127.992 212.98C127.992 211.622 127.453 210.319 126.493 209.359C125.533 208.399 124.231 207.86 122.873 207.86ZM368.987 207.86C367.629 207.768 366.29 208.218 365.265 209.113C364.239 210.008 363.611 211.274 363.519 212.631C363.427 213.989 363.878 215.328 364.773 216.354C365.667 217.379 366.933 218.007 368.291 218.099C368.963 218.145 369.638 218.058 370.276 217.843C370.915 217.628 371.505 217.289 372.013 216.846C372.521 216.403 372.936 215.864 373.236 215.26C373.535 214.657 373.713 214 373.759 213.328C373.804 212.655 373.717 211.981 373.502 211.342C373.287 210.703 372.948 210.113 372.505 209.606C372.062 209.098 371.523 208.682 370.92 208.383C370.316 208.083 369.659 207.906 368.987 207.86ZM138.15 214.577C137.106 214.506 136.066 214.759 135.172 215.302C134.278 215.844 133.573 216.649 133.153 217.608C132.837 218.3 132.453 218.958 132.006 219.574C131.605 220.124 131.318 220.749 131.162 221.412C131.005 222.075 130.983 222.763 131.096 223.434C131.208 224.106 131.454 224.749 131.818 225.324C132.182 225.9 132.657 226.397 133.216 226.787C133.774 227.177 134.405 227.451 135.071 227.594C135.737 227.737 136.425 227.745 137.094 227.619C137.763 227.492 138.401 227.234 138.969 226.858C139.537 226.482 140.024 225.997 140.403 225.431C141.189 224.334 141.874 223.169 142.451 221.949C142.824 221.191 143.004 220.352 142.974 219.507C142.944 218.663 142.705 217.839 142.279 217.109C141.854 216.378 141.254 215.765 140.533 215.323C139.812 214.882 138.994 214.625 138.15 214.577ZM188.323 215.191C187.008 215.099 185.709 215.522 184.7 216.371C183.691 217.219 183.052 218.426 182.917 219.738C181.971 228.008 179.336 235.996 175.176 243.206C171.019 250.409 165.429 256.682 158.752 261.637C158.222 262.051 157.779 262.566 157.448 263.151C157.117 263.737 156.904 264.381 156.823 265.049C156.741 265.716 156.791 266.393 156.971 267.041C157.151 267.689 157.457 268.295 157.871 268.825C158.285 269.355 158.8 269.798 159.385 270.129C159.97 270.46 160.615 270.672 161.283 270.754C161.95 270.836 162.627 270.785 163.275 270.606C163.923 270.426 164.529 270.12 165.059 269.706C172.778 263.941 179.243 256.667 184.063 248.326C188.875 239.978 191.94 230.739 193.074 221.171C193.196 220.46 193.167 219.732 192.989 219.034C192.81 218.335 192.486 217.682 192.037 217.118C191.589 216.553 191.026 216.09 190.386 215.758C189.746 215.426 189.043 215.233 188.323 215.191ZM154.328 218.222C153.185 218.131 152.045 218.43 151.093 219.069C150.141 219.709 149.433 220.652 149.086 221.744C147.904 225.278 146.024 228.537 143.556 231.329C143.08 231.833 142.712 232.43 142.474 233.081C142.235 233.733 142.132 234.426 142.169 235.119C142.207 235.812 142.385 236.49 142.693 237.112C143.001 237.734 143.432 238.286 143.96 238.737C144.488 239.187 145.102 239.525 145.764 239.731C146.427 239.936 147.125 240.005 147.815 239.933C148.505 239.86 149.173 239.648 149.779 239.31C150.384 238.972 150.915 238.514 151.338 237.964C154.609 234.228 157.113 229.886 158.711 225.185C159.002 224.436 159.112 223.63 159.034 222.831C158.956 222.032 158.691 221.262 158.26 220.585C157.83 219.907 157.246 219.34 156.556 218.929C155.865 218.519 155.088 218.277 154.287 218.222H154.328ZM171.203 218.55C169.98 218.464 168.768 218.823 167.79 219.561C166.811 220.298 166.132 221.365 165.878 222.564C164.881 226.939 163.224 231.138 160.963 235.015C158.733 238.882 155.93 242.39 152.649 245.418C151.892 246.114 151.362 247.023 151.129 248.024C150.895 249.026 150.969 250.075 151.34 251.034C151.712 251.994 152.363 252.819 153.21 253.402C154.058 253.986 155.061 254.301 156.089 254.306C157.523 254.306 158.793 253.732 159.735 252.831C163.721 249.127 167.131 244.847 169.851 240.134C172.595 235.383 174.561 230.305 175.79 224.98C175.985 224.251 176.017 223.488 175.882 222.745C175.748 222.002 175.451 221.298 175.012 220.684C174.574 220.069 174.005 219.559 173.346 219.19C172.688 218.821 171.956 218.603 171.203 218.55ZM366.693 224.161C366.021 224.156 365.354 224.283 364.731 224.535C364.108 224.787 363.54 225.16 363.061 225.632C362.582 226.103 362.2 226.665 361.938 227.284C361.676 227.903 361.538 228.567 361.533 229.24C361.527 229.912 361.654 230.579 361.907 231.202C362.159 231.825 362.532 232.393 363.003 232.872C363.475 233.351 364.036 233.733 364.655 233.995C365.274 234.257 365.939 234.395 366.611 234.4C367.946 234.527 369.29 234.527 370.625 234.4C371.298 234.341 371.952 234.15 372.55 233.838C373.149 233.526 373.68 233.1 374.114 232.582C374.547 232.065 374.875 231.467 375.077 230.824C375.28 230.18 375.354 229.502 375.294 228.83C375.235 228.158 375.044 227.504 374.732 226.905C374.42 226.307 373.994 225.775 373.476 225.342C372.959 224.908 372.362 224.581 371.718 224.378C371.074 224.176 370.397 224.102 369.724 224.161C368.975 224.238 368.221 224.238 367.472 224.161C367.199 224.139 366.925 224.139 366.652 224.161H366.693ZM284.696 226.086C283.615 226.083 282.56 226.423 281.683 227.056C280.806 227.69 280.153 228.585 279.816 229.613C279.48 230.64 279.477 231.749 279.81 232.778C280.142 233.807 280.791 234.705 281.665 235.342C288.328 240.302 293.904 246.575 298.048 253.773C302.213 260.97 304.862 268.943 305.83 277.201C305.883 277.9 306.079 278.58 306.405 279.2C306.731 279.819 307.181 280.366 307.727 280.805C308.273 281.244 308.903 281.566 309.579 281.752C310.254 281.937 310.96 281.982 311.654 281.884C312.347 281.786 313.013 281.546 313.611 281.18C314.208 280.814 314.724 280.33 315.126 279.756C315.528 279.183 315.809 278.533 315.95 277.847C316.091 277.161 316.09 276.453 315.947 275.768C314.814 266.199 311.749 256.96 306.936 248.613C302.112 240.286 295.646 233.027 287.932 227.274C287.014 226.504 285.853 226.083 284.655 226.086H284.696ZM362.147 240.012C360.866 240.004 359.628 240.477 358.679 241.337C357.73 242.198 357.137 243.383 357.019 244.658C356.901 245.934 357.265 247.208 358.04 248.228C358.815 249.248 359.944 249.941 361.205 250.169C366.073 251.13 371.082 251.13 375.95 250.169C376.626 250.067 377.276 249.831 377.86 249.474C378.443 249.117 378.95 248.646 379.348 248.09C379.747 247.534 380.031 246.904 380.182 246.237C380.333 245.569 380.349 244.878 380.228 244.205C380.108 243.531 379.853 242.889 379.48 242.315C379.107 241.741 378.623 241.248 378.056 240.865C377.489 240.482 376.851 240.216 376.18 240.084C375.509 239.951 374.818 239.954 374.148 240.093C370.499 240.837 366.738 240.837 363.089 240.093C362.78 240.023 362.464 239.982 362.147 239.971V240.012ZM279.003 242.633C277.971 242.63 276.962 242.939 276.109 243.519C275.255 244.099 274.597 244.924 274.221 245.885C273.844 246.846 273.767 247.899 273.999 248.904C274.231 249.91 274.762 250.822 275.522 251.521C278.798 254.551 281.665 258.074 283.877 261.924C286.127 265.816 287.771 270.028 288.751 274.416C288.974 275.421 289.494 276.336 290.245 277.041C290.995 277.746 291.941 278.208 292.958 278.368C293.975 278.527 295.017 278.376 295.947 277.934C296.877 277.492 297.652 276.78 298.171 275.89C298.868 274.662 298.99 273.269 298.704 271.999C297.492 266.68 295.491 261.571 292.765 256.845C290.044 252.132 286.634 247.853 282.648 244.148C282.168 243.674 281.599 243.3 280.973 243.047C280.347 242.794 279.678 242.667 279.003 242.674V242.633ZM353.341 254.797C352.151 254.919 351.042 255.453 350.205 256.307C349.368 257.162 348.856 258.282 348.759 259.474C348.661 260.666 348.984 261.854 349.672 262.833C350.359 263.812 351.368 264.519 352.522 264.832C357.734 266.453 363.16 267.281 368.618 267.289C374.066 267.289 379.472 266.47 384.633 264.832C385.936 264.452 387.035 263.569 387.688 262.379C388.341 261.188 388.494 259.787 388.114 258.483C387.734 257.18 386.852 256.081 385.661 255.428C384.47 254.775 383.069 254.622 381.766 255.002C377.499 256.348 373.052 257.038 368.577 257.05C364.113 257.05 359.649 256.354 355.389 255.002C354.727 254.796 354.031 254.726 353.341 254.797ZM270.32 257.091C269.335 257.095 268.372 257.382 267.546 257.92C266.721 258.457 266.068 259.221 265.665 260.121C265.263 261.02 265.129 262.016 265.279 262.99C265.429 263.964 265.857 264.873 266.511 265.61C268.978 268.401 270.859 271.661 272.04 275.194C272.357 276.121 272.933 276.938 273.7 277.547C274.467 278.156 275.392 278.533 276.367 278.632C277.341 278.731 278.323 278.549 279.197 278.106C280.071 277.664 280.8 276.98 281.297 276.136C282.116 274.785 282.198 273.187 281.706 271.795C280.101 267.076 277.582 262.72 274.293 258.975C273.812 258.385 273.206 257.911 272.519 257.585C271.832 257.259 271.081 257.09 270.32 257.091ZM342.201 267.986C341.022 268.039 339.897 268.498 339.018 269.286C338.138 270.073 337.558 271.14 337.375 272.306C337.192 273.472 337.417 274.665 338.013 275.684C338.609 276.703 339.538 277.485 340.644 277.897C349.481 281.698 358.999 283.663 368.618 283.672C378.252 283.668 387.784 281.704 396.633 277.897C397.257 277.645 397.825 277.271 398.305 276.799C398.785 276.327 399.167 275.765 399.429 275.145C399.691 274.525 399.829 273.859 399.834 273.186C399.84 272.513 399.712 271.845 399.459 271.221C399.207 270.597 398.833 270.029 398.361 269.55C397.889 269.07 397.327 268.688 396.707 268.426C396.087 268.163 395.421 268.025 394.748 268.02C394.075 268.015 393.407 268.142 392.783 268.395C385.158 271.712 376.933 273.427 368.618 273.433C360.345 273.433 352.072 271.713 344.494 268.395C343.771 268.086 342.987 267.945 342.201 267.986ZM259.098 269.255C258.157 269.259 257.236 269.521 256.435 270.014C255.634 270.507 254.984 271.211 254.556 272.049C254.129 272.886 253.941 273.826 254.012 274.764C254.083 275.701 254.412 276.601 254.961 277.365C255.392 277.983 255.763 278.641 256.067 279.331C256.447 280.2 257.061 280.946 257.841 281.487C258.621 282.027 259.535 282.34 260.482 282.391C261.429 282.442 262.372 282.229 263.205 281.775C264.038 281.322 264.729 280.646 265.2 279.822C266.061 278.266 266.061 276.464 265.364 274.989C264.788 273.783 264.102 272.631 263.316 271.549C262.854 270.851 262.228 270.277 261.493 269.877C260.757 269.477 259.935 269.264 259.098 269.255ZM245.418 278.839C244.118 278.933 242.903 279.519 242.02 280.478C241.137 281.437 240.653 282.697 240.667 284H250.906C250.914 283.292 250.774 282.59 250.497 281.939C250.219 281.288 249.81 280.701 249.294 280.216C248.778 279.731 248.167 279.358 247.5 279.121C246.833 278.884 246.124 278.788 245.418 278.839Z" fill="white"/>
</svg>
