<svg xmlns="http://www.w3.org/2000/svg" width="18" height="16" viewBox="0 0 18 16" fill="none">
  <path fill-rule="evenodd" clip-rule="evenodd" d="M2.28333 4.55005V14.25H15.7167V4.55005H2.28333ZM0.783325 4.42227C0.783325 3.66441 1.39769 3.05005 2.15555 3.05005H15.8444C16.6023 3.05005 17.2167 3.66441 17.2167 4.42227V14.3778C17.2167 15.1357 16.6023 15.75 15.8444 15.75H2.15555C1.39769 15.75 0.783325 15.1357 0.783325 14.3778V4.42227Z" fill="#8999B9"/>
  <path fill-rule="evenodd" clip-rule="evenodd" d="M5.72304 0.834159C6.09708 0.460128 6.60437 0.25 7.13333 0.25H10.8667C11.3956 0.25 11.9029 0.460128 12.2769 0.834159C12.651 1.20819 12.8611 1.71548 12.8611 2.24444V3.8C12.8611 4.21421 12.5253 4.55 12.1111 4.55C11.6969 4.55 11.3611 4.21421 11.3611 3.8V2.24444C11.3611 2.11331 11.309 1.98755 11.2163 1.89482C11.1236 1.80209 10.9978 1.75 10.8667 1.75H7.13333C7.0022 1.75 6.87643 1.80209 6.78371 1.89482C6.69098 1.98755 6.63889 2.11331 6.63889 2.24444V3.8C6.63889 4.21421 6.3031 4.55 5.88889 4.55C5.47467 4.55 5.13889 4.21421 5.13889 3.8V2.24444C5.13889 1.71548 5.34901 1.20819 5.72304 0.834159Z" fill="#8999B9"/>
  <path fill-rule="evenodd" clip-rule="evenodd" d="M0.783325 10.9556C0.783325 10.5414 1.11911 10.2056 1.53333 10.2056H16.4667C16.8809 10.2056 17.2167 10.5414 17.2167 10.9556C17.2167 11.3698 16.8809 11.7056 16.4667 11.7056H1.53333C1.11911 11.7056 0.783325 11.3698 0.783325 10.9556Z" fill="#8999B9"/>
</svg>